SplineFontDB: 3.2
FontName: Plexolas-Italic
FullName: Plexolas Italic
FamilyName: Plexolas
Weight: Regular
Copyright: 
Version: 1.0
ItalicAngle: -11
UnderlinePosition: -338
UnderlineWidth: 144
Ascent: 1521
Descent: 527
InvalidEm: 0
sfntRevision: 0x00010000
LayerCount: 2
Layer: 0 1 "Back" 1
Layer: 1 1 "Fore" 0
XUID: [1021 524 -1093598656 14427050]
StyleMap: 0x0001
FSType: 8
OS2Version: 3
OS2_WeightWidthSlopeOnly: 0
OS2_UseTypoMetrics: 0
CreationTime: 1069378219
ModificationTime: 1644163061
PfmFamily: 17
TTFWeight: 400
TTFWidth: 5
LineGap: 350
VLineGap: 0
Panose: 2 11 6 9 2 2 4 10 2 4
OS2TypoAscent: 1521
OS2TypoAOffset: 0
OS2TypoDescent: -527
OS2TypoDOffset: 0
OS2TypoLinegap: 350
OS2WinAscent: 1884
OS2WinAOffset: 0
OS2WinDescent: 514
OS2WinDOffset: 0
HheadAscent: 1521
HheadAOffset: 0
HheadDescent: -527
HheadDOffset: 0
OS2SubXSize: 1434
OS2SubYSize: 1331
OS2SubXOff: 0
OS2SubYOff: 287
OS2SupXSize: 1434
OS2SupYSize: 1331
OS2SupXOff: 0
OS2SupYOff: 977
OS2StrikeYSize: 102
OS2StrikeYPos: 512
OS2CapHeight: 1307
OS2XHeight: 1004
OS2FamilyClass: 2057
OS2Vendor: 'MS  '
OS2CodePages: 6000019f.dfd70000
OS2UnicodeRanges: e10002ff.4000fcff.00000009.00000000
Lookup: 1 0 0 "'rtla' Right to Left Alternates in Greek lookup 0" { "'rtla' Right to Left Alternates in Greek lookup 0 subtable"  } ['rtla' ('DFLT' <'dflt' > 'grek' <'dflt' > ) ]
Lookup: 254 0 0 "<11,2> Diagonal Fractions lookup 1" { "<11,2> Diagonal Fractions lookup 1 subtable"  } [<11,2> ('DFLT' <'dflt' > ) ]
Lookup: 1 0 0 "<11,2> Diagonal Fractions lookup 1 nested-substitutions 0" { "<11,2> Diagonal Fractions lookup 1 nested-substitutions 0 subtable"  } []
Lookup: 254 0 0 "<11,2> Diagonal Fractions lookup 3" { "<11,2> Diagonal Fractions lookup 3 subtable"  } [<11,2> ('DFLT' <'dflt' > ) ]
Lookup: 1 0 0 "<11,2> Diagonal Fractions lookup 3 nested-substitutions 0" { "<11,2> Diagonal Fractions lookup 3 nested-substitutions 0 subtable"  } []

StartChar: .notdef
Encoding: 65536 -1 0
Width: 1126
Flags: W
LayerCount: 2
Fore
SplineSet
928 10 m 1,0,-1
 1184 1297 l 1,1,-1
 254 1297 l 1,2,-1
 -2 10 l 1,3,-1
 928 10 l 1,0,-1
84 82 m 1,4,-1
 311 1224 l 1,5,-1
 1095 1224 l 1,6,-1
 868 82 l 1,7,-1
 84 82 l 1,4,-1
543 612 m 2,8,9
 630 612 630 612 689 636.5 c 128,-1,10
 748 661 748 661 784.5 699 c 128,-1,11
 821 737 821 737 837.5 783.5 c 128,-1,12
 854 830 854 830 854 875 c 128,-1,13
 854 920 854 920 834 963.5 c 128,-1,14
 814 1007 814 1007 772 1040 c 128,-1,15
 730 1073 730 1073 664.5 1092.5 c 128,-1,16
 599 1112 599 1112 508 1112 c 2,17,-1
 477 1112 l 1,18,-1
 463 1032 l 1,19,-1
 496 1032 l 2,20,21
 552 1032 552 1032 598 1021 c 0,22,23
 692 997 692 997 729 934 c 0,24,25
 747 903 747 903 747 862 c 0,26,27
 747 835 747 835 738 804 c 128,-1,28
 729 773 729 773 706 746.5 c 128,-1,29
 683 720 683 720 643.5 703 c 128,-1,30
 604 686 604 686 545 686 c 2,31,-1
 459 686 l 1,32,-1
 420 454 l 1,33,-1
 500 454 l 1,34,-1
 535 612 l 1,35,-1
 543 612 l 2,8,9
424 344 m 0,36,37
 408 344 408 344 393.5 338 c 128,-1,38
 379 332 379 332 367.5 321 c 128,-1,39
 356 310 356 310 350 295.5 c 128,-1,40
 344 281 344 281 344 264 c 0,41,42
 344 234 344 234 364.5 212 c 128,-1,43
 385 190 385 190 418 190 c 0,44,45
 449 190 449 190 474 213 c 0,46,47
 485 224 485 224 491.5 238 c 128,-1,48
 498 252 498 252 498 268 c 0,49,50
 498 299 498 299 477.5 321.5 c 128,-1,51
 457 344 457 344 424 344 c 0,36,37
EndSplineSet
EndChar

StartChar: exclam
Encoding: 33 33 4
Width: 1126
Flags: W
LayerCount: 2
Fore
SplineSet
604 393 m 1,0,-1
 833 1403 l 1,1,-1
 643 1403 l 1,2,-1
 471 393 l 1,3,-1
 604 393 l 1,0,-1
568.5 200.5 m 128,-1,5
 553 217 553 217 532 226.5 c 128,-1,6
 511 236 511 236 485.5 236 c 128,-1,7
 460 236 460 236 437 226.5 c 128,-1,8
 414 217 414 217 396 199.5 c 128,-1,9
 378 182 378 182 368 159 c 128,-1,10
 358 136 358 136 358 110.5 c 128,-1,11
 358 85 358 85 367 64 c 0,12,13
 384 21 384 21 429 2 c 0,14,15
 450 -8 450 -8 476 -8 c 128,-1,16
 502 -8 502 -8 525 2 c 0,17,18
 571 22 571 22 592 68 c 0,19,20
 602 90 602 90 602 115.5 c 128,-1,21
 602 141 602 141 593 162.5 c 128,-1,4
 584 184 584 184 568.5 200.5 c 128,-1,5
EndSplineSet
EndChar

StartChar: quotedbl
Encoding: 34 34 5
Width: 1126
Flags: W
LayerCount: 2
Fore
SplineSet
529 954 m 1,0,-1
 646 1403 l 1,1,-1
 447 1403 l 1,2,-1
 384 954 l 1,3,-1
 529 954 l 1,0,-1
918 954 m 1,4,-1
 1036 1403 l 1,5,-1
 836 1403 l 1,6,-1
 773 954 l 1,7,-1
 918 954 l 1,4,-1
EndSplineSet
EndChar

StartChar: numbersign
Encoding: 35 35 6
Width: 1126
Flags: W
LayerCount: 2
Fore
SplineSet
771 377 m 1,0,-1
 993 377 l 1,1,-1
 1015 487 l 1,2,-1
 804 487 l 1,3,-1
 916 857 l 1,4,-1
 1142 857 l 1,5,-1
 1164 967 l 1,6,-1
 949 967 l 1,7,-1
 1048 1297 l 1,8,-1
 920 1297 l 1,9,-1
 821 967 l 1,10,-1
 546 967 l 1,11,-1
 645 1297 l 1,12,-1
 517 1297 l 1,13,-1
 418 967 l 1,14,-1
 194 967 l 1,15,-1
 174 857 l 1,16,-1
 385 857 l 1,17,-1
 274 487 l 1,18,-1
 49 487 l 1,19,-1
 26 377 l 1,20,-1
 241 377 l 1,21,-1
 130 10 l 1,22,-1
 258 10 l 1,23,-1
 368 377 l 1,24,-1
 643 377 l 1,25,-1
 533 10 l 1,26,-1
 661 10 l 1,27,-1
 771 377 l 1,0,-1
402 487 m 1,28,-1
 513 857 l 1,29,-1
 788 857 l 1,30,-1
 676 487 l 1,31,-1
 402 487 l 1,28,-1
EndSplineSet
EndChar

StartChar: dollar
Encoding: 36 36 7
Width: 1126
Flags: W
LayerCount: 2
Fore
SplineSet
253.5 1064.5 m 128,-1,1
 219 998 219 998 219 918 c 0,2,3
 219 817 219 817 293 742 c 0,4,5
 363 671 363 671 491 619 c 2,6,-1
 499 616 l 1,7,-1
 343 144 l 1,8,9
 244 149 244 149 178 162.5 c 128,-1,10
 112 176 112 176 57 194 c 1,11,-1
 28 52 l 1,12,13
 149 20 149 20 286 10 c 2,14,-1
 299 9 l 1,15,-1
 219 -226 l 1,16,-1
 351 -226 l 1,17,-1
 431 10 l 1,18,19
 551 14 551 14 633.5 35.5 c 128,-1,20
 716 57 716 57 774.5 90 c 128,-1,21
 833 123 833 123 869 163 c 0,22,23
 938 240 938 240 955 330 c 0,24,25
 963 372 963 372 963 406 c 0,26,27
 963 458 963 458 943 500 c 0,28,29
 904 584 904 584 794 649 c 0,30,31
 740 681 740 681 666 716 c 1,32,-1
 816 1166 l 1,33,34
 879 1160 879 1160 928 1149.5 c 128,-1,35
 977 1139 977 1139 1024 1126 c 1,36,-1
 1051 1261 l 1,37,38
 957 1285 957 1285 871 1293 c 2,39,-1
 858 1294 l 1,40,-1
 924 1485 l 1,41,-1
 791 1485 l 1,42,-1
 728 1297 l 1,43,44
 604 1291 604 1291 510.5 1261 c 128,-1,45
 417 1231 417 1231 352.5 1181 c 128,-1,0
 288 1131 288 1131 253.5 1064.5 c 128,-1,1
419 850 m 0,46,47
 387 892 387 892 387 946 c 0,48,49
 387 1045 387 1045 463.5 1101.5 c 128,-1,50
 540 1158 540 1158 669 1167 c 2,51,-1
 684 1168 l 1,52,-1
 549 763 l 1,53,-1
 539 767 l 2,54,55
 456 802 456 802 419 850 c 0,46,47
788 432 m 0,56,57
 796 409 796 409 796 385 c 0,58,59
 796 344 796 344 781 302.5 c 128,-1,60
 766 261 766 261 730 227 c 128,-1,61
 694 193 694 193 635 170.5 c 128,-1,62
 576 148 576 148 489 144 c 2,63,-1
 475 143 l 1,64,-1
 617 568 l 1,65,66
 676 544 676 544 708 523 c 0,67,68
 772 481 772 481 788 432 c 0,56,57
EndSplineSet
Substitution2: "<21,0> Lower Case Numbers lookup 7 subtable" dollar.oldstyle
EndChar

StartChar: percent
Encoding: 37 37 8
Width: 1126
Flags: W
LayerCount: 2
Fore
SplineSet
663.5 1078 m 128,-1,1
 682 1143 682 1143 682 1204 c 0,2,3
 682 1302 682 1302 629 1359 c 0,4,5
 603 1386 603 1386 563.5 1401.5 c 128,-1,6
 524 1417 524 1417 471 1417 c 0,7,8
 394 1417 394 1417 335 1384.5 c 128,-1,9
 276 1352 276 1352 236 1300.5 c 128,-1,10
 196 1249 196 1249 175.5 1184 c 128,-1,11
 155 1119 155 1119 155 1055 c 0,12,13
 155 1010 155 1010 166 971 c 0,14,15
 190 890 190 890 269 856 c 0,16,17
 310 839 310 839 369 839 c 0,18,19
 450 839 450 839 508.5 873 c 128,-1,20
 567 907 567 907 606 960 c 128,-1,0
 645 1013 645 1013 663.5 1078 c 128,-1,1
551 1234 m 0,21,22
 555 1215 555 1215 555 1196 c 0,23,24
 555 1157 555 1157 545 1113 c 128,-1,25
 535 1069 535 1069 514.5 1032 c 128,-1,26
 494 995 494 995 461.5 970.5 c 128,-1,27
 429 946 429 946 385 946 c 0,28,29
 328 946 328 946 301 984 c 0,30,31
 290 1001 290 1001 286 1021.5 c 128,-1,32
 282 1042 282 1042 282 1067 c 128,-1,33
 282 1092 282 1092 290.5 1134 c 128,-1,34
 299 1176 299 1176 319.5 1214.5 c 128,-1,35
 340 1253 340 1253 373 1281.5 c 128,-1,36
 406 1310 406 1310 455 1310 c 0,37,38
 486 1310 486 1310 505 1299 c 0,39,40
 543 1279 543 1279 551 1234 c 0,21,22
-64 10 m 1,41,-1
 81 10 l 1,42,-1
 1268 1403 l 1,43,-1
 1121 1403 l 1,44,-1
 -64 10 l 1,41,-1
1028 245.5 m 128,-1,46
 1047 310 1047 310 1047 371 c 0,47,48
 1047 419 1047 419 1034 459 c 0,49,50
 1006 540 1006 540 929 569 c 0,51,52
 889 585 889 585 836 585 c 0,53,54
 759 585 759 585 700 552.5 c 128,-1,55
 641 520 641 520 601 468 c 128,-1,56
 561 416 561 416 540.5 351 c 128,-1,57
 520 286 520 286 520 222 c 0,58,59
 520 177 520 177 531 138 c 0,60,61
 555 57 555 57 633 24 c 0,62,63
 674 7 674 7 733 7 c 0,64,65
 814 7 814 7 873 40.5 c 128,-1,66
 932 74 932 74 970.5 127.5 c 128,-1,45
 1009 181 1009 181 1028 245.5 c 128,-1,46
902 438 m 0,67,68
 920 409 920 409 920 362 c 0,69,70
 920 323 920 323 909.5 279.5 c 128,-1,71
 899 236 899 236 878.5 199.5 c 128,-1,72
 858 163 858 163 825.5 138 c 128,-1,73
 793 113 793 113 750 113 c 0,74,75
 692 113 692 113 667 151 c 0,76,77
 647 180 647 180 647 229 c 0,78,79
 647 258 647 258 655.5 300.5 c 128,-1,80
 664 343 664 343 684 382 c 128,-1,81
 704 421 704 421 737 449 c 128,-1,82
 770 477 770 477 819 477 c 0,83,84
 850 477 850 477 870.5 466 c 128,-1,85
 891 455 891 455 902 438 c 0,67,68
EndSplineSet
EndChar

StartChar: ampersand
Encoding: 38 38 9
Width: 1126
Flags: W
LayerCount: 2
Fore
SplineSet
957 1114 m 0,0,1
 957 1167 957 1167 940 1215 c 0,2,3
 904 1313 904 1313 798 1353 c 0,4,5
 743 1374 743 1374 668 1374 c 0,6,7
 578 1374 578 1374 507 1345 c 128,-1,8
 436 1316 436 1316 386 1266.5 c 128,-1,9
 336 1217 336 1217 309 1150.5 c 128,-1,10
 282 1084 282 1084 282 1008 c 0,11,12
 282 945 282 945 299.5 887.5 c 128,-1,13
 317 830 317 830 349 777 c 2,14,-1
 370 741 l 1,15,16
 293 701 293 701 233 660 c 0,17,18
 106 572 106 572 55 450 c 0,19,20
 28 386 28 386 28 309 c 0,21,22
 28 158 28 158 122 77 c 0,23,24
 167 38 167 38 233.5 17 c 128,-1,25
 300 -4 300 -4 388.5 -4 c 128,-1,26
 477 -4 477 -4 564.5 26 c 128,-1,27
 652 56 652 56 729 117 c 2,28,-1
 738 124 l 1,29,-1
 807 10 l 1,30,-1
 1000 10 l 1,31,-1
 860 243 l 1,32,-1
 864 248 l 1,33,34
 993 417 993 417 1045 672 c 1,35,-1
 889 672 l 1,36,37
 856 498 856 498 791 382 c 2,38,-1
 782 367 l 1,39,-1
 576 711 l 1,40,41
 662 754 662 754 730 793.5 c 128,-1,42
 798 833 798 833 848.5 879.5 c 128,-1,43
 899 926 899 926 928 983 c 128,-1,44
 957 1040 957 1040 957 1114 c 0,0,1
191 334 m 0,45,46
 191 388 191 388 209 432 c 0,47,48
 242 515 242 515 331 578 c 0,49,50
 373 608 373 608 432 638 c 1,51,-1
 672 236 l 1,52,-1
 666 231 l 2,53,54
 607 178 607 178 541.5 151.5 c 128,-1,55
 476 125 476 125 408 125 c 0,56,57
 304 125 304 125 247.5 177.5 c 128,-1,58
 191 230 191 230 191 334 c 0,45,46
796 1102 m 0,59,60
 796 1050 796 1050 774 1008.5 c 128,-1,61
 752 967 752 967 715 933.5 c 128,-1,62
 678 900 678 900 629 871.5 c 128,-1,63
 580 843 580 843 515 812 c 1,64,-1
 509 824 l 1,65,66
 472 886 472 886 457 932 c 0,67,68
 443 974 443 974 443 1021 c 128,-1,69
 443 1068 443 1068 456 1107.5 c 128,-1,70
 469 1147 469 1147 495.5 1178 c 128,-1,71
 522 1209 522 1209 560 1228 c 128,-1,72
 598 1247 598 1247 647 1247 c 0,73,74
 720 1247 720 1247 758 1206.5 c 128,-1,75
 796 1166 796 1166 796 1102 c 0,59,60
EndSplineSet
EndChar

StartChar: quotesingle
Encoding: 39 39 10
Width: 1126
Flags: W
LayerCount: 2
Fore
SplineSet
727 954 m 1,0,-1
 845 1403 l 1,1,-1
 638 1403 l 1,2,-1
 575 954 l 1,3,-1
 727 954 l 1,0,-1
EndSplineSet
EndChar

StartChar: parenleft
Encoding: 40 40 11
Width: 1126
Flags: W
LayerCount: 2
Fore
SplineSet
291 319 m 0,0,1
 291 119 291 119 365.5 -63.5 c 128,-1,2
 440 -246 440 -246 583 -406 c 1,3,-1
 687 -321 l 1,4,5
 565 -165 565 -165 507 -6.5 c 128,-1,6
 449 152 449 152 449 328 c 0,7,8
 449 442 449 442 476 568 c 128,-1,9
 503 694 503 694 570.5 828.5 c 128,-1,10
 638 963 638 963 748.5 1102 c 128,-1,11
 859 1241 859 1241 1024 1379 c 1,12,-1
 952 1471 l 1,13,14
 775 1333 775 1333 649 1190 c 128,-1,15
 523 1047 523 1047 443 901.5 c 128,-1,16
 363 756 363 756 327 610 c 128,-1,17
 291 464 291 464 291 319 c 0,0,1
EndSplineSet
Substitution2: "<10,2> Inferiors lookup 6 subtable" uni208D
Substitution2: "<10,1> Superiors in Latin lookup 5 subtable" uni207D
Substitution2: "'rtla' Right to Left Alternates in Greek lookup 0 subtable" parenright
EndChar

StartChar: parenright
Encoding: 41 41 12
Width: 1126
Flags: W
LayerCount: 2
Fore
SplineSet
841 745 m 0,0,1
 841 946 841 946 766.5 1128.5 c 128,-1,2
 692 1311 692 1311 549 1471 c 1,3,-1
 445 1385 l 1,4,5
 567 1229 567 1229 625 1071 c 128,-1,6
 683 913 683 913 683 737 c 0,7,8
 683 623 683 623 656 497 c 128,-1,9
 629 371 629 371 561.5 236.5 c 128,-1,10
 494 102 494 102 383 -37 c 128,-1,11
 272 -176 272 -176 107 -314 c 1,12,-1
 179 -406 l 1,13,14
 356 -268 356 -268 482 -125 c 128,-1,15
 608 18 608 18 688.5 163.5 c 128,-1,16
 769 309 769 309 805 454.5 c 128,-1,17
 841 600 841 600 841 745 c 0,0,1
EndSplineSet
Substitution2: "<10,2> Inferiors lookup 6 subtable" uni208E
Substitution2: "<10,1> Superiors in Latin lookup 5 subtable" uni207E
Substitution2: "'rtla' Right to Left Alternates in Greek lookup 0 subtable" parenleft
EndChar

StartChar: asterisk
Encoding: 42 42 13
Width: 1126
Flags: W
LayerCount: 2
Fore
SplineSet
986 735 m 1,0,-1
 1043 836 l 1,1,-1
 729 987 l 1,2,-1
 1045 1143 l 1,3,-1
 986 1248 l 1,4,-1
 698 1049 l 1,5,-1
 720 1403 l 1,6,-1
 599 1403 l 1,7,-1
 626 1049 l 1,8,-1
 333 1246 l 1,9,-1
 274 1147 l 1,10,-1
 589 989 l 1,11,-1
 274 834 l 1,12,-1
 328 735 l 1,13,-1
 621 926 l 1,14,-1
 599 575 l 1,15,-1
 720 575 l 1,16,-1
 698 929 l 1,17,-1
 986 735 l 1,0,-1
EndSplineSet
EndChar

StartChar: plus
Encoding: 43 43 14
Width: 1126
Flags: W
LayerCount: 2
Fore
SplineSet
633 479 m 1,0,-1
 1026 479 l 1,1,-1
 1053 611 l 1,2,-1
 660 611 l 1,3,-1
 740 1016 l 1,4,-1
 588 1016 l 1,5,-1
 508 611 l 1,6,-1
 114 611 l 1,7,-1
 88 479 l 1,8,-1
 481 479 l 1,9,-1
 399 71 l 1,10,-1
 551 71 l 1,11,-1
 633 479 l 1,0,-1
EndSplineSet
Substitution2: "<10,2> Inferiors lookup 6 subtable" uni208A
Substitution2: "<10,1> Superiors in Latin lookup 5 subtable" uni207A
EndChar

StartChar: comma
Encoding: 44 44 15
Width: 1126
Flags: W
LayerCount: 2
Fore
SplineSet
631 147 m 0,0,1
 631 230 631 230 591.5 271 c 128,-1,2
 552 312 552 312 489 312 c 0,3,4
 465 312 465 312 440.5 302.5 c 128,-1,5
 416 293 416 293 396.5 275 c 128,-1,6
 377 257 377 257 364.5 230 c 128,-1,7
 352 203 352 203 352 172 c 128,-1,8
 352 141 352 141 360 122 c 128,-1,9
 368 103 368 103 377.5 86.5 c 128,-1,10
 387 70 387 70 396 50 c 128,-1,11
 405 30 405 30 405 2 c 0,12,13
 405 -55 405 -55 373.5 -97 c 128,-1,14
 342 -139 342 -139 294.5 -165.5 c 128,-1,15
 247 -192 247 -192 193.5 -203.5 c 128,-1,16
 140 -215 140 -215 95 -215 c 0,17,18
 92 -215 92 -215 90 -215 c 1,19,-1
 90 -332 l 1,20,21
 180 -331 180 -331 256 -309.5 c 128,-1,22
 332 -288 332 -288 393.5 -250.5 c 128,-1,23
 455 -213 455 -213 499.5 -164.5 c 128,-1,24
 544 -116 544 -116 573.5 -62.5 c 128,-1,25
 603 -9 603 -9 617 44.5 c 128,-1,26
 631 98 631 98 631 147 c 0,0,1
EndSplineSet
EndChar

StartChar: hyphen
Encoding: 45 45 16
AltUni2: 002010.ffffffff.0 0000ad.ffffffff.0
Width: 1126
Flags: W
LayerCount: 2
Fore
SplineSet
844 473 m 1,0,-1
 873 617 l 1,1,-1
 295 617 l 1,2,-1
 266 473 l 1,3,-1
 844 473 l 1,0,-1
EndSplineSet
EndChar

StartChar: period
Encoding: 46 46 17
Width: 1126
Flags: W
LayerCount: 2
Fore
SplineSet
548.5 293 m 128,-1,1
 521 305 521 305 488 305 c 128,-1,2
 455 305 455 305 426 292.5 c 128,-1,3
 397 280 397 280 374 258 c 128,-1,4
 351 236 351 236 338 206 c 128,-1,5
 325 176 325 176 325 143.5 c 128,-1,6
 325 111 325 111 336 84.5 c 128,-1,7
 347 58 347 58 367.5 37 c 128,-1,8
 388 16 388 16 415 4 c 128,-1,9
 442 -8 442 -8 474.5 -8 c 128,-1,10
 507 -8 507 -8 536.5 4 c 128,-1,11
 566 16 566 16 588.5 38.5 c 128,-1,12
 611 61 611 61 624 90.5 c 128,-1,13
 637 120 637 120 637 152 c 128,-1,14
 637 184 637 184 626 212 c 128,-1,15
 615 240 615 240 595.5 260.5 c 128,-1,0
 576 281 576 281 548.5 293 c 128,-1,1
EndSplineSet
EndChar

StartChar: slash
Encoding: 47 47 18
Width: 1126
Flags: W
LayerCount: 2
Fore
SplineSet
133 -205 m 1,0,-1
 1135 1403 l 1,1,-1
 981 1403 l 1,2,-1
 -21 -205 l 1,3,-1
 133 -205 l 1,0,-1
EndSplineSet
Substitution2: "<11,2> Diagonal Fractions lookup 1 nested-substitutions 0 subtable" fraction
EndChar

StartChar: zero
Encoding: 48 48 19
Width: 1126
Flags: W
LayerCount: 2
Fore
SplineSet
102 420 m 0,0,1
 102 311 102 311 128 230 c 0,2,3
 204 -8 204 -8 468 -8 c 0,4,5
 555 -8 555 -8 631 19 c 0,6,7
 779 73 779 73 875 203 c 0,8,9
 967 326 967 326 1016 484 c 0,10,11
 1061 628 1061 628 1076 771 c 0,12,13
 1082 836 1082 836 1082 887 c 0,14,15
 1082 996 1082 996 1056 1077 c 0,16,17
 1005 1237 1005 1237 870 1289 c 0,18,19
 803 1315 803 1315 721 1315 c 0,20,21
 628 1315 628 1315 552 1288 c 0,22,23
 405 1234 405 1234 309 1104 c 0,24,25
 217 981 217 981 168 822 c 0,26,27
 123 678 123 678 108 536 c 0,28,29
 102 470 102 470 102 420 c 0,0,1
613 149 m 0,30,31
 554 119 554 119 485 119 c 0,32,33
 379 119 379 119 322 189 c 0,34,35
 295 222 295 222 281 266.5 c 128,-1,36
 267 311 267 311 261 370 c 1,37,-1
 921 795 l 1,38,-1
 919 775 l 2,39,40
 913 706 913 706 898 630 c 0,41,42
 867 475 867 475 797 344 c 0,43,44
 724 207 724 207 613 149 c 0,30,31
571 1159 m 0,45,46
 629 1188 629 1188 698 1188 c 0,47,48
 751 1188 751 1188 791 1170 c 0,49,50
 900 1120 900 1120 921 953 c 1,51,-1
 922 947 l 1,52,-1
 262 523 l 1,53,-1
 264 544 l 2,54,55
 271 613 271 613 287 687 c 0,56,57
 321 844 321 844 389 968 c 0,58,59
 462 1103 462 1103 571 1159 c 0,45,46
EndSplineSet
Substitution2: "<21,0> Lower Case Numbers lookup 7 subtable" zero.oldstyle
Substitution2: "<10,2> Inferiors lookup 6 subtable" uni2080
EndChar

StartChar: one
Encoding: 49 49 20
Width: 1126
Flags: W
LayerCount: 2
Fore
SplineSet
645 1124 m 1,0,-1
 450 152 l 1,1,-1
 114 152 l 1,2,-1
 86 10 l 1,3,-1
 887 10 l 1,4,-1
 916 152 l 1,5,-1
 623 152 l 1,6,-1
 852 1303 l 1,7,-1
 709 1303 l 1,8,-1
 260 1089 l 1,9,-1
 297 954 l 1,10,-1
 645 1124 l 1,0,-1
EndSplineSet
Substitution2: "<21,0> Lower Case Numbers lookup 7 subtable" one.oldstyle
Substitution2: "<10,2> Inferiors lookup 6 subtable" uni2081
EndChar

StartChar: two
Encoding: 50 50 21
Width: 1126
Flags: W
LayerCount: 2
Fore
SplineSet
926 156 m 1,0,-1
 285 156 l 1,1,-1
 592 405 l 2,2,3
 710 502 710 502 791.5 579.5 c 128,-1,4
 873 657 873 657 923.5 727 c 128,-1,5
 974 797 974 797 996 865 c 128,-1,6
 1018 933 1018 933 1018 1006.5 c 128,-1,7
 1018 1080 1018 1080 994.5 1136 c 128,-1,8
 971 1192 971 1192 927.5 1232 c 128,-1,9
 884 1272 884 1272 822.5 1293.5 c 128,-1,10
 761 1315 761 1315 686 1315 c 0,11,12
 517 1315 517 1315 366 1215 c 0,13,14
 323 1186 323 1186 282 1152 c 1,15,-1
 356 1052 l 1,16,17
 422 1108 422 1108 497 1144.5 c 128,-1,18
 572 1181 572 1181 657 1181 c 0,19,20
 756 1181 756 1181 804 1129 c 128,-1,21
 852 1077 852 1077 852 993 c 0,22,23
 852 945 852 945 837.5 896 c 128,-1,24
 823 847 823 847 783.5 788.5 c 128,-1,25
 744 730 744 730 673 657.5 c 128,-1,26
 602 585 602 585 487 488 c 2,27,-1
 85 151 l 1,28,-1
 57 10 l 1,29,-1
 897 10 l 1,30,-1
 926 156 l 1,0,-1
EndSplineSet
Substitution2: "<21,0> Lower Case Numbers lookup 7 subtable" two.oldstyle
Substitution2: "<10,2> Inferiors lookup 6 subtable" uni2082
EndChar

StartChar: three
Encoding: 51 51 22
Width: 1126
Flags: W
LayerCount: 2
Fore
SplineSet
100 143 m 1,0,-1
 73 10 l 1,1,2
 187 -8 187 -8 328 -8 c 0,3,4
 444 -8 444 -8 535.5 12.5 c 128,-1,5
 627 33 627 33 696 66.5 c 128,-1,6
 765 100 765 100 814.5 145 c 128,-1,7
 864 190 864 190 895 239.5 c 128,-1,8
 926 289 926 289 940.5 340 c 128,-1,9
 955 391 955 391 955 439 c 128,-1,10
 955 487 955 487 938.5 526.5 c 128,-1,11
 922 566 922 566 892 595.5 c 128,-1,12
 862 625 862 625 822.5 644 c 128,-1,13
 783 663 783 663 737 672 c 2,14,-1
 705 678 l 1,15,-1
 735 691 l 2,16,17
 820 727 820 727 873.5 773.5 c 128,-1,18
 927 820 927 820 958 869.5 c 128,-1,19
 989 919 989 919 1000.5 968.5 c 128,-1,20
 1012 1018 1012 1018 1012 1061 c 0,21,22
 1012 1179 1012 1179 924 1244 c 0,23,24
 880 1278 880 1278 812 1296.5 c 128,-1,25
 744 1315 744 1315 653 1315 c 0,26,27
 584 1315 584 1315 499 1302 c 0,28,29
 419 1289 419 1289 348 1267 c 1,30,-1
 348 1136 l 1,31,32
 425 1159 425 1159 491.5 1171.5 c 128,-1,33
 558 1184 558 1184 625 1184 c 0,34,35
 733 1184 733 1184 789.5 1146 c 128,-1,36
 846 1108 846 1108 846 1028 c 0,37,38
 846 959 846 959 818 904.5 c 128,-1,39
 790 850 790 850 743 812 c 128,-1,40
 696 774 696 774 635 754.5 c 128,-1,41
 574 735 574 735 508 735 c 2,42,-1
 379 735 l 1,43,-1
 354 612 l 1,44,-1
 492 612 l 2,45,46
 704 612 704 612 768 510 c 0,47,48
 790 475 790 475 790 428 c 0,49,50
 790 398 790 398 782 363.5 c 128,-1,51
 774 329 774 329 755 295.5 c 128,-1,52
 736 262 736 262 703.5 230.5 c 128,-1,53
 671 199 671 199 621.5 175 c 128,-1,54
 572 151 572 151 505 137 c 128,-1,55
 438 123 438 123 350 123 c 0,56,57
 220 123 220 123 100 143 c 1,0,-1
EndSplineSet
Substitution2: "<21,0> Lower Case Numbers lookup 7 subtable" three.oldstyle
Substitution2: "<10,2> Inferiors lookup 6 subtable" uni2083
EndChar

StartChar: four
Encoding: 52 52 23
Width: 1126
Flags: W
LayerCount: 2
Fore
SplineSet
740 10 m 1,0,-1
 797 299 l 1,1,-1
 1020 299 l 1,2,-1
 1047 432 l 1,3,-1
 824 432 l 1,4,-1
 998 1297 l 1,5,-1
 748 1297 l 1,6,-1
 38 438 l 1,7,-1
 10 299 l 1,8,-1
 639 299 l 1,9,-1
 581 10 l 1,10,-1
 740 10 l 1,0,-1
665 432 m 1,11,-1
 196 432 l 1,12,-1
 815 1176 l 1,13,-1
 665 432 l 1,11,-1
EndSplineSet
Substitution2: "<21,0> Lower Case Numbers lookup 7 subtable" four.oldstyle
Substitution2: "<10,2> Inferiors lookup 6 subtable" uni2084
EndChar

StartChar: five
Encoding: 53 53 24
Width: 1126
Flags: W
LayerCount: 2
Fore
SplineSet
523.5 138.5 m 128,-1,1
 444 113 444 113 348 113 c 0,2,3
 213 113 213 113 114 134 c 1,4,-1
 88 0 l 1,5,6
 150 -12 150 -12 264 -17 c 0,7,8
 299 -18 299 -18 332 -18 c 0,9,10
 466 -18 466 -18 579.5 20.5 c 128,-1,11
 693 59 693 59 775.5 125 c 128,-1,12
 858 191 858 191 904.5 280 c 128,-1,13
 951 369 951 369 951 471 c 0,14,15
 951 551 951 551 917 607 c 0,16,17
 852 717 852 717 690 751 c 0,18,19
 612 768 612 768 524 768 c 2,20,-1
 408 768 l 1,21,-1
 486 1155 l 1,22,-1
 1026 1155 l 1,23,-1
 1053 1287 l 1,24,-1
 368 1287 l 1,25,-1
 237 639 l 1,26,-1
 475 639 l 2,27,28
 631 639 631 639 706 593 c 0,29,30
 784 545 784 545 784 451 c 0,31,32
 784 380 784 380 751.5 317.5 c 128,-1,33
 719 255 719 255 661 209.5 c 128,-1,0
 603 164 603 164 523.5 138.5 c 128,-1,1
EndSplineSet
Substitution2: "<21,0> Lower Case Numbers lookup 7 subtable" five.oldstyle
Substitution2: "<10,2> Inferiors lookup 6 subtable" uni2085
EndChar

StartChar: six
Encoding: 54 54 25
Width: 1126
Flags: W
LayerCount: 2
Fore
SplineSet
961 297 m 128,-1,1
 1000 390 1000 390 1000 494 c 0,2,3
 1000 629 1000 629 919 704 c 0,4,5
 878 742 878 742 813 763.5 c 128,-1,6
 748 785 748 785 664 785 c 128,-1,7
 580 785 580 785 502.5 763 c 128,-1,8
 425 741 425 741 354 706 c 2,9,-1
 330 694 l 1,10,-1
 349 736 l 1,11,12
 374 820 374 820 415.5 896 c 128,-1,13
 457 972 457 972 524.5 1030 c 128,-1,14
 592 1088 592 1088 688 1121.5 c 128,-1,15
 784 1155 784 1155 918 1155 c 2,16,-1
 1043 1155 l 1,17,-1
 1069 1287 l 1,18,-1
 946 1287 l 2,19,20
 812 1287 812 1287 706 1259 c 128,-1,21
 600 1231 600 1231 517.5 1182 c 128,-1,22
 435 1133 435 1133 374 1068 c 0,23,24
 255 943 255 943 196 777 c 0,25,26
 144 632 144 632 129 480 c 0,27,28
 123 412 123 412 123 359 c 0,29,30
 123 166 123 166 212 74 c 128,-1,31
 301 -18 301 -18 469 -18 c 0,32,33
 586 -18 586 -18 683.5 23 c 128,-1,34
 781 64 781 64 851.5 134 c 128,-1,0
 922 204 922 204 961 297 c 128,-1,1
785.5 625 m 128,-1,36
 837 576 837 576 837 487 c 0,37,38
 837 417 837 417 813.5 350.5 c 128,-1,39
 790 284 790 284 745.5 231.5 c 128,-1,40
 701 179 701 179 637 147 c 128,-1,41
 573 115 573 115 494 115 c 0,42,43
 444 115 444 115 405 128 c 0,44,45
 324 153 324 153 297 247 c 0,46,47
 283 295 283 295 283 365 c 0,48,49
 283 417 283 417 288 473 c 128,-1,50
 293 529 293 529 306 580 c 1,51,52
 377 621 377 621 460 646 c 0,53,54
 550 674 550 674 627 674 c 0,55,35
 734 674 734 674 785.5 625 c 128,-1,36
EndSplineSet
Substitution2: "<21,0> Lower Case Numbers lookup 7 subtable" six.oldstyle
Substitution2: "<10,2> Inferiors lookup 6 subtable" uni2086
EndChar

StartChar: seven
Encoding: 55 55 26
Width: 1126
Flags: W
LayerCount: 2
Fore
SplineSet
256 1155 m 1,0,-1
 957 1155 l 1,1,-1
 171 10 l 1,2,-1
 355 10 l 1,3,-1
 1119 1149 l 1,4,-1
 1149 1297 l 1,5,-1
 284 1297 l 1,6,-1
 256 1155 l 1,0,-1
EndSplineSet
Substitution2: "<21,0> Lower Case Numbers lookup 7 subtable" seven.oldstyle
Substitution2: "<10,2> Inferiors lookup 6 subtable" uni2087
EndChar

StartChar: eight
Encoding: 56 56 27
Width: 1126
Flags: W
LayerCount: 2
Fore
SplineSet
456 852 m 0,0,1
 412 901 412 901 412 963 c 0,2,3
 412 1018 412 1018 433 1061 c 128,-1,4
 454 1104 454 1104 493 1132 c 0,5,6
 570 1190 570 1190 700 1190 c 0,7,8
 802 1190 802 1190 856.5 1151 c 128,-1,9
 911 1112 911 1112 911 1042 c 0,10,11
 911 1002 911 1002 898 968 c 128,-1,12
 885 934 885 934 850 900.5 c 128,-1,13
 815 867 815 867 756.5 831.5 c 128,-1,14
 698 796 698 796 602 749 c 1,15,16
 549 777 549 777 513.5 801.5 c 128,-1,17
 478 826 478 826 456 852 c 0,0,1
741 682 m 1,18,-1
 758 691 l 2,19,20
 852 739 852 739 913.5 783 c 128,-1,21
 975 827 975 827 1010.5 872.5 c 128,-1,22
 1046 918 1046 918 1060.5 964.5 c 128,-1,23
 1075 1011 1075 1011 1075 1065 c 128,-1,24
 1075 1119 1075 1119 1053 1165 c 0,25,26
 1009 1260 1009 1260 879 1296 c 0,27,28
 813 1315 813 1315 723 1315 c 0,29,30
 603 1315 603 1315 513.5 1283 c 128,-1,31
 424 1251 424 1251 365 1199.5 c 128,-1,32
 306 1148 306 1148 277 1081 c 128,-1,33
 248 1014 248 1014 248 944 c 0,34,35
 248 860 248 860 292.5 796 c 128,-1,36
 337 732 337 732 429 681 c 2,37,-1
 445 672 l 1,38,-1
 429 663 l 1,39,40
 326 610 326 610 260 562.5 c 128,-1,41
 194 515 194 515 155.5 467 c 128,-1,42
 117 419 117 419 101.5 369.5 c 128,-1,43
 86 320 86 320 86 263 c 128,-1,44
 86 206 86 206 108 156 c 0,45,46
 153 54 153 54 289 13 c 0,47,48
 358 -8 358 -8 453 -8 c 0,49,50
 581 -8 581 -8 677 25 c 128,-1,51
 773 58 773 58 837 112 c 128,-1,52
 901 166 901 166 933 236 c 128,-1,53
 965 306 965 306 965 381 c 0,54,55
 965 477 965 477 911.5 547 c 128,-1,56
 858 617 858 617 757 673 c 2,57,-1
 741 682 l 1,18,-1
749 485 m 0,58,59
 796 428 796 428 796 358 c 0,60,61
 796 301 796 301 769 256.5 c 128,-1,62
 742 212 742 212 698 182 c 128,-1,63
 654 152 654 152 598 136.5 c 128,-1,64
 542 121 542 121 483 121 c 0,65,66
 375 121 375 121 314.5 161.5 c 128,-1,67
 254 202 254 202 254 285 c 0,68,69
 254 333 254 333 268 372.5 c 128,-1,70
 282 412 282 412 319.5 448.5 c 128,-1,71
 357 485 357 485 419.5 522 c 128,-1,72
 482 559 482 559 584 605 c 1,73,74
 646 574 646 574 685.5 544.5 c 128,-1,75
 725 515 725 515 749 485 c 0,58,59
EndSplineSet
Substitution2: "<21,0> Lower Case Numbers lookup 7 subtable" eight.oldstyle
Substitution2: "<10,2> Inferiors lookup 6 subtable" uni2088
EndChar

StartChar: nine
Encoding: 57 57 28
Width: 1126
Flags: W
LayerCount: 2
Fore
SplineSet
1049.5 827.5 m 128,-1,1
 1055 893 1055 893 1055 942 c 0,2,3
 1055 1140 1055 1140 964.5 1232.5 c 128,-1,4
 874 1325 874 1325 709 1325 c 0,5,6
 587 1325 587 1325 489.5 1282.5 c 128,-1,7
 392 1240 392 1240 323.5 1169 c 128,-1,8
 255 1098 255 1098 217.5 1006 c 128,-1,9
 180 914 180 914 180 815 c 0,10,11
 180 758 180 758 197.5 704.5 c 128,-1,12
 215 651 215 651 255.5 611 c 128,-1,13
 296 571 296 571 361.5 546.5 c 128,-1,14
 427 522 427 522 524 522 c 0,15,16
 607 522 607 522 683 544 c 128,-1,17
 759 566 759 566 826 601 c 2,18,-1
 848 612 l 1,19,-1
 835 570 l 2,20,21
 810 480 810 480 760 403 c 128,-1,22
 710 326 710 326 632.5 270.5 c 128,-1,23
 555 215 555 215 449.5 183.5 c 128,-1,24
 344 152 344 152 209 152 c 2,25,-1
 117 152 l 1,26,-1
 90 20 l 1,27,-1
 195 20 l 2,28,29
 339 20 339 20 451.5 49 c 128,-1,30
 564 78 564 78 651.5 127.5 c 128,-1,31
 739 177 739 177 802.5 243 c 128,-1,32
 866 309 866 309 911 383 c 128,-1,33
 956 457 956 457 984 535.5 c 128,-1,34
 1012 614 1012 614 1028 688 c 128,-1,0
 1044 762 1044 762 1049.5 827.5 c 128,-1,1
537 1158 m 128,-1,36
 601 1192 601 1192 684 1192 c 0,37,38
 734 1192 734 1192 773 1179 c 0,39,40
 854 1154 854 1154 881 1062 c 0,41,42
 895 1015 895 1015 895 948 c 0,43,44
 895 900 895 900 890 841.5 c 128,-1,45
 885 783 885 783 873 725 c 1,46,47
 767 661 767 661 641 640 c 0,48,49
 598 633 598 633 557 633 c 0,50,51
 495 633 495 633 453.5 649.5 c 128,-1,52
 412 666 412 666 387 692.5 c 128,-1,53
 362 719 362 719 352 753 c 128,-1,54
 342 787 342 787 342 821 c 0,55,56
 342 886 342 886 364 952 c 128,-1,57
 386 1018 386 1018 429.5 1071 c 128,-1,35
 473 1124 473 1124 537 1158 c 128,-1,36
EndSplineSet
Substitution2: "<21,0> Lower Case Numbers lookup 7 subtable" nine.oldstyle
Substitution2: "<10,2> Inferiors lookup 6 subtable" uni2089
EndChar

StartChar: colon
Encoding: 58 58 29
Width: 1126
Flags: W
LayerCount: 2
Fore
SplineSet
547.5 268 m 128,-1,1
 522 279 522 279 492.5 279 c 128,-1,2
 463 279 463 279 436.5 267.5 c 128,-1,3
 410 256 410 256 389 235.5 c 128,-1,4
 368 215 368 215 356 188 c 128,-1,5
 344 161 344 161 344 131.5 c 128,-1,6
 344 102 344 102 354 77 c 128,-1,7
 364 52 364 52 382 33 c 128,-1,8
 400 14 400 14 425 3 c 128,-1,9
 450 -8 450 -8 481 -8 c 128,-1,10
 512 -8 512 -8 539 4.5 c 128,-1,11
 566 17 566 17 587 37.5 c 128,-1,12
 608 58 608 58 619.5 84.5 c 128,-1,13
 631 111 631 111 631 139 c 128,-1,14
 631 167 631 167 620.5 192 c 128,-1,15
 610 217 610 217 591.5 237 c 128,-1,0
 573 257 573 257 547.5 268 c 128,-1,1
694.5 1001 m 128,-1,17
 669 1012 669 1012 639.5 1012 c 128,-1,18
 610 1012 610 1012 583.5 1000.5 c 128,-1,19
 557 989 557 989 536 968.5 c 128,-1,20
 515 948 515 948 503 921 c 128,-1,21
 491 894 491 894 491 864.5 c 128,-1,22
 491 835 491 835 501 810 c 128,-1,23
 511 785 511 785 529 766 c 128,-1,24
 547 747 547 747 572.5 736 c 128,-1,25
 598 725 598 725 629 725 c 128,-1,26
 660 725 660 725 687 737.5 c 128,-1,27
 714 750 714 750 734.5 771 c 128,-1,28
 755 792 755 792 766.5 818 c 128,-1,29
 778 844 778 844 778 872 c 128,-1,30
 778 900 778 900 767.5 925 c 128,-1,31
 757 950 757 950 738.5 970 c 128,-1,16
 720 990 720 990 694.5 1001 c 128,-1,17
EndSplineSet
EndChar

StartChar: semicolon
Encoding: 59 59 30
Width: 1126
Flags: W
LayerCount: 2
Fore
SplineSet
643 147 m 0,0,1
 643 230 643 230 603.5 271 c 128,-1,2
 564 312 564 312 502 312 c 0,3,4
 478 312 478 312 453 303 c 0,5,6
 401 283 401 283 377 230 c 0,7,8
 364 203 364 203 364 172 c 128,-1,9
 364 141 364 141 372 122.5 c 128,-1,10
 380 104 380 104 390 87 c 128,-1,11
 400 70 400 70 409 50 c 128,-1,12
 418 30 418 30 418 2 c 0,13,14
 418 -55 418 -55 386.5 -97 c 128,-1,15
 355 -139 355 -139 307 -165.5 c 128,-1,16
 259 -192 259 -192 205.5 -203.5 c 128,-1,17
 152 -215 152 -215 107 -215 c 0,18,19
 104 -215 104 -215 102 -215 c 1,20,-1
 102 -332 l 1,21,22
 192 -331 192 -331 268 -309.5 c 128,-1,23
 344 -288 344 -288 405.5 -250.5 c 128,-1,24
 467 -213 467 -213 511.5 -164.5 c 128,-1,25
 556 -116 556 -116 585.5 -62.5 c 128,-1,26
 615 -9 615 -9 629 44.5 c 128,-1,27
 643 98 643 98 643 147 c 0,0,1
694.5 1001 m 128,-1,29
 669 1012 669 1012 639.5 1012 c 128,-1,30
 610 1012 610 1012 583.5 1000.5 c 128,-1,31
 557 989 557 989 536 968.5 c 128,-1,32
 515 948 515 948 503 921 c 128,-1,33
 491 894 491 894 491 864.5 c 128,-1,34
 491 835 491 835 501 810 c 128,-1,35
 511 785 511 785 529 766 c 128,-1,36
 547 747 547 747 572.5 736 c 128,-1,37
 598 725 598 725 629 725 c 128,-1,38
 660 725 660 725 687 737.5 c 128,-1,39
 714 750 714 750 734.5 771 c 128,-1,40
 755 792 755 792 766.5 818 c 128,-1,41
 778 844 778 844 778 872 c 128,-1,42
 778 900 778 900 767.5 925 c 128,-1,43
 757 950 757 950 738.5 970 c 128,-1,28
 720 990 720 990 694.5 1001 c 128,-1,29
EndSplineSet
EndChar

StartChar: less
Encoding: 60 60 31
Width: 1126
Flags: W
LayerCount: 2
Fore
SplineSet
150 479 m 1,0,-1
 180 627 l 1,1,-1
 1110 1113 l 1,2,-1
 1076 947 l 1,3,-1
 308 551 l 1,4,-1
 306 535 l 1,5,-1
 914 141 l 1,6,-1
 883 -5 l 1,7,-1
 150 479 l 1,0,-1
EndSplineSet
Substitution2: "'rtla' Right to Left Alternates in Greek lookup 0 subtable" greater
EndChar

StartChar: equal
Encoding: 61 61 32
Width: 1126
Flags: W
LayerCount: 2
Fore
SplineSet
172 656 m 1,0,-1
 1012 656 l 1,1,-1
 1037 783 l 1,2,-1
 196 783 l 1,3,-1
 172 656 l 1,0,-1
102 308 m 1,4,-1
 942 308 l 1,5,-1
 967 435 l 1,6,-1
 127 435 l 1,7,-1
 102 308 l 1,4,-1
EndSplineSet
Substitution2: "<10,2> Inferiors lookup 6 subtable" uni208C
Substitution2: "<10,1> Superiors in Latin lookup 5 subtable" uni207C
EndChar

StartChar: greater
Encoding: 62 62 33
Width: 1126
Flags: W
LayerCount: 2
Fore
SplineSet
105 157 m 1,0,-1
 874 551 l 1,1,-1
 877 567 l 1,2,-1
 269 963 l 1,3,-1
 299 1107 l 1,4,-1
 1033 623 l 1,5,-1
 1002 475 l 1,6,-1
 73 -10 l 1,7,-1
 105 157 l 1,0,-1
EndSplineSet
Substitution2: "'rtla' Right to Left Alternates in Greek lookup 0 subtable" less
EndChar

StartChar: question
Encoding: 63 63 34
Width: 1126
Flags: W
LayerCount: 2
Fore
SplineSet
475 438 m 1,0,-1
 536 744 l 1,1,2
 640 758 640 758 713 778.5 c 128,-1,3
 786 799 786 799 835 831 c 128,-1,4
 884 863 884 863 911.5 910 c 128,-1,5
 939 957 939 957 954 1023 c 0,6,7
 958 1040 958 1040 959 1058 c 128,-1,8
 960 1076 960 1076 960 1080 c 0,9,10
 963 1165 963 1165 904 1215 c 128,-1,11
 845 1265 845 1265 744 1265 c 0,12,13
 619 1265 619 1265 545.5 1199.5 c 128,-1,14
 472 1134 472 1134 430 1033 c 1,15,-1
 293 1091 l 1,16,17
 318 1152 318 1152 359 1208.5 c 128,-1,18
 400 1265 400 1265 458.5 1308.5 c 128,-1,19
 517 1352 517 1352 592 1377.5 c 128,-1,20
 667 1403 667 1403 762 1403 c 0,21,22
 940 1403 940 1403 1035.5 1314.5 c 128,-1,23
 1131 1226 1131 1226 1126 1078 c 0,24,25
 1122 978 1122 978 1084.5 902 c 128,-1,26
 1047 826 1047 826 985.5 770.5 c 128,-1,27
 924 715 924 715 842 681 c 128,-1,28
 760 647 760 647 665 633 c 1,29,-1
 625 438 l 1,30,-1
 475 438 l 1,0,-1
472 1 m 0,31,32
 403 1 403 1 375 26.5 c 128,-1,33
 347 52 347 52 348 89 c 0,34,35
 349 101 349 101 351.5 117.5 c 128,-1,36
 354 134 354 134 358 151 c 0,37,38
 369 204 369 204 407 235 c 128,-1,39
 445 266 445 266 519 266 c 0,40,41
 588 266 588 266 616.5 241 c 128,-1,42
 645 216 645 216 643 179 c 0,43,44
 643 167 643 167 640.5 150.5 c 128,-1,45
 638 134 638 134 633 116 c 0,46,47
 622 64 622 64 584 32.5 c 128,-1,48
 546 1 546 1 472 1 c 0,31,32
EndSplineSet
EndChar

StartChar: at
Encoding: 64 64 35
Width: 1126
Flags: W
LayerCount: 2
Fore
SplineSet
793 1415 m 0,0,1
 682 1415 682 1415 578 1360 c 128,-1,2
 474 1305 474 1305 382.5 1208.5 c 128,-1,3
 291 1112 291 1112 214.5 982 c 128,-1,4
 138 852 138 852 84 702.5 c 128,-1,5
 30 553 30 553 -0.5 393.5 c 128,-1,6
 -31 234 -31 234 -31 78 c 0,7,8
 -31 -164 -31 -164 67.5 -285 c 128,-1,9
 166 -406 166 -406 367 -406 c 0,10,11
 538 -406 538 -406 707 -333 c 1,12,-1
 707 -227 l 1,13,14
 579 -284 579 -284 468 -298 c 0,15,16
 427 -303 427 -303 381 -303 c 0,17,18
 238 -303 238 -303 163 -203.5 c 128,-1,19
 88 -104 88 -104 88 96 c 0,20,21
 88 230 88 230 114.5 372.5 c 128,-1,22
 141 515 141 515 188.5 649.5 c 128,-1,23
 236 784 236 784 300.5 904.5 c 128,-1,24
 365 1025 365 1025 441 1115.5 c 128,-1,25
 517 1206 517 1206 602 1259.5 c 128,-1,26
 687 1313 687 1313 774 1313 c 0,27,28
 911 1313 911 1313 973.5 1217.5 c 128,-1,29
 1036 1122 1036 1122 1036 942 c 0,30,31
 1036 782 1036 782 995 599 c 0,32,33
 977 515 977 515 951 441 c 0,34,35
 897 285 897 285 834 219 c 0,36,37
 800 183 800 183 766 183 c 0,38,39
 745 183 745 183 733 198 c 0,40,41
 719 214 719 214 719 246 c 0,42,43
 719 311 719 311 758 439 c 2,44,-1
 909 914 l 1,45,-1
 786 886 l 1,46,-1
 783 889 l 2,47,48
 770 897 770 897 739 905.5 c 128,-1,49
 708 914 708 914 666 914 c 0,50,51
 600 914 600 914 543.5 882 c 128,-1,52
 487 850 487 850 441.5 797 c 128,-1,53
 396 744 396 744 361.5 675 c 128,-1,54
 327 606 327 606 304 533 c 128,-1,55
 281 460 281 460 269.5 387.5 c 128,-1,56
 258 315 258 315 258 259.5 c 128,-1,57
 258 204 258 204 270 168.5 c 128,-1,58
 282 133 282 133 302 112 c 0,59,60
 339 73 339 73 412 73 c 0,61,62
 466 73 466 73 513 107 c 128,-1,63
 560 141 560 141 601 216 c 2,64,-1
 634 276 l 1,65,-1
 620 209 l 2,66,67
 617 195 617 195 617 183 c 0,68,69
 617 143 617 143 640 115 c 0,70,71
 656 96 656 96 684 84.5 c 128,-1,72
 712 73 712 73 754 73 c 0,73,74
 816 73 816 73 869.5 109 c 128,-1,75
 923 145 923 145 968 209 c 128,-1,76
 1013 273 1013 273 1047.5 359 c 128,-1,77
 1082 445 1082 445 1106 543.5 c 128,-1,78
 1130 642 1130 642 1142.5 748 c 128,-1,79
 1155 854 1155 854 1155 956 c 0,80,81
 1155 1184 1155 1184 1066 1299.5 c 128,-1,82
 977 1415 977 1415 793 1415 c 0,0,1
442 183 m 0,83,84
 416 183 416 183 404 205 c 0,85,86
 393 223 393 223 393 261.5 c 128,-1,87
 393 300 393 300 401 353 c 0,88,89
 419 469 419 469 462 585 c 0,90,91
 510 715 510 715 574 773 c 0,92,93
 610 805 610 805 651 805 c 0,94,95
 682 805 682 805 698.5 794 c 128,-1,96
 715 783 715 783 722 768 c 2,97,-1
 724 765 l 1,98,-1
 661 558 l 2,99,100
 599 356 599 356 538 261 c 0,101,102
 510 218 510 218 486 200.5 c 128,-1,103
 462 183 462 183 442 183 c 0,83,84
EndSplineSet
EndChar

StartChar: A
Encoding: 65 65 36
Width: 1126
Flags: W
LayerCount: 2
Fore
SplineSet
92 10 m 1,0,-1
 242 295 l 1,1,-1
 802 295 l 1,2,-1
 834 10 l 1,3,-1
 1003 10 l 1,4,-1
 839 1297 l 1,5,-1
 610 1297 l 1,6,-1
 -75 10 l 1,7,-1
 92 10 l 1,0,-1
783 434 m 1,8,-1
 314 434 l 1,9,-1
 698 1177 l 1,10,-1
 783 434 l 1,8,-1
EndSplineSet
Substitution2: "<10,1> Superiors in Latin lookup 5 subtable" A.superior
EndChar

StartChar: B
Encoding: 66 66 37
Width: 1126
Flags: W
LayerCount: 2
Fore
SplineSet
67 10 m 1,0,-1
 410 10 l 2,1,2
 517 10 517 10 602 28.5 c 128,-1,3
 687 47 687 47 750.5 79.5 c 128,-1,4
 814 112 814 112 858.5 155 c 128,-1,5
 903 198 903 198 932.5 247 c 128,-1,6
 962 296 962 296 974.5 347.5 c 128,-1,7
 987 399 987 399 987 448.5 c 128,-1,8
 987 498 987 498 971.5 536.5 c 128,-1,9
 956 575 956 575 929 603.5 c 128,-1,10
 902 632 902 632 865.5 650 c 128,-1,11
 829 668 829 668 786 676 c 2,12,-1
 745 684 l 1,13,-1
 785 696 l 2,14,15
 861 718 861 718 914 757 c 0,16,17
 1015 832 1015 832 1045 945 c 0,18,19
 1059 999 1059 999 1059 1053 c 0,20,21
 1059 1173 1059 1173 964.5 1235 c 128,-1,22
 870 1297 870 1297 680 1297 c 2,23,-1
 325 1297 l 1,24,-1
 67 10 l 1,0,-1
649 1167 m 2,25,26
 715 1167 715 1167 761 1156 c 0,27,28
 851 1135 851 1135 878 1076 c 0,29,30
 891 1047 891 1047 891 1010 c 128,-1,31
 891 973 891 973 875.5 925 c 128,-1,32
 860 877 860 877 821 835.5 c 128,-1,33
 782 794 782 794 717 766 c 128,-1,34
 652 738 652 738 553 738 c 2,35,-1
 371 738 l 1,36,-1
 457 1167 l 1,37,-1
 649 1167 l 2,25,26
746.5 563 m 128,-1,39
 817 516 817 516 817 432 c 0,40,41
 817 369 817 369 791 311 c 0,42,43
 775 278 775 278 748 247.5 c 128,-1,44
 721 217 721 217 679 193 c 0,45,46
 587 140 587 140 438 140 c 2,47,-1
 252 140 l 1,48,-1
 346 610 l 1,49,-1
 545 610 l 2,50,38
 676 610 676 610 746.5 563 c 128,-1,39
EndSplineSet
Substitution2: "<10,1> Superiors in Latin lookup 5 subtable" B.superior
EndChar

StartChar: C
Encoding: 67 67 38
Width: 1126
Flags: W
LayerCount: 2
Fore
SplineSet
1103 1108 m 1,0,-1
 1134 1263 l 1,1,2
 1008 1323 1008 1323 827 1323 c 0,3,4
 703 1323 703 1323 601.5 1284.5 c 128,-1,5
 500 1246 500 1246 420 1180 c 128,-1,6
 340 1114 340 1114 281 1026.5 c 128,-1,7
 222 939 222 939 183 840.5 c 128,-1,8
 144 742 144 742 125 638.5 c 128,-1,9
 106 535 106 535 106 439 c 0,10,11
 106 210 106 210 226 97 c 128,-1,12
 346 -16 346 -16 569 -16 c 0,13,14
 656 -16 656 -16 734.5 0.5 c 128,-1,15
 813 17 813 17 894 47 c 1,16,-1
 922 193 l 1,17,18
 852 163 852 163 769.5 144 c 128,-1,19
 687 125 687 125 602 125 c 0,20,21
 423 125 423 125 343 231 c 0,22,23
 279 315 279 315 279 464 c 0,24,25
 279 538 279 538 292 619.5 c 128,-1,26
 305 701 305 701 332.5 780.5 c 128,-1,27
 360 860 360 860 403 933 c 128,-1,28
 446 1006 446 1006 506 1061 c 128,-1,29
 566 1116 566 1116 643.5 1149.5 c 128,-1,30
 721 1183 721 1183 814.5 1183 c 128,-1,31
 908 1183 908 1183 976 1163 c 128,-1,32
 1044 1143 1044 1143 1103 1108 c 1,0,-1
EndSplineSet
Substitution2: "<10,1> Superiors in Latin lookup 5 subtable" C.superior
EndChar

StartChar: D
Encoding: 68 68 39
Width: 1126
Flags: W
LayerCount: 2
Fore
SplineSet
18 10 m 1,0,-1
 313 10 l 2,1,2
 445 10 445 10 547 38 c 0,3,4
 746 92 746 92 867 224 c 0,5,6
 977 344 977 344 1031 501 c 0,7,8
 1078 638 1078 638 1089 768 c 0,9,10
 1094 826 1094 826 1094 866 c 0,11,12
 1094 1087 1094 1087 969 1192 c 128,-1,13
 844 1297 844 1297 596 1297 c 2,14,-1
 276 1297 l 1,15,-1
 18 10 l 1,0,-1
908 999 m 0,16,17
 930 941 930 941 930 858 c 0,18,19
 930 706 930 706 883 556 c 0,20,21
 841 426 841 426 758 325 c 0,22,23
 714 271 714 271 653 231 c 128,-1,24
 592 191 592 191 513.5 167.5 c 128,-1,25
 435 144 435 144 336 144 c 2,26,-1
 203 144 l 1,27,-1
 408 1167 l 1,28,-1
 575 1167 l 2,29,30
 662 1167 662 1167 729 1150 c 0,31,32
 863 1116 863 1116 908 999 c 0,16,17
EndSplineSet
Substitution2: "<10,1> Superiors in Latin lookup 5 subtable" D.superior
EndChar

StartChar: E
Encoding: 69 69 40
Width: 1126
Flags: W
LayerCount: 2
Fore
SplineSet
295 152 m 1,0,-1
 389 622 l 1,1,-1
 932 622 l 1,2,-1
 957 752 l 1,3,-1
 414 752 l 1,4,-1
 500 1177 l 1,5,-1
 1065 1177 l 1,6,-1
 1092 1307 l 1,7,-1
 368 1307 l 1,8,-1
 110 20 l 1,9,-1
 834 20 l 1,10,-1
 860 152 l 1,11,-1
 295 152 l 1,0,-1
EndSplineSet
Substitution2: "<10,1> Superiors in Latin lookup 5 subtable" E.superior
EndChar

StartChar: F
Encoding: 70 70 41
Width: 1126
Flags: W
LayerCount: 2
Fore
SplineSet
418 711 m 1,0,-1
 508 1155 l 1,1,-1
 1063 1155 l 1,2,-1
 1090 1287 l 1,3,-1
 373 1287 l 1,4,-1
 114 0 l 1,5,-1
 277 0 l 1,6,-1
 393 582 l 1,7,-1
 920 582 l 1,8,-1
 944 711 l 1,9,-1
 418 711 l 1,0,-1
EndSplineSet
Substitution2: "<10,1> Superiors in Latin lookup 5 subtable" F.superior
EndChar

StartChar: G
Encoding: 71 71 42
Width: 1126
Flags: W
LayerCount: 2
Fore
SplineSet
632 123 m 0,0,1
 607 121 607 121 588 121 c 0,2,3
 415 121 415 121 329 210 c 0,4,5
 248 295 248 295 248 458 c 0,6,7
 248 534 248 534 262 617 c 128,-1,8
 276 700 276 700 306.5 781 c 128,-1,9
 337 862 337 862 383.5 934.5 c 128,-1,10
 430 1007 430 1007 494.5 1062.5 c 128,-1,11
 559 1118 559 1118 642.5 1150.5 c 128,-1,12
 726 1183 726 1183 829 1183 c 0,13,14
 958 1183 958 1183 1060 1134 c 0,15,16
 1087 1121 1087 1121 1113 1105 c 1,17,-1
 1144 1264 l 1,18,19
 1082 1295 1082 1295 1003.5 1310 c 128,-1,20
 925 1325 925 1325 838 1325 c 0,21,22
 714 1325 714 1325 610 1289.5 c 128,-1,23
 506 1254 506 1254 421.5 1192 c 128,-1,24
 337 1130 337 1130 274 1045.5 c 128,-1,25
 211 961 211 961 168 864 c 128,-1,26
 125 767 125 767 103.5 660 c 128,-1,27
 82 553 82 553 82 448 c 0,28,29
 82 330 82 330 114 243 c 0,30,31
 179 69 179 69 353 11 c 0,32,33
 441 -18 441 -18 551 -18 c 0,34,35
 638 -18 638 -18 732 2.5 c 128,-1,36
 826 23 826 23 913 59 c 1,37,-1
 1043 720 l 1,38,-1
 620 720 l 1,39,-1
 596 591 l 1,40,-1
 862 591 l 1,41,-1
 775 151 l 1,42,43
 717 130 717 130 632 123 c 0,0,1
EndSplineSet
Substitution2: "<10,1> Superiors in Latin lookup 5 subtable" G.superior
EndChar

StartChar: H
Encoding: 72 72 43
Width: 1126
Flags: W
LayerCount: 2
Fore
SplineSet
1005 1297 m 1,0,-1
 895 744 l 1,1,-1
 326 744 l 1,2,-1
 437 1297 l 1,3,-1
 278 1297 l 1,4,-1
 20 10 l 1,5,-1
 178 10 l 1,6,-1
 299 610 l 1,7,-1
 868 610 l 1,8,-1
 747 10 l 1,9,-1
 905 10 l 1,10,-1
 1164 1297 l 1,11,-1
 1005 1297 l 1,0,-1
EndSplineSet
Substitution2: "<10,1> Superiors in Latin lookup 5 subtable" H.superior
EndChar

StartChar: I
Encoding: 73 73 44
Width: 1126
Flags: W
LayerCount: 2
Fore
SplineSet
313 1177 m 1,0,-1
 614 1177 l 1,1,-1
 409 152 l 1,2,-1
 108 152 l 1,3,-1
 82 20 l 1,4,-1
 844 20 l 1,5,-1
 871 152 l 1,6,-1
 570 152 l 1,7,-1
 774 1177 l 1,8,-1
 1075 1177 l 1,9,-1
 1102 1307 l 1,10,-1
 340 1307 l 1,11,-1
 313 1177 l 1,0,-1
EndSplineSet
Substitution2: "<10,1> Superiors in Latin lookup 5 subtable" I.superior
EndChar

StartChar: J
Encoding: 74 74 45
Width: 1126
Flags: W
LayerCount: 2
Fore
SplineSet
140 214 m 1,0,-1
 49 102 l 1,1,2
 116 45 116 45 195 15.5 c 128,-1,3
 274 -14 274 -14 373 -14 c 128,-1,4
 472 -14 472 -14 555 19 c 128,-1,5
 638 52 638 52 696.5 104.5 c 128,-1,6
 755 157 755 157 790 225.5 c 128,-1,7
 825 294 825 294 840 371 c 2,8,-1
 1024 1287 l 1,9,-1
 366 1287 l 1,10,-1
 339 1153 l 1,11,-1
 836 1153 l 1,12,-1
 685 398 l 2,13,14
 672 331 672 331 645 278 c 0,15,16
 591 172 591 172 493 137 c 0,17,18
 445 120 445 120 389 120 c 0,19,20
 309 120 309 120 248.5 147 c 128,-1,21
 188 174 188 174 140 214 c 1,0,-1
EndSplineSet
Substitution2: "<10,1> Superiors in Latin lookup 5 subtable" J.superior
EndChar

StartChar: K
Encoding: 75 75 46
Width: 1126
Flags: W
LayerCount: 2
Fore
SplineSet
358 677 m 1,0,-1
 731 10 l 1,1,-1
 919 10 l 1,2,-1
 528 678 l 1,3,-1
 1169 1297 l 1,4,-1
 973 1297 l 1,5,-1
 358 677 l 1,0,-1
65 10 m 1,6,-1
 223 10 l 1,7,-1
 357 677 l 1,8,-1
 357 676 l 1,9,-1
 482 1297 l 1,10,-1
 323 1297 l 1,11,-1
 65 10 l 1,6,-1
EndSplineSet
Substitution2: "<10,1> Superiors in Latin lookup 5 subtable" K.superior
EndChar

StartChar: L
Encoding: 76 76 47
Width: 1126
Flags: W
LayerCount: 2
Fore
SplineSet
401 1307 m 1,0,-1
 143 20 l 1,1,-1
 875 20 l 1,2,-1
 901 152 l 1,3,-1
 329 152 l 1,4,-1
 561 1307 l 1,5,-1
 401 1307 l 1,0,-1
EndSplineSet
Substitution2: "<10,1> Superiors in Latin lookup 5 subtable" L.superior
EndChar

StartChar: M
Encoding: 77 77 48
Width: 1126
Flags: W
LayerCount: 2
Fore
SplineSet
948 813 m 1,0,-1
 813 10 l 1,1,-1
 966 10 l 1,2,-1
 1162 1297 l 1,3,-1
 954 1297 l 1,4,-1
 675 810 l 1,5,-1
 569 617 l 1,6,-1
 543 814 l 1,7,-1
 466 1297 l 1,8,-1
 280 1297 l 1,9,-1
 -40 10 l 1,10,-1
 107 10 l 1,11,-1
 287 803 l 1,12,-1
 371 1193 l 1,13,-1
 397 927 l 1,14,-1
 481 436 l 1,15,-1
 590 436 l 1,16,-1
 882 951 l 1,17,-1
 1008 1185 l 1,18,-1
 948 813 l 1,0,-1
EndSplineSet
Substitution2: "<10,1> Superiors in Latin lookup 5 subtable" M.superior
EndChar

StartChar: N
Encoding: 78 78 49
Width: 1126
Flags: W
LayerCount: 2
Fore
SplineSet
470 817 m 1,0,-1
 685 10 l 1,1,-1
 892 10 l 1,2,-1
 1150 1297 l 1,3,-1
 1004 1297 l 1,4,-1
 931 934 l 1,5,-1
 782 189 l 1,6,-1
 700 533 l 1,7,-1
 495 1297 l 1,8,-1
 290 1297 l 1,9,-1
 31 10 l 1,10,-1
 177 10 l 1,11,-1
 259 420 l 1,12,-1
 399 1125 l 1,13,-1
 470 817 l 1,0,-1
EndSplineSet
Substitution2: "<10,1> Superiors in Latin lookup 5 subtable" N.superior
EndChar

StartChar: O
Encoding: 79 79 50
Width: 1126
Flags: W
LayerCount: 2
Fore
SplineSet
168.5 95 m 128,-1,1
 266 -18 266 -18 461 -18 c 0,2,3
 571 -18 571 -18 662 20.5 c 128,-1,4
 753 59 753 59 825.5 125.5 c 128,-1,5
 898 192 898 192 952 281 c 128,-1,6
 1006 370 1006 370 1042 471 c 128,-1,7
 1078 572 1078 572 1096 679.5 c 128,-1,8
 1114 787 1114 787 1114 888 c 0,9,10
 1114 1098 1114 1098 1016.5 1211.5 c 128,-1,11
 919 1325 919 1325 725 1325 c 0,12,13
 615 1325 615 1325 523.5 1286 c 128,-1,14
 432 1247 432 1247 360 1180.5 c 128,-1,15
 288 1114 288 1114 233.5 1025 c 128,-1,16
 179 936 179 936 143 835.5 c 128,-1,17
 107 735 107 735 89 627.5 c 128,-1,18
 71 520 71 520 71 419 c 0,19,0
 71 208 71 208 168.5 95 c 128,-1,1
705 1180 m 0,20,21
 770 1180 770 1180 817 1157.5 c 128,-1,22
 864 1135 864 1135 894 1094.5 c 128,-1,23
 924 1054 924 1054 938 997.5 c 128,-1,24
 952 941 952 941 952 874 c 128,-1,25
 952 807 952 807 940.5 727 c 128,-1,26
 929 647 929 647 904.5 564.5 c 128,-1,27
 880 482 880 482 842.5 404 c 128,-1,28
 805 326 805 326 752.5 264 c 128,-1,29
 700 202 700 202 632.5 164.5 c 128,-1,30
 565 127 565 127 481 127 c 0,31,32
 416 127 416 127 369 149 c 0,33,34
 234 212 234 212 234 434 c 0,35,36
 234 499 234 499 245.5 579 c 128,-1,37
 257 659 257 659 281.5 741.5 c 128,-1,38
 306 824 306 824 343.5 902 c 128,-1,39
 381 980 381 980 433.5 1042 c 128,-1,40
 486 1104 486 1104 553.5 1142 c 128,-1,41
 621 1180 621 1180 705 1180 c 0,20,21
EndSplineSet
Substitution2: "<10,1> Superiors in Latin lookup 5 subtable" O.superior
EndChar

StartChar: P
Encoding: 80 80 51
Width: 1126
Flags: W
LayerCount: 2
Fore
SplineSet
225 10 m 1,0,-1
 320 479 l 1,1,-1
 500 479 l 2,2,3
 598 479 598 479 680 499.5 c 128,-1,4
 762 520 762 520 827.5 556 c 128,-1,5
 893 592 893 592 942.5 641 c 128,-1,6
 992 690 992 690 1025.5 746 c 128,-1,7
 1059 802 1059 802 1075.5 863 c 128,-1,8
 1092 924 1092 924 1092 985 c 0,9,10
 1092 1067 1092 1067 1060 1126 c 128,-1,11
 1028 1185 1028 1185 972 1223 c 128,-1,12
 916 1261 916 1261 840 1279 c 128,-1,13
 764 1297 764 1297 676 1297 c 2,14,-1
 325 1297 l 1,15,-1
 67 10 l 1,16,-1
 225 10 l 1,0,-1
856.5 1115.5 m 128,-1,18
 925 1064 925 1064 925 969 c 0,19,20
 925 934 925 934 917 893 c 0,21,22
 901 807 901 807 842 736 c 0,23,24
 812 699 812 699 766 671 c 128,-1,25
 720 643 720 643 658 626 c 128,-1,26
 596 609 596 609 516 609 c 2,27,-1
 346 609 l 1,28,-1
 457 1167 l 1,29,-1
 655 1167 l 2,30,17
 788 1167 788 1167 856.5 1115.5 c 128,-1,18
EndSplineSet
Substitution2: "<10,1> Superiors in Latin lookup 5 subtable" P.superior
EndChar

StartChar: Q
Encoding: 81 81 52
Width: 1126
Flags: W
LayerCount: 2
Fore
SplineSet
1098 690.5 m 128,-1,1
 1114 792 1114 792 1114 888 c 0,2,3
 1114 1098 1114 1098 1016.5 1211.5 c 128,-1,4
 919 1325 919 1325 725 1325 c 0,5,6
 615 1325 615 1325 523.5 1286 c 128,-1,7
 432 1247 432 1247 360 1180.5 c 128,-1,8
 288 1114 288 1114 233.5 1025 c 128,-1,9
 179 936 179 936 143 835.5 c 128,-1,10
 107 735 107 735 89 627.5 c 128,-1,11
 71 520 71 520 71 418 c 0,12,13
 71 236 71 236 144.5 126 c 128,-1,14
 218 16 218 16 364 -10 c 1,15,-1
 373 -12 l 1,16,17
 368 -53 368 -53 368 -82 c 0,18,19
 368 -130 368 -130 379 -170 c 0,20,21
 397 -233 397 -233 438 -275 c 128,-1,22
 479 -317 479 -317 541.5 -338.5 c 128,-1,23
 604 -360 604 -360 679 -360 c 128,-1,24
 754 -360 754 -360 825 -338 c 128,-1,25
 896 -316 896 -316 968 -267 c 1,26,-1
 906 -161 l 1,27,28
 854 -195 854 -195 805.5 -211 c 128,-1,29
 757 -227 757 -227 706 -227 c 128,-1,30
 655 -227 655 -227 618 -212 c 0,31,32
 518 -172 518 -172 518 -39 c 0,33,34
 518 -32 518 -32 518 -15 c 1,35,-1
 527 -14 l 2,36,37
 626 -2 626 -2 708 43 c 128,-1,38
 790 88 790 88 855 156 c 128,-1,39
 920 224 920 224 969 310.5 c 128,-1,40
 1018 397 1018 397 1050 493 c 128,-1,0
 1082 589 1082 589 1098 690.5 c 128,-1,1
553.5 1142 m 128,-1,42
 621 1180 621 1180 705 1180 c 0,43,44
 831 1180 831 1180 894 1095 c 0,45,46
 952 1017 952 1017 952 874 c 0,47,48
 952 807 952 807 940.5 727 c 128,-1,49
 929 647 929 647 904.5 564.5 c 128,-1,50
 880 482 880 482 842.5 404 c 128,-1,51
 805 326 805 326 752.5 264 c 128,-1,52
 700 202 700 202 632.5 164.5 c 128,-1,53
 565 127 565 127 481 127 c 0,54,55
 416 127 416 127 369 149 c 0,56,57
 234 212 234 212 234 434 c 0,58,59
 234 499 234 499 245.5 579 c 128,-1,60
 257 659 257 659 281.5 741.5 c 128,-1,61
 306 824 306 824 343.5 902 c 128,-1,62
 381 980 381 980 433.5 1042 c 128,-1,41
 486 1104 486 1104 553.5 1142 c 128,-1,42
EndSplineSet
Substitution2: "<10,1> Superiors in Latin lookup 5 subtable" Q.superior
EndChar

StartChar: R
Encoding: 82 82 53
Width: 1126
Flags: W
LayerCount: 2
Fore
SplineSet
1012.5 890.5 m 128,-1,1
 1037 955 1037 955 1037 1030 c 0,2,3
 1037 1159 1037 1159 949 1226 c 0,4,5
 904 1260 904 1260 834 1278.5 c 128,-1,6
 764 1297 764 1297 668 1297 c 2,7,-1
 338 1297 l 1,8,-1
 80 10 l 1,9,-1
 238 10 l 1,10,-1
 354 592 l 1,11,-1
 446 592 l 2,12,13
 486 592 486 592 518.5 583.5 c 128,-1,14
 551 575 551 575 576 555.5 c 128,-1,15
 601 536 601 536 619 503 c 128,-1,16
 637 470 637 470 651 421 c 2,17,-1
 760 10 l 1,18,-1
 931 10 l 1,19,-1
 815 417 l 2,20,21
 795 494 795 494 767.5 544 c 128,-1,22
 740 594 740 594 693 612 c 2,23,-1
 662 623 l 1,24,-1
 694 631 l 2,25,26
 772 650 772 650 836 687 c 128,-1,27
 900 724 900 724 944 775 c 128,-1,0
 988 826 988 826 1012.5 890.5 c 128,-1,1
800 1135 m 0,28,29
 870 1093 870 1093 870 1001 c 0,30,31
 870 942 870 942 846.5 890 c 128,-1,32
 823 838 823 838 779 799 c 128,-1,33
 735 760 735 760 671 737.5 c 128,-1,34
 607 715 607 715 524 715 c 2,35,-1
 379 715 l 1,36,-1
 469 1167 l 1,37,-1
 649 1167 l 2,38,39
 746 1167 746 1167 800 1135 c 0,28,29
EndSplineSet
Substitution2: "<10,1> Superiors in Latin lookup 5 subtable" R.superior
EndChar

StartChar: S
Encoding: 83 83 54
Width: 1126
Flags: W
LayerCount: 2
Fore
SplineSet
588 1155 m 0,0,1
 653 1174 653 1174 741 1174 c 0,2,3
 885 1174 885 1174 1028 1130 c 1,4,-1
 1057 1284 l 1,5,6
 998 1300 998 1300 917 1312 c 0,7,8
 832 1325 832 1325 764 1325 c 0,9,10
 634 1325 634 1325 534 1292.5 c 128,-1,11
 434 1260 434 1260 366 1206 c 128,-1,12
 298 1152 298 1152 263.5 1082.5 c 128,-1,13
 229 1013 229 1013 229 938 c 0,14,15
 229 874 229 874 252 825 c 128,-1,16
 275 776 275 776 313 739 c 128,-1,17
 351 702 351 702 400.5 673 c 128,-1,18
 450 644 450 644 502 618 c 2,19,-1
 604 569 l 2,20,21
 714 517 714 517 760 451 c 0,22,23
 786 415 786 415 786 364.5 c 128,-1,24
 786 314 786 314 765.5 269 c 128,-1,25
 745 224 745 224 700 191 c 128,-1,26
 655 158 655 158 585.5 139.5 c 128,-1,27
 516 121 516 121 418 121 c 0,28,29
 298 121 298 121 210 137 c 128,-1,30
 122 153 122 153 55 178 c 1,31,-1
 26 25 l 1,32,33
 121 -2 121 -2 281 -14 c 0,34,35
 333 -18 333 -18 385 -18 c 0,36,37
 526 -18 526 -18 632.5 13 c 128,-1,38
 739 44 739 44 810.5 97.5 c 128,-1,39
 882 151 882 151 918.5 223.5 c 128,-1,40
 955 296 955 296 955 379 c 0,41,42
 955 445 955 445 932 494 c 128,-1,43
 909 543 909 543 870.5 580 c 128,-1,44
 832 617 832 617 782.5 646 c 128,-1,45
 733 675 733 675 681 700 c 2,46,-1
 579 748 l 2,47,48
 528 772 528 772 487.5 799.5 c 128,-1,49
 447 827 447 827 421.5 862.5 c 128,-1,50
 396 898 396 898 396 946 c 128,-1,51
 396 994 396 994 417 1036 c 128,-1,52
 438 1078 438 1078 481 1108 c 128,-1,53
 524 1138 524 1138 588 1155 c 0,0,1
EndSplineSet
Substitution2: "<10,1> Superiors in Latin lookup 5 subtable" S.superior
EndChar

StartChar: T
Encoding: 84 84 55
Width: 1126
Flags: W
LayerCount: 2
Fore
SplineSet
543 0 m 1,0,-1
 774 1155 l 1,1,-1
 1161 1155 l 1,2,-1
 1188 1287 l 1,3,-1
 254 1287 l 1,4,-1
 227 1155 l 1,5,-1
 614 1155 l 1,6,-1
 383 0 l 1,7,-1
 543 0 l 1,0,-1
EndSplineSet
Substitution2: "<10,1> Superiors in Latin lookup 5 subtable" T.superior
EndChar

StartChar: U
Encoding: 85 85 56
Width: 1126
Flags: W
LayerCount: 2
Fore
SplineSet
102 436 m 2,0,1
 89 371 89 371 89 314 c 0,2,3
 89 192 89 192 145 116 c 0,4,5
 188 53 188 53 266.5 17.5 c 128,-1,6
 345 -18 345 -18 465 -18 c 0,7,8
 574 -18 574 -18 662.5 19 c 128,-1,9
 751 56 751 56 818 125 c 1,10,11
 885 186 885 186 930 274 c 0,12,13
 974 360 974 360 996 467 c 2,14,-1
 1166 1307 l 1,15,-1
 1007 1307 l 1,16,-1
 835 452 l 2,17,18
 805 300 805 300 716 215 c 0,19,20
 627 128 627 128 481 128 c 0,21,22
 403 128 403 128 353 152 c 0,23,24
 253 193 253 193 249 317 c 0,25,26
 249 324 249 324 249 331 c 0,27,28
 249 385 249 385 262 454 c 2,29,-1
 434 1307 l 1,30,-1
 276 1307 l 1,31,-1
 102 436 l 2,0,1
EndSplineSet
Substitution2: "<10,1> Superiors in Latin lookup 5 subtable" U.superior
EndChar

StartChar: V
Encoding: 86 86 57
Width: 1126
Flags: W
LayerCount: 2
Fore
SplineSet
345 10 m 1,0,-1
 569 10 l 1,1,-1
 1265 1297 l 1,2,-1
 1089 1297 l 1,3,-1
 634 421 l 1,4,-1
 482 134 l 1,5,-1
 453 425 l 1,6,-1
 347 1297 l 1,7,-1
 175 1297 l 1,8,-1
 345 10 l 1,0,-1
EndSplineSet
Substitution2: "<10,1> Superiors in Latin lookup 5 subtable" V.superior
EndChar

StartChar: W
Encoding: 87 87 58
Width: 1126
Flags: W
LayerCount: 2
Fore
SplineSet
673 10 m 1,0,-1
 883 10 l 1,1,-1
 1228 1297 l 1,2,-1
 1087 1297 l 1,3,-1
 848 352 l 1,4,-1
 795 121 l 1,5,-1
 760 344 l 1,6,-1
 683 856 l 1,7,-1
 575 856 l 1,8,-1
 322 376 l 1,9,-1
 190 115 l 1,10,-1
 359 1297 l 1,11,-1
 214 1297 l 1,12,-1
 44 10 l 1,13,-1
 254 10 l 1,14,-1
 491 458 l 1,15,-1
 587 650 l 1,16,-1
 604 466 l 1,17,-1
 673 10 l 1,0,-1
EndSplineSet
Substitution2: "<10,1> Superiors in Latin lookup 5 subtable" W.superior
EndChar

StartChar: X
Encoding: 88 88 59
Width: 1126
Flags: W
LayerCount: 2
Fore
SplineSet
574 548 m 1,0,-1
 789 10 l 1,1,-1
 984 10 l 1,2,-1
 688 678 l 1,3,-1
 1208 1297 l 1,4,-1
 1021 1297 l 1,5,-1
 613 796 l 1,6,-1
 409 1297 l 1,7,-1
 228 1297 l 1,8,-1
 495 666 l 1,9,-1
 -62 10 l 1,10,-1
 140 10 l 1,11,-1
 574 548 l 1,0,-1
EndSplineSet
Substitution2: "<10,1> Superiors in Latin lookup 5 subtable" X.superior
EndChar

StartChar: Y
Encoding: 89 89 60
Width: 1126
Flags: W
LayerCount: 2
Fore
SplineSet
383 10 m 1,0,-1
 543 10 l 1,1,-1
 636 471 l 1,2,-1
 1266 1297 l 1,3,-1
 1078 1297 l 1,4,-1
 719 805 l 1,5,-1
 584 615 l 1,6,-1
 520 826 l 1,7,-1
 360 1297 l 1,8,-1
 174 1297 l 1,9,-1
 475 472 l 1,10,-1
 383 10 l 1,0,-1
EndSplineSet
Substitution2: "<10,1> Superiors in Latin lookup 5 subtable" Y.superior
EndChar

StartChar: Z
Encoding: 90 90 61
Width: 1126
Flags: W
LayerCount: 2
Fore
SplineSet
268 1155 m 1,0,-1
 925 1155 l 1,1,-1
 44 128 l 1,2,-1
 20 10 l 1,3,-1
 903 10 l 1,4,-1
 932 156 l 1,5,-1
 248 156 l 1,6,-1
 1124 1172 l 1,7,-1
 1149 1297 l 1,8,-1
 297 1297 l 1,9,-1
 268 1155 l 1,0,-1
EndSplineSet
Substitution2: "<10,1> Superiors in Latin lookup 5 subtable" Z.superior
EndChar

StartChar: bracketleft
Encoding: 91 91 62
Width: 1126
Flags: W
LayerCount: 2
Fore
SplineSet
662 1318 m 1,0,-1
 989 1318 l 1,1,-1
 1013 1438 l 1,2,-1
 540 1438 l 1,3,-1
 172 -400 l 1,4,-1
 645 -400 l 1,5,-1
 669 -280 l 1,6,-1
 342 -280 l 1,7,-1
 662 1318 l 1,0,-1
EndSplineSet
Substitution2: "'rtla' Right to Left Alternates in Greek lookup 0 subtable" bracketright
EndChar

StartChar: backslash
Encoding: 92 92 63
Width: 1126
Flags: W
LayerCount: 2
Fore
SplineSet
710 -205 m 1,0,-1
 852 -205 l 1,1,-1
 498 1403 l 1,2,-1
 356 1403 l 1,3,-1
 710 -205 l 1,0,-1
EndSplineSet
EndChar

StartChar: bracketright
Encoding: 93 93 64
Width: 1126
Flags: W
LayerCount: 2
Fore
SplineSet
784 1318 m 1,0,-1
 464 -280 l 1,1,-1
 139 -280 l 1,2,-1
 115 -400 l 1,3,-1
 588 -400 l 1,4,-1
 956 1438 l 1,5,-1
 483 1438 l 1,6,-1
 459 1318 l 1,7,-1
 784 1318 l 1,0,-1
EndSplineSet
Substitution2: "'rtla' Right to Left Alternates in Greek lookup 0 subtable" bracketleft
EndChar

StartChar: asciicircum
Encoding: 94 94 65
Width: 1126
Flags: W
LayerCount: 2
Fore
SplineSet
888 678 m 1,0,-1
 1029 678 l 1,1,-1
 781 1297 l 1,2,-1
 652 1297 l 1,3,-1
 172 678 l 1,4,-1
 314 678 l 1,5,-1
 695 1190 l 1,6,-1
 888 678 l 1,0,-1
EndSplineSet
EndChar

StartChar: underscore
Encoding: 95 95 66
Width: 1126
Flags: W
LayerCount: 2
Fore
SplineSet
-172 -400 m 1,0,-1
 934 -400 l 1,1,-1
 959 -276 l 1,2,-1
 -148 -276 l 1,3,-1
 -172 -400 l 1,0,-1
EndSplineSet
EndChar

StartChar: grave
Encoding: 96 96 67
Width: 1126
Flags: W
LayerCount: 2
Fore
SplineSet
626 1181 m 1,0,-1
 774 1181 l 1,1,-1
 563 1403 l 1,2,-1
 344 1403 l 1,3,-1
 626 1181 l 1,0,-1
0 1004 m 1024,4,-1
EndSplineSet
EndChar

StartChar: a
Encoding: 97 97 68
Width: 1126
Flags: W
LayerCount: 2
Fore
SplineSet
905 983 m 1,0,1
 792 1016 792 1016 668 1016 c 0,2,3
 530 1016 530 1016 425 961 c 128,-1,4
 320 906 320 906 248 811 c 128,-1,5
 176 716 176 716 139 588.5 c 128,-1,6
 102 461 102 461 102 315 c 0,7,8
 102 159 102 159 169 72 c 0,9,10
 202 29 202 29 253.5 5.5 c 128,-1,11
 305 -18 305 -18 375 -18 c 0,12,13
 487 -18 487 -18 583.5 46.5 c 128,-1,14
 680 111 680 111 747 231 c 2,15,-1
 771 273 l 1,16,-1
 742 0 l 1,17,-1
 886 0 l 1,18,19
 898 116 898 116 912.5 247.5 c 128,-1,20
 927 379 927 379 931.5 411 c 128,-1,21
 936 443 936 443 940 462 c 2,22,-1
 1050 1019 l 1,23,-1
 905 983 l 1,0,1
292 182 m 0,24,25
 258 238 258 238 258 336 c 0,26,27
 258 380 258 380 264.5 437.5 c 128,-1,28
 271 495 271 495 288 556 c 128,-1,29
 305 617 305 617 333.5 675.5 c 128,-1,30
 362 734 362 734 407 780 c 128,-1,31
 452 826 452 826 515 855 c 128,-1,32
 578 884 578 884 662 884 c 0,33,34
 705 884 705 884 755.5 872.5 c 128,-1,35
 806 861 806 861 861 837 c 1,36,-1
 819 623 l 2,37,38
 794 499 794 499 731 388 c 0,39,40
 665 269 665 269 584 200 c 0,41,42
 542 165 542 165 497.5 144 c 128,-1,43
 453 123 453 123 408 123 c 0,44,45
 328 123 328 123 292 182 c 0,24,25
EndSplineSet
Substitution2: "<10,1> Superiors in Latin lookup 5 subtable" uni1D43
EndChar

StartChar: b
Encoding: 98 98 69
Width: 1126
Flags: W
LayerCount: 2
Fore
SplineSet
251 9.5 m 128,-1,1
 340 -12 340 -12 449 -12 c 0,2,3
 586 -12 586 -12 691 43 c 128,-1,4
 796 98 796 98 868 192.5 c 128,-1,5
 940 287 940 287 977 414.5 c 128,-1,6
 1014 542 1014 542 1014 688 c 0,7,8
 1014 764 1014 764 997 826 c 0,9,10
 964 950 964 950 862 998 c 0,11,12
 811 1022 811 1022 741 1022 c 0,13,14
 631 1022 631 1022 535 960 c 0,15,16
 441 899 441 899 380 787 c 2,17,-1
 340 716 l 1,18,-1
 426 1036 l 1,19,-1
 502 1413 l 1,20,-1
 348 1413 l 1,21,-1
 83 67 l 1,22,0
 162 31 162 31 251 9.5 c 128,-1,1
824 822 m 0,23,24
 858 767 858 767 858 668 c 0,25,26
 858 623 858 623 851.5 566 c 128,-1,27
 845 509 845 509 828 448 c 128,-1,28
 811 387 811 387 782.5 328 c 128,-1,29
 754 269 754 269 709.5 223 c 128,-1,30
 665 177 665 177 602 148 c 128,-1,31
 539 119 539 119 455 119 c 0,32,33
 412 119 412 119 361 130.5 c 128,-1,34
 310 142 310 142 255 166 c 1,35,-1
 299 391 l 2,36,37
 322 505 322 505 386 617 c 0,38,39
 452 734 452 734 533 803 c 0,40,41
 575 838 575 838 619.5 859 c 128,-1,42
 664 880 664 880 709 880 c 0,43,44
 789 880 789 880 824 822 c 0,23,24
EndSplineSet
Substitution2: "<10,1> Superiors in Latin lookup 5 subtable" uni1D47
EndChar

StartChar: c
Encoding: 99 99 70
Width: 1126
Flags: W
LayerCount: 2
Fore
SplineSet
890.5 1007.5 m 128,-1,1
 821 1018 821 1018 750 1018 c 0,2,3
 627 1018 627 1018 518 971.5 c 128,-1,4
 409 925 409 925 327.5 838.5 c 128,-1,5
 246 752 246 752 198.5 629 c 128,-1,6
 151 506 151 506 151 353 c 0,7,8
 151 169 151 169 256 77.5 c 128,-1,9
 361 -14 361 -14 557 -14 c 0,10,11
 631 -14 631 -14 701 -1 c 128,-1,12
 771 12 771 12 850 39 c 1,13,-1
 850 167 l 1,14,15
 790 143 790 143 720.5 129.5 c 128,-1,16
 651 116 651 116 584 116 c 0,17,18
 452 116 452 116 383 181 c 128,-1,19
 314 246 314 246 314 375 c 0,20,21
 314 471 314 471 342 563 c 128,-1,22
 370 655 370 655 424 727.5 c 128,-1,23
 478 800 478 800 557.5 843.5 c 128,-1,24
 637 887 637 887 741 887 c 0,25,26
 807 887 807 887 874.5 872 c 128,-1,27
 942 857 942 857 994 834 c 1,28,-1
 1021 974 l 1,29,0
 960 997 960 997 890.5 1007.5 c 128,-1,1
EndSplineSet
Substitution2: "<10,1> Superiors in Latin lookup 5 subtable" uni1D9C
EndChar

StartChar: d
Encoding: 100 100 71
Width: 1126
Flags: W
LayerCount: 2
Fore
SplineSet
788 1010 m 128,-1,1
 739 1016 739 1016 668 1016 c 0,2,3
 530 1016 530 1016 425 961 c 128,-1,4
 320 906 320 906 248 811 c 128,-1,5
 176 716 176 716 139 588.5 c 128,-1,6
 102 461 102 461 102 315 c 0,7,8
 102 159 102 159 169 72 c 0,9,10
 202 29 202 29 253.5 5.5 c 128,-1,11
 305 -18 305 -18 375 -18 c 0,12,13
 487 -18 487 -18 583.5 46 c 128,-1,14
 680 110 680 110 747 229 c 2,15,-1
 771 271 l 1,16,-1
 742 0 l 1,17,-1
 886 0 l 1,18,19
 898 115 898 115 912.5 246 c 128,-1,20
 927 377 927 377 931.5 408.5 c 128,-1,21
 936 440 936 440 940 460 c 2,22,-1
 1129 1413 l 1,23,-1
 975 1413 l 1,24,-1
 891 988 l 1,25,-1
 880 991 l 2,26,0
 837 1004 837 1004 788 1010 c 128,-1,1
292 182 m 0,27,28
 258 238 258 238 258 336 c 0,29,30
 258 380 258 380 264.5 437.5 c 128,-1,31
 271 495 271 495 288 556 c 128,-1,32
 305 617 305 617 333.5 675.5 c 128,-1,33
 362 734 362 734 407 780 c 128,-1,34
 452 826 452 826 515 855 c 128,-1,35
 578 884 578 884 662 884 c 0,36,37
 705 884 705 884 755.5 872.5 c 128,-1,38
 806 861 806 861 861 837 c 1,39,-1
 819 623 l 2,40,41
 794 499 794 499 731 388 c 0,42,43
 665 269 665 269 584 200 c 0,44,45
 542 165 542 165 497.5 144 c 128,-1,46
 453 123 453 123 408 123 c 0,47,48
 328 123 328 123 292 182 c 0,27,28
EndSplineSet
Substitution2: "<10,1> Superiors in Latin lookup 5 subtable" uni1D48
EndChar

StartChar: e
Encoding: 101 101 72
Width: 1126
Flags: W
LayerCount: 2
Fore
SplineSet
269 349 m 0,0,1
 269 393 269 393 281 455 c 1,2,-1
 477 455 l 2,3,4
 761 455 761 455 897 542 c 0,5,6
 961 583 961 583 990.5 639.5 c 128,-1,7
 1020 696 1020 696 1020 767 c 0,8,9
 1020 821 1020 821 997 867 c 128,-1,10
 974 913 974 913 929.5 947.5 c 128,-1,11
 885 982 885 982 820.5 1002 c 128,-1,12
 756 1022 756 1022 672 1022 c 0,13,14
 551 1022 551 1022 448.5 968.5 c 128,-1,15
 346 915 346 915 271.5 823 c 128,-1,16
 197 731 197 731 154.5 608.5 c 128,-1,17
 112 486 112 486 112 347 c 0,18,19
 112 169 112 169 210 75.5 c 128,-1,20
 308 -18 308 -18 516 -18 c 0,21,22
 611 -18 611 -18 701.5 -5.5 c 128,-1,23
 792 7 792 7 864 26 c 1,24,-1
 864 151 l 1,25,26
 800 135 800 135 717 122 c 128,-1,27
 634 109 634 109 545 109 c 0,28,29
 405 109 405 109 337 171 c 128,-1,30
 269 233 269 233 269 349 c 0,0,1
660 584 m 0,31,32
 587 570 587 570 475 570 c 2,33,-1
 301 570 l 1,34,-1
 306 583 l 1,35,36
 354 729 354 729 440 808 c 0,37,38
 533 893 533 893 662 893 c 0,39,40
 712 893 712 893 749 881.5 c 128,-1,41
 786 870 786 870 811 849.5 c 128,-1,42
 836 829 836 829 848 802 c 128,-1,43
 860 775 860 775 860 742.5 c 128,-1,44
 860 710 860 710 842 678 c 0,45,46
 803 610 803 610 660 584 c 0,31,32
EndSplineSet
Substitution2: "<10,1> Superiors in Latin lookup 5 subtable" uni1D49
EndChar

StartChar: f
Encoding: 102 102 73
Width: 1126
Flags: W
LayerCount: 2
Fore
SplineSet
-68 -287 m 1,0,-1
 -92 -417 l 1,1,2
 -54 -420 -54 -420 -8 -420 c 0,3,4
 97 -420 97 -420 175.5 -396.5 c 128,-1,5
 254 -373 254 -373 311 -325 c 128,-1,6
 368 -277 368 -277 405 -203 c 128,-1,7
 442 -129 442 -129 463 -26 c 2,8,-1
 613 727 l 1,9,-1
 1053 727 l 1,10,-1
 1078 855 l 1,11,-1
 637 855 l 1,12,-1
 672 1036 l 2,13,14
 699 1167 699 1167 772.5 1233.5 c 128,-1,15
 846 1300 846 1300 969 1300 c 0,16,17
 1076 1300 1076 1300 1190 1275 c 1,18,-1
 1217 1403 l 1,19,20
 1160 1414 1160 1414 1100 1419.5 c 128,-1,21
 1040 1425 1040 1425 987 1425 c 0,22,23
 782 1425 782 1425 668.5 1326.5 c 128,-1,24
 555 1228 555 1228 516 1032 c 2,25,-1
 481 855 l 1,26,-1
 158 855 l 1,27,-1
 133 727 l 1,28,-1
 456 727 l 1,29,-1
 307 -30 l 2,30,31
 280 -165 280 -165 206.5 -228.5 c 128,-1,32
 133 -292 133 -292 10 -292 c 0,33,34
 -27 -292 -27 -292 -68 -287 c 1,0,-1
0 1004 m 1024,35,-1
EndSplineSet
Substitution2: "<10,1> Superiors in Latin lookup 5 subtable" uni1DA0
EndChar

StartChar: g
Encoding: 103 103 74
Width: 1126
Flags: W
LayerCount: 2
Fore
SplineSet
736 216 m 1,0,-1
 755 208 l 1,1,2
 720 97 720 97 691 -26 c 0,3,4
 678 -85 678 -85 659.5 -133 c 128,-1,5
 641 -181 641 -181 608 -218.5 c 128,-1,6
 575 -256 575 -256 523 -278.5 c 128,-1,7
 471 -301 471 -301 391 -301 c 128,-1,8
 311 -301 311 -301 246.5 -277.5 c 128,-1,9
 182 -254 182 -254 128 -218 c 1,10,-1
 51 -329 l 1,11,12
 99 -362 99 -362 180 -391 c 128,-1,13
 261 -420 261 -420 372 -420 c 128,-1,14
 483 -420 483 -420 564.5 -393.5 c 128,-1,15
 646 -367 646 -367 701.5 -319.5 c 128,-1,16
 757 -272 757 -272 789.5 -206.5 c 128,-1,17
 822 -141 822 -141 838 -61 c 2,18,-1
 1050 1019 l 1,19,-1
 905 983 l 1,20,21
 792 1016 792 1016 668 1016 c 0,22,23
 530 1016 530 1016 425 961 c 128,-1,24
 320 906 320 906 248 811 c 128,-1,25
 176 716 176 716 139 588.5 c 128,-1,26
 102 461 102 461 102 315 c 0,27,28
 102 159 102 159 169 72 c 0,29,30
 202 29 202 29 253.5 5.5 c 128,-1,31
 305 -18 305 -18 375 -18 c 0,32,33
 430 -18 430 -18 483 -2 c 128,-1,34
 536 14 536 14 581.5 44 c 128,-1,35
 627 74 627 74 667 117.5 c 128,-1,36
 707 161 707 161 736 216 c 1,0,-1
292 182 m 0,37,38
 258 238 258 238 258 336 c 0,39,40
 258 380 258 380 264.5 437.5 c 128,-1,41
 271 495 271 495 288 556 c 128,-1,42
 305 617 305 617 333.5 675.5 c 128,-1,43
 362 734 362 734 407 780 c 128,-1,44
 452 826 452 826 515 855 c 128,-1,45
 578 884 578 884 662 884 c 0,46,47
 705 884 705 884 755.5 872.5 c 128,-1,48
 806 861 806 861 861 837 c 1,49,-1
 817 612 l 2,50,51
 795 500 795 500 731 386 c 0,52,53
 700 331 700 331 663 284 c 0,54,55
 584 184 584 184 498 144 c 0,56,57
 453 123 453 123 408 123 c 0,58,59
 328 123 328 123 292 182 c 0,37,38
EndSplineSet
Substitution2: "<10,1> Superiors in Latin lookup 5 subtable" uni1D4D
EndChar

StartChar: h
Encoding: 104 104 75
Width: 1126
Flags: W
LayerCount: 2
Fore
SplineSet
983 655 m 2,0,1
 996 721 996 721 996 776 c 0,2,3
 996 871 996 871 956 930 c 0,4,5
 893 1022 893 1022 739 1022 c 0,6,7
 684 1022 684 1022 632 1006 c 128,-1,8
 580 990 580 990 535 960 c 128,-1,9
 490 930 490 930 451.5 888.5 c 128,-1,10
 413 847 413 847 386 796 c 2,11,-1
 347 724 l 1,12,-1
 422 1016 l 1,13,-1
 502 1413 l 1,14,-1
 348 1413 l 1,15,-1
 69 20 l 1,16,-1
 223 20 l 1,17,-1
 297 391 l 2,18,19
 315 480 315 480 356 569 c 128,-1,20
 397 658 397 658 453 729.5 c 128,-1,21
 509 801 509 801 574.5 846.5 c 128,-1,22
 640 892 640 892 707 892 c 0,23,24
 793 892 793 892 824 832 c 0,25,26
 841 801 841 801 841 754 c 128,-1,27
 841 707 841 707 829 649 c 2,28,-1
 702 20 l 1,29,-1
 856 20 l 1,30,-1
 983 655 l 2,0,1
EndSplineSet
Substitution2: "<10,1> Superiors in Latin lookup 5 subtable" uni02B0
EndChar

StartChar: i
Encoding: 105 105 76
Width: 1126
Flags: W
LayerCount: 2
Fore
SplineSet
591.5 1387 m 128,-1,1
 573 1369 573 1369 563 1345 c 128,-1,2
 553 1321 553 1321 553 1294 c 128,-1,3
 553 1267 553 1267 562 1245 c 128,-1,4
 571 1223 571 1223 586.5 1206.5 c 128,-1,5
 602 1190 602 1190 624.5 1180.5 c 128,-1,6
 647 1171 647 1171 674.5 1171 c 128,-1,7
 702 1171 702 1171 726 1181 c 128,-1,8
 750 1191 750 1191 768.5 1209 c 128,-1,9
 787 1227 787 1227 797 1251 c 128,-1,10
 807 1275 807 1275 807 1302 c 128,-1,11
 807 1329 807 1329 798 1351 c 128,-1,12
 789 1373 789 1373 773 1389.5 c 128,-1,13
 757 1406 757 1406 735 1415.5 c 128,-1,14
 713 1425 713 1425 685.5 1425 c 128,-1,15
 658 1425 658 1425 634 1415 c 128,-1,0
 610 1405 610 1405 591.5 1387 c 128,-1,1
298 867 m 0,16,17
 366 895 366 895 436 895 c 0,18,19
 464 895 464 895 487 884 c 0,20,21
 532 861 532 861 532 776 c 0,22,23
 532 736 532 736 520 679 c 2,24,-1
 452 337 l 2,25,26
 436 252 436 252 436 190 c 0,27,28
 436 110 436 110 463 62 c 0,29,30
 487 21 487 21 532.5 1.5 c 128,-1,31
 578 -18 578 -18 647 -18 c 0,32,33
 733 -18 733 -18 806.5 3 c 128,-1,34
 880 24 880 24 946 60 c 1,35,-1
 946 194 l 1,36,37
 885 162 885 162 826 137 c 0,38,39
 758 109 758 109 688 109 c 0,40,41
 660 109 660 109 638 120.5 c 128,-1,42
 616 132 616 132 604.5 158 c 128,-1,43
 593 184 593 184 593 224 c 128,-1,44
 593 264 593 264 604 324 c 2,45,-1
 672 667 l 2,46,47
 688 752 688 752 688 814 c 0,48,49
 688 894 688 894 661 942 c 0,50,51
 637 983 637 983 591.5 1002.5 c 128,-1,52
 546 1022 546 1022 477 1022 c 0,53,54
 391 1022 391 1022 317.5 1000.5 c 128,-1,55
 244 979 244 979 178 943 c 1,56,-1
 178 809 l 1,57,58
 239 842 239 842 298 867 c 0,16,17
EndSplineSet
EndChar

StartChar: j
Encoding: 106 106 77
Width: 1126
Flags: W
LayerCount: 2
Fore
SplineSet
150 -409 m 0,0,1
 200 -420 200 -420 258 -420 c 0,2,3
 340 -420 340 -420 415.5 -395 c 128,-1,4
 491 -370 491 -370 553 -318.5 c 128,-1,5
 615 -267 615 -267 661 -190 c 0,6,7
 707 -111 707 -111 727 -3 c 2,8,-1
 860 672 l 2,9,10
 876 753 876 753 876 814 c 0,11,12
 876 893 876 893 847 940 c 0,13,14
 821 981 821 981 769 1001.5 c 128,-1,15
 717 1022 717 1022 635 1022 c 0,16,17
 525 1022 525 1022 435 999 c 128,-1,18
 345 976 345 976 260 936 c 1,19,-1
 260 804 l 1,20,21
 344 842 344 842 425.5 868.5 c 128,-1,22
 507 895 507 895 596 895 c 0,23,24
 633 895 633 895 660.5 885 c 128,-1,25
 688 875 688 875 702 849 c 0,26,27
 717 821 717 821 717 776.5 c 128,-1,28
 717 732 717 732 704 668 c 2,29,-1
 579 35 l 2,30,31
 544 -138 544 -138 464 -217 c 0,32,33
 383 -294 383 -294 268 -294 c 0,34,35
 191 -294 191 -294 127 -264.5 c 128,-1,36
 63 -235 63 -235 20 -190 c 1,37,-1
 -78 -289 l 1,38,39
 15 -380 15 -380 150 -409 c 0,0,1
763.5 1387 m 128,-1,41
 745 1369 745 1369 735 1345 c 128,-1,42
 725 1321 725 1321 725 1294 c 128,-1,43
 725 1267 725 1267 734 1245 c 128,-1,44
 743 1223 743 1223 758.5 1206.5 c 128,-1,45
 774 1190 774 1190 796.5 1180.5 c 128,-1,46
 819 1171 819 1171 846.5 1171 c 128,-1,47
 874 1171 874 1171 898 1181 c 128,-1,48
 922 1191 922 1191 940.5 1209 c 128,-1,49
 959 1227 959 1227 969 1251 c 128,-1,50
 979 1275 979 1275 979 1302 c 128,-1,51
 979 1329 979 1329 970 1351 c 128,-1,52
 961 1373 961 1373 945 1389.5 c 128,-1,53
 929 1406 929 1406 907 1415.5 c 128,-1,54
 885 1425 885 1425 857.5 1425 c 128,-1,55
 830 1425 830 1425 806 1415 c 128,-1,40
 782 1405 782 1405 763.5 1387 c 128,-1,41
EndSplineSet
Substitution2: "<10,1> Superiors in Latin lookup 5 subtable" uni02B2
EndChar

StartChar: k
Encoding: 107 107 78
Width: 1126
Flags: W
LayerCount: 2
Fore
SplineSet
978.5 649 m 128,-1,1
 1012 704 1012 704 1012 776 c 0,2,3
 1012 831 1012 831 995 876 c 128,-1,4
 978 921 978 921 945.5 953.5 c 128,-1,5
 913 986 913 986 865.5 1004 c 128,-1,6
 818 1022 818 1022 759.5 1022 c 128,-1,7
 701 1022 701 1022 649 1006 c 128,-1,8
 597 990 597 990 551.5 960 c 128,-1,9
 506 930 506 930 467.5 888.5 c 128,-1,10
 429 847 429 847 402 796 c 2,11,-1
 362 722 l 1,12,-1
 439 1016 l 1,13,-1
 518 1413 l 1,14,-1
 364 1413 l 1,15,-1
 86 20 l 1,16,-1
 240 20 l 1,17,-1
 314 391 l 2,18,19
 332 480 332 480 373 569 c 128,-1,20
 414 658 414 658 469.5 729.5 c 128,-1,21
 525 801 525 801 590.5 846.5 c 128,-1,22
 656 892 656 892 723 892 c 0,23,24
 757 892 757 892 782 882 c 0,25,26
 833 861 833 861 850 814 c 0,27,28
 858 792 858 792 858 766 c 0,29,30
 858 719 858 719 834 677 c 0,31,32
 783 591 783 591 609 549 c 0,33,34
 525 528 525 528 405 519 c 1,35,-1
 732 20 l 1,36,-1
 927 20 l 1,37,-1
 622 447 l 1,38,-1
 637 450 l 2,39,40
 704 462 704 462 771.5 487.5 c 128,-1,41
 839 513 839 513 892 553.5 c 128,-1,0
 945 594 945 594 978.5 649 c 128,-1,1
EndSplineSet
Substitution2: "<10,1> Superiors in Latin lookup 5 subtable" uni1D4F
EndChar

StartChar: l
Encoding: 108 108 79
Width: 1126
Flags: W
LayerCount: 2
Fore
SplineSet
313 1273 m 0,0,1
 381 1300 381 1300 451 1300 c 0,2,3
 479 1300 479 1300 502 1289 c 0,4,5
 547 1267 547 1267 547 1183 c 0,6,7
 547 1145 547 1145 535 1089 c 2,8,-1
 387 336 l 2,9,10
 370 250 370 250 370 187 c 0,11,12
 370 109 370 109 397 62 c 0,13,14
 421 21 421 21 466.5 1.5 c 128,-1,15
 512 -18 512 -18 581 -18 c 0,16,17
 667 -18 667 -18 740.5 3 c 128,-1,18
 814 24 814 24 880 60 c 1,19,-1
 880 194 l 1,20,21
 819 161 819 161 760 137 c 0,22,23
 692 109 692 109 622 109 c 0,24,25
 594 109 594 109 572 120 c 0,26,27
 529 142 529 142 529 224 c 0,28,29
 529 264 529 264 540 324 c 2,30,-1
 687 1075 l 2,31,32
 703 1159 703 1159 703 1221 c 0,33,34
 703 1299 703 1299 676 1346 c 0,35,36
 652 1387 652 1387 606.5 1406 c 128,-1,37
 561 1425 561 1425 492 1425 c 0,38,39
 406 1425 406 1425 332.5 1404 c 128,-1,40
 259 1383 259 1383 193 1347 c 1,41,-1
 193 1216 l 1,42,43
 254 1249 254 1249 313 1273 c 0,0,1
EndSplineSet
EndChar

StartChar: m
Encoding: 109 109 80
Width: 1126
Flags: W
LayerCount: 2
Fore
SplineSet
679 757 m 1,0,-1
 661 765 l 1,1,2
 682 821 682 821 682 871 c 0,3,4
 682 913 682 913 668.5 946.5 c 128,-1,5
 655 980 655 980 624 1001 c 128,-1,6
 593 1022 593 1022 545 1022 c 0,7,8
 471 1022 471 1022 404 941 c 0,9,10
 347 877 347 877 285 758 c 2,11,-1
 261 714 l 1,12,-1
 290 1002 l 1,13,-1
 161 1002 l 1,14,15
 122 612 122 612 106 531 c 2,16,-1
 0 0 l 1,17,-1
 139 0 l 1,18,-1
 217 391 l 2,19,20
 235 479 235 479 290 597 c 0,21,22
 315 651 315 651 345 701 c 0,23,24
 407 805 407 805 461 852 c 0,25,26
 490 877 490 877 514 877 c 0,27,28
 546 877 546 877 549 835 c 0,29,30
 550 830 550 830 550 818 c 0,31,32
 550 781 550 781 532 690 c 2,33,-1
 393 0 l 1,34,-1
 533 0 l 1,35,-1
 611 391 l 2,36,37
 627 478 627 478 683 597 c 0,38,39
 739 713 739 713 797 790 c 0,40,41
 827 828 827 828 855 852 c 0,42,43
 883 880 883 880 907 880 c 0,44,45
 939 880 939 880 942 834 c 0,46,47
 943 829 943 829 943 817 c 0,48,49
 943 780 943 780 925 690 c 2,50,-1
 786 0 l 1,51,-1
 926 0 l 1,52,-1
 1065 703 l 2,53,54
 1080 779 1080 779 1080 837 c 0,55,56
 1080 901 1080 901 1063 943 c 0,57,58
 1032 1022 1032 1022 938 1022 c 0,59,60
 864 1022 864 1022 797 941 c 0,61,62
 765 903 765 903 736 852 c 0,63,64
 707 808 707 808 679 757 c 1,0,-1
EndSplineSet
Substitution2: "<10,1> Superiors in Latin lookup 5 subtable" uni1D50
EndChar

StartChar: n
Encoding: 110 110 81
Width: 1126
Flags: W
LayerCount: 2
Fore
SplineSet
574.5 846.5 m 128,-1,1
 640 892 640 892 707 892 c 0,2,3
 793 892 793 892 824 832 c 0,4,5
 841 801 841 801 841 754 c 128,-1,6
 841 707 841 707 829 649 c 2,7,-1
 702 20 l 1,8,-1
 856 20 l 1,9,-1
 983 655 l 2,10,11
 997 722 997 722 997 777 c 0,12,13
 997 872 997 872 956 930 c 0,14,15
 893 1022 893 1022 739 1022 c 0,16,17
 628 1022 628 1022 532.5 959 c 128,-1,18
 437 896 437 896 369 777 c 2,19,-1
 345 736 l 1,20,-1
 374 1004 l 1,21,-1
 230 1004 l 1,22,23
 218 891 218 891 203.5 762 c 128,-1,24
 189 633 189 633 184.5 601.5 c 128,-1,25
 180 570 180 570 176 551 c 2,26,-1
 69 20 l 1,27,-1
 223 20 l 1,28,-1
 297 391 l 2,29,30
 315 480 315 480 356 569 c 128,-1,31
 397 658 397 658 453 729.5 c 128,-1,0
 509 801 509 801 574.5 846.5 c 128,-1,1
EndSplineSet
Substitution2: "<10,1> Superiors in Latin lookup 5 subtable" uni207F
EndChar

StartChar: o
Encoding: 111 111 82
Width: 1126
Flags: W
LayerCount: 2
Fore
SplineSet
187.5 73.5 m 128,-1,1
 285 -18 285 -18 461 -18 c 0,2,3
 550 -18 550 -18 627.5 8.5 c 128,-1,4
 705 35 705 35 768.5 82 c 128,-1,5
 832 129 832 129 881 193.5 c 128,-1,6
 930 258 930 258 963.5 332.5 c 128,-1,7
 997 407 997 407 1014.5 489 c 128,-1,8
 1032 571 1032 571 1032 658.5 c 128,-1,9
 1032 746 1032 746 1007 815 c 0,10,11
 956 952 956 952 819 999 c 0,12,13
 750 1022 750 1022 661 1022 c 128,-1,14
 572 1022 572 1022 495 995.5 c 128,-1,15
 418 969 418 969 354 922 c 128,-1,16
 290 875 290 875 241 810.5 c 128,-1,17
 192 746 192 746 158.5 671.5 c 128,-1,18
 125 597 125 597 107.5 515 c 128,-1,19
 90 433 90 433 90 349 c 0,20,0
 90 165 90 165 187.5 73.5 c 128,-1,1
814 812 m 0,21,22
 874 751 874 751 874 630 c 0,23,24
 874 574 874 574 863 516 c 0,25,26
 840 393 840 393 775 298 c 0,27,28
 742 248 742 248 698 211 c 128,-1,29
 654 174 654 174 600 152 c 256,30,31
 546 130 546 130 481 130 c 0,32,33
 368 130 368 130 308 192 c 256,34,35
 248 254 248 254 248 375 c 0,36,37
 248 431 248 431 259 489 c 0,38,39
 282 610 282 610 347 706 c 0,40,41
 380 756 380 756 424 793 c 128,-1,42
 468 830 468 830 522 852 c 0,43,44
 577 874 577 874 641 874 c 0,45,46
 754 874 754 874 814 812 c 0,21,22
EndSplineSet
Substitution2: "<10,1> Superiors in Latin lookup 5 subtable" uni1D52
EndChar

StartChar: p
Encoding: 112 112 83
Width: 1126
Flags: W
LayerCount: 2
Fore
SplineSet
334 -6 m 128,-1,1
 383 -12 383 -12 455 -12 c 0,2,3
 592 -12 592 -12 697 43 c 128,-1,4
 802 98 802 98 874 192.5 c 128,-1,5
 946 287 946 287 983 414.5 c 128,-1,6
 1020 542 1020 542 1020 688 c 0,7,8
 1020 764 1020 764 1003.5 826 c 128,-1,9
 987 888 987 888 953.5 931 c 128,-1,10
 920 974 920 974 869 998 c 128,-1,11
 818 1022 818 1022 748 1022 c 0,12,13
 635 1022 635 1022 539.5 958 c 128,-1,14
 444 894 444 894 376 774 c 2,15,-1
 352 732 l 1,16,-1
 380 1004 l 1,17,-1
 236 1004 l 1,18,19
 209 743 209 743 202 685 c 0,20,21
 189 579 189 579 182 544 c 2,22,-1
 -6 -410 l 1,23,-1
 148 -410 l 1,24,-1
 232 15 l 1,25,0
 285 0 285 0 334 -6 c 128,-1,1
830 822 m 0,26,27
 864 767 864 767 864 668 c 0,28,29
 864 623 864 623 857.5 566 c 128,-1,30
 851 509 851 509 834 448 c 128,-1,31
 817 387 817 387 788.5 328 c 128,-1,32
 760 269 760 269 715.5 223 c 128,-1,33
 671 177 671 177 608 148 c 128,-1,34
 545 119 545 119 461 119 c 0,35,36
 418 119 418 119 367 130.5 c 128,-1,37
 316 142 316 142 261 166 c 1,38,-1
 303 381 l 2,39,40
 327 499 327 499 391 615 c 0,41,42
 422 671 422 671 459 719 c 0,43,44
 537 818 537 818 625 859 c 0,45,46
 670 880 670 880 715 880 c 0,47,48
 795 880 795 880 830 822 c 0,26,27
EndSplineSet
Substitution2: "<10,1> Superiors in Latin lookup 5 subtable" uni1D56
EndChar

StartChar: q
Encoding: 113 113 84
Width: 1126
Flags: W
LayerCount: 2
Fore
SplineSet
905 983 m 1,0,1
 792 1016 792 1016 668 1016 c 0,2,3
 530 1016 530 1016 425 961 c 128,-1,4
 320 906 320 906 248 811 c 128,-1,5
 176 716 176 716 139 588.5 c 128,-1,6
 102 461 102 461 102 315 c 0,7,8
 102 159 102 159 169 72 c 0,9,10
 202 29 202 29 253.5 5.5 c 128,-1,11
 305 -18 305 -18 375 -18 c 0,12,13
 430 -18 430 -18 483 -2 c 128,-1,14
 536 14 536 14 581.5 44 c 128,-1,15
 627 74 627 74 667 117.5 c 128,-1,16
 707 161 707 161 736 216 c 2,17,-1
 777 293 l 1,18,-1
 690 -32 l 1,19,-1
 614 -410 l 1,20,-1
 768 -410 l 1,21,-1
 1050 1019 l 1,22,-1
 905 983 l 1,0,1
292 182 m 0,23,24
 258 238 258 238 258 336 c 0,25,26
 258 380 258 380 264.5 437.5 c 128,-1,27
 271 495 271 495 288 556 c 128,-1,28
 305 617 305 617 333.5 675.5 c 128,-1,29
 362 734 362 734 407 780 c 128,-1,30
 452 826 452 826 515 855 c 128,-1,31
 578 884 578 884 662 884 c 0,32,33
 705 884 705 884 755.5 872.5 c 128,-1,34
 806 861 806 861 861 837 c 1,35,-1
 817 612 l 2,36,37
 795 500 795 500 731 386 c 0,38,39
 700 331 700 331 663 284 c 0,40,41
 584 184 584 184 498 144 c 0,42,43
 453 123 453 123 408 123 c 0,44,45
 328 123 328 123 292 182 c 0,23,24
EndSplineSet
EndChar

StartChar: r
Encoding: 114 114 85
Width: 1126
Flags: W
LayerCount: 2
Fore
SplineSet
625 827 m 0,0,1
 695 875 695 875 770 875 c 0,2,3
 809 875 809 875 839 858 c 0,4,5
 897 828 897 828 897 728 c 0,6,7
 897 683 897 683 884 621 c 1,8,-1
 1041 621 l 1,9,10
 1056 695 1056 695 1056 754 c 0,11,12
 1056 849 1056 849 1020 911 c 0,13,14
 960 1022 960 1022 801 1022 c 0,15,16
 734 1022 734 1022 677 1000 c 0,17,18
 568 957 568 957 484 852 c 0,19,20
 444 807 444 807 409 757 c 2,21,-1
 387 724 l 1,22,-1
 415 1002 l 1,23,-1
 271 1002 l 1,24,25
 259 880 259 880 245 742 c 0,26,27
 230 613 230 613 225.5 581.5 c 128,-1,28
 221 550 221 550 217 531 c 2,29,-1
 110 0 l 1,30,-1
 266 0 l 1,31,-1
 340 371 l 2,32,33
 358 461 358 461 399 550 c 128,-1,34
 440 639 440 639 497.5 711 c 128,-1,35
 555 783 555 783 625 827 c 0,0,1
EndSplineSet
Substitution2: "<10,1> Superiors in Latin lookup 5 subtable" uni02B3
EndChar

StartChar: s
Encoding: 115 115 86
Width: 1126
Flags: W
LayerCount: 2
Fore
SplineSet
110 166 m 1,0,-1
 110 15 l 1,1,2
 248 -18 248 -18 444 -18 c 0,3,4
 545 -18 545 -18 629 3 c 128,-1,5
 713 24 713 24 772 64 c 128,-1,6
 831 104 831 104 864 163 c 128,-1,7
 897 222 897 222 897 299 c 0,8,9
 897 349 897 349 883 387 c 0,10,11
 854 463 854 463 755 513 c 0,12,13
 704 538 704 538 632 563 c 0,14,15
 571 582 571 582 528.5 599.5 c 128,-1,16
 486 617 486 617 459.5 636 c 128,-1,17
 433 655 433 655 420.5 677 c 128,-1,18
 408 699 408 699 408 727 c 0,19,20
 408 766 408 766 424 797 c 0,21,22
 457 860 457 860 559 883 c 0,23,24
 610 895 610 895 680 895 c 0,25,26
 791 895 791 895 961 855 c 1,27,-1
 961 990 l 1,28,29
 902 1004 902 1004 826 1013 c 0,30,31
 758 1022 758 1022 696 1022 c 0,32,33
 580 1022 580 1022 496 997.5 c 128,-1,34
 412 973 412 973 357 930.5 c 128,-1,35
 302 888 302 888 276 831.5 c 128,-1,36
 250 775 250 775 250 709 c 0,37,38
 250 654 250 654 268.5 612.5 c 128,-1,39
 287 571 287 571 321.5 540.5 c 128,-1,40
 356 510 356 510 405 487.5 c 128,-1,41
 454 465 454 465 516 446 c 0,42,43
 640 408 640 408 689 374 c 0,44,45
 715 356 715 356 726 335 c 128,-1,46
 737 314 737 314 737 289 c 0,47,48
 737 198 737 198 667 154 c 0,49,50
 600 111 600 111 455 111 c 0,51,52
 282 111 282 111 110 166 c 1,0,-1
EndSplineSet
EndChar

StartChar: t
Encoding: 116 116 87
Width: 1126
Flags: W
LayerCount: 2
Fore
SplineSet
332 389 m 2,0,1
 316 313 316 313 316 252 c 0,2,3
 316 141 316 141 370 78 c 0,4,5
 410 30 410 30 480.5 8 c 128,-1,6
 551 -14 551 -14 651 -14 c 0,7,8
 698 -14 698 -14 757.5 -7.5 c 128,-1,9
 817 -1 817 -1 875 12 c 1,10,-1
 875 144 l 1,11,12
 816 130 816 130 762 122.5 c 128,-1,13
 708 115 708 115 670 115 c 0,14,15
 606 115 606 115 564 130 c 0,16,17
 472 162 472 162 472 284 c 0,18,19
 472 328 472 328 484 387 c 2,20,-1
 580 871 l 1,21,-1
 1030 871 l 1,22,-1
 1055 999 l 1,23,-1
 604 999 l 1,24,-1
 669 1322 l 1,25,-1
 507 1282 l 1,26,-1
 450 1000 l 1,27,-1
 170 1000 l 1,28,-1
 145 872 l 1,29,-1
 426 872 l 1,30,-1
 332 389 l 2,0,1
EndSplineSet
Substitution2: "<10,1> Superiors in Latin lookup 5 subtable" uni1D57
EndChar

StartChar: u
Encoding: 117 117 88
Width: 1126
Flags: W
LayerCount: 2
Fore
SplineSet
505 152 m 0,0,1
 461 128 461 128 416 128 c 0,2,3
 329 128 329 128 298 192 c 0,4,5
 281 223 281 223 281 270 c 128,-1,6
 281 317 281 317 293 374 c 2,7,-1
 420 1004 l 1,8,-1
 266 1004 l 1,9,-1
 139 368 l 2,10,11
 125 302 125 302 125 247 c 0,12,13
 125 148 125 148 166 86 c 0,14,15
 229 -18 229 -18 383 -18 c 0,16,17
 495 -18 495 -18 590 54 c 1,18,19
 686 121 686 121 753 246 c 1,20,-1
 777 287 l 1,21,-1
 748 2 l 1,22,-1
 892 2 l 1,23,24
 904 124 904 124 918 263 c 0,25,26
 933 392 933 392 937.5 423 c 128,-1,27
 942 454 942 454 946 473 c 2,28,-1
 1053 1004 l 1,29,-1
 899 1004 l 1,30,-1
 825 633 l 2,31,32
 800 510 800 510 737 397 c 0,33,34
 672 281 672 281 591 209 c 0,35,36
 550 173 550 173 505 152 c 0,0,1
EndSplineSet
Substitution2: "<10,1> Superiors in Latin lookup 5 subtable" uni1D58
EndChar

StartChar: v
Encoding: 118 118 89
Width: 1126
Flags: W
LayerCount: 2
Fore
SplineSet
453 338 m 1,0,-1
 344 994 l 1,1,-1
 176 994 l 1,2,-1
 360 10 l 1,3,-1
 516 10 l 1,4,5
 625 102 625 102 717.5 217 c 128,-1,6
 810 332 810 332 880 461 c 128,-1,7
 950 590 950 590 994.5 725.5 c 128,-1,8
 1039 861 1039 861 1056 994 c 1,9,-1
 879 994 l 1,10,11
 868 882 868 882 840.5 769 c 128,-1,12
 813 656 813 656 765 547.5 c 128,-1,13
 717 439 717 439 650 341 c 128,-1,14
 583 243 583 243 494 163 c 2,15,-1
 480 150 l 1,16,-1
 453 338 l 1,0,-1
EndSplineSet
Substitution2: "<10,1> Superiors in Latin lookup 5 subtable" uni1D5B
EndChar

StartChar: w
Encoding: 119 119 90
Width: 1126
Flags: W
LayerCount: 2
Fore
SplineSet
648 10 m 1,0,-1
 782 10 l 1,1,2
 860 93 860 93 922.5 208.5 c 128,-1,3
 985 324 985 324 1031 457.5 c 128,-1,4
 1077 591 1077 591 1104 729 c 128,-1,5
 1131 867 1131 867 1140 994 c 1,6,-1
 988 994 l 1,7,8
 975 753 975 753 924 550 c 0,9,10
 897 442 897 442 857.5 345 c 128,-1,11
 818 248 818 248 766 170 c 2,12,-1
 752 149 l 1,13,-1
 729 307 l 1,14,-1
 659 744 l 1,15,-1
 549 744 l 1,16,-1
 312 298 l 1,17,-1
 218 120 l 1,18,-1
 238 323 l 1,19,-1
 296 994 l 1,20,-1
 148 994 l 1,21,-1
 83 10 l 1,22,-1
 279 10 l 1,23,-1
 501 419 l 1,24,-1
 572 558 l 1,25,-1
 583 421 l 1,26,-1
 648 10 l 1,0,-1
EndSplineSet
Substitution2: "<10,1> Superiors in Latin lookup 5 subtable" uni02B7
EndChar

StartChar: x
Encoding: 120 120 91
Width: 1126
Flags: W
LayerCount: 2
Fore
SplineSet
547 401 m 1,0,-1
 745 10 l 1,1,-1
 946 10 l 1,2,-1
 658 501 l 1,3,-1
 1124 994 l 1,4,-1
 929 994 l 1,5,-1
 586 600 l 1,6,-1
 395 994 l 1,7,-1
 203 994 l 1,8,-1
 469 502 l 1,9,-1
 -9 10 l 1,10,-1
 197 10 l 1,11,-1
 547 401 l 1,0,-1
EndSplineSet
EndChar

StartChar: y
Encoding: 121 121 92
Width: 1126
Flags: W
LayerCount: 2
Fore
SplineSet
-96 -274 m 1,0,-1
 -96 -411 l 1,1,2
 -43 -416 -43 -416 2.5 -416 c 128,-1,3
 48 -416 48 -416 97 -406 c 128,-1,4
 146 -396 146 -396 195.5 -369.5 c 128,-1,5
 245 -343 245 -343 299 -299 c 128,-1,6
 353 -255 353 -255 415 -186 c 0,7,8
 538 -43 538 -43 711 217 c 0,9,10
 801 346 801 346 860 450.5 c 128,-1,11
 919 555 919 555 956.5 648 c 128,-1,12
 994 741 994 741 1014 827 c 128,-1,13
 1034 913 1034 913 1046 1005 c 1,14,-1
 875 1005 l 1,15,16
 870 952 870 952 862.5 899 c 128,-1,17
 855 846 855 846 839.5 788 c 128,-1,18
 824 730 824 730 799 666 c 128,-1,19
 774 602 774 602 735 528 c 0,20,21
 653 370 653 370 516 173 c 1,22,-1
 502 152 l 1,23,-1
 473 349 l 1,24,-1
 344 1005 l 1,25,-1
 176 1005 l 1,26,-1
 378 -12 l 1,27,28
 323 -87 323 -87 278 -137.5 c 128,-1,29
 233 -188 233 -188 189.5 -220.5 c 128,-1,30
 146 -253 146 -253 102 -267.5 c 128,-1,31
 58 -282 58 -282 6 -282 c 128,-1,32
 -46 -282 -46 -282 -96 -274 c 1,0,-1
EndSplineSet
Substitution2: "<10,1> Superiors in Latin lookup 5 subtable" uni02B8
EndChar

StartChar: z
Encoding: 122 122 93
Width: 1126
Flags: W
LayerCount: 2
Fore
SplineSet
887 137 m 1,0,-1
 291 137 l 1,1,-1
 1003 873 l 1,2,-1
 1026 994 l 1,3,-1
 284 994 l 1,4,-1
 260 868 l 1,5,-1
 819 868 l 1,6,-1
 95 120 l 1,7,-1
 73 10 l 1,8,-1
 862 10 l 1,9,-1
 887 137 l 1,0,-1
EndSplineSet
Substitution2: "<10,1> Superiors in Latin lookup 5 subtable" uni1DBB
EndChar

StartChar: braceleft
Encoding: 123 123 94
Width: 1126
Flags: W
LayerCount: 2
Fore
SplineSet
350 516 m 2,0,1
 559 516 559 516 557 382 c 0,2,3
 556 349 556 349 539 318 c 0,4,5
 521 287 521 287 468 236 c 0,6,7
 447 215 447 215 422 190 c 0,8,9
 398 166 398 166 376 135 c 256,10,11
 354 104 354 104 336 66 c 0,12,13
 316 24 316 24 309 -25 c 0,14,15
 278 -221 278 -221 276 -232 c 0,16,17
 270 -252 270 -252 270 -270 c 0,18,19
 269 -276 269 -276 268 -282 c 0,20,21
 265 -331 265 -331 297 -367 c 0,22,23
 328 -402 328 -402 396 -402 c 2,24,-1
 731 -402 l 1,25,-1
 752 -293 l 1,26,-1
 384 -293 l 1,27,-1
 429 -35 l 2,28,29
 442 41 442 41 477 90 c 0,30,31
 508 133 508 133 549 175 c 0,32,33
 603 231 603 231 641 281 c 0,34,35
 680 331 680 331 682 396 c 0,36,37
 684 462 684 462 642 504 c 0,38,39
 600 547 600 547 514 556 c 1,40,-1
 510 557 l 1,41,-1
 511 573 l 1,42,-1
 515 574 l 1,43,44
 637 593 637 593 698 649 c 0,45,46
 759 706 759 706 762 791 c 0,47,48
 764 845 764 845 746 886 c 256,49,50
 728 927 728 927 709 962.5 c 128,-1,51
 690 998 690 998 676 1029.5 c 128,-1,52
 662 1061 662 1061 664 1113 c 0,53,54
 665 1132 665 1132 677 1197 c 256,55,56
 689 1262 689 1262 704 1331 c 1,57,-1
 1074 1331 l 1,58,-1
 1096 1440 l 1,59,-1
 760 1440 l 2,60,61
 684 1440 684 1440 634 1396 c 256,62,63
 584 1352 584 1352 573 1286 c 1,64,-1
 573 1286 l 1,65,66
 551 1185 551 1185 546 1143 c 0,67,68
 542 1103 542 1103 541 1096 c 0,69,70
 539 1023 539 1023 560 981 c 0,71,72
 595 915 595 915 603 901 c 0,73,74
 641 840 641 840 639 787 c 0,75,76
 637 713 637 713 568 664 c 0,77,78
 512 622 512 622 373 622 c 2,79,-1
 188 622 l 1,80,-1
 167 516 l 1,81,-1
 350 516 l 2,0,1
EndSplineSet
Substitution2: "'rtla' Right to Left Alternates in Greek lookup 0 subtable" braceright
EndChar

StartChar: bar
Encoding: 124 124 95
Width: 1126
Flags: W
LayerCount: 2
Fore
SplineSet
309 -400 m 1,0,-1
 453 -400 l 1,1,-1
 858 1628 l 1,2,-1
 715 1628 l 1,3,-1
 309 -400 l 1,0,-1
EndSplineSet
EndChar

StartChar: braceright
Encoding: 125 125 96
Width: 1126
Flags: W
LayerCount: 2
Fore
SplineSet
799 622 m 2,0,1
 587 622 587 622 592 756 c 0,2,3
 593 789 593 789 610 820 c 256,4,5
 627 851 627 851 680 902 c 0,6,7
 703 923 703 923 727 948 c 0,8,9
 783 1004 783 1004 813 1071 c 0,10,11
 831 1110 831 1110 840 1163 c 0,12,13
 854 1232 854 1232 866 1307 c 0,14,15
 867 1314 867 1314 867 1320 c 0,16,17
 869 1370 869 1370 838.5 1405 c 128,-1,18
 808 1440 808 1440 740 1440 c 2,19,-1
 405 1440 l 1,20,-1
 383 1331 l 1,21,-1
 752 1331 l 1,22,-1
 720 1173 l 2,23,24
 707 1103 707 1103 671 1048 c 0,25,26
 641 1003 641 1003 600 963 c 0,27,28
 546 907 546 907 507 857 c 0,29,30
 469 807 469 807 467 743 c 0,31,32
 465 676 465 676 506 634 c 0,33,34
 549 591 549 591 639 581 c 1,35,-1
 638 565 l 1,36,37
 512 545 512 545 451 488 c 0,38,39
 390 432 390 432 387 347 c 0,40,41
 385 293 385 293 402 252 c 0,42,43
 420 211 420 211 441 174 c 0,44,45
 457 140 457 140 472 109 c 0,46,47
 487 77 487 77 485 25 c 0,48,49
 485 19 485 19 483 9 c 0,50,51
 479 -19 479 -19 467 -85 c 0,52,53
 466 -93 466 -93 458.5 -138 c 128,-1,54
 451 -183 451 -183 443 -228.5 c 128,-1,55
 435 -274 435 -274 431 -293 c 1,56,-1
 60 -293 l 1,57,-1
 39 -402 l 1,58,-1
 374 -402 l 2,59,60
 450 -402 450 -402 500 -358 c 128,-1,61
 550 -314 550 -314 561 -248 c 0,62,63
 564 -233 564 -233 577 -152.5 c 128,-1,64
 590 -72 590 -72 593 -59 c 0,65,66
 600 -26 600 -26 606 25 c 0,67,68
 608 35 608 35 608 42 c 0,69,70
 610 115 610 115 589 156 c 0,71,72
 567 198 567 198 545 237 c 0,73,74
 508 298 508 298 509 351 c 0,75,76
 512 433 512 433 582 475 c 0,77,78
 649 516 649 516 776 516 c 2,79,-1
 961 516 l 1,80,-1
 982 622 l 1,81,-1
 799 622 l 2,0,1
EndSplineSet
Substitution2: "'rtla' Right to Left Alternates in Greek lookup 0 subtable" braceleft
EndChar

StartChar: asciitilde
Encoding: 126 126 97
Width: 1126
Flags: W
LayerCount: 2
Fore
SplineSet
350 606 m 0,0,1
 387 606 387 606 418 586.5 c 128,-1,2
 449 567 449 567 478.5 538.5 c 128,-1,3
 508 510 508 510 538.5 477 c 128,-1,4
 569 444 569 444 604 417 c 128,-1,5
 639 390 639 390 681 372 c 128,-1,6
 723 354 723 354 776 354 c 0,7,8
 847 354 847 354 901.5 379.5 c 128,-1,9
 956 405 956 405 993.5 450.5 c 128,-1,10
 1031 496 1031 496 1051.5 556.5 c 128,-1,11
 1072 617 1072 617 1075 686 c 1,12,-1
 934 686 l 1,13,14
 927 588 927 588 895 542 c 0,15,16
 860 492 860 492 788 492 c 0,17,18
 751 492 751 492 720 511.5 c 128,-1,19
 689 531 689 531 659.5 559.5 c 128,-1,20
 630 588 630 588 599 621 c 128,-1,21
 568 654 568 654 532.5 681 c 128,-1,22
 497 708 497 708 455 726 c 128,-1,23
 413 744 413 744 360 744 c 0,24,25
 291 744 291 744 238.5 718.5 c 128,-1,26
 186 693 186 693 149 647 c 128,-1,27
 112 601 112 601 91 540.5 c 128,-1,28
 70 480 70 480 66 411 c 1,29,-1
 206 411 l 1,30,31
 215 508 215 508 249 555 c 0,32,33
 286 606 286 606 350 606 c 0,0,1
EndSplineSet
EndChar

StartChar: exclamdown
Encoding: 161 161 98
Width: 1126
Flags: W
LayerCount: 2
Fore
SplineSet
516 611 m 1,0,-1
 287 -400 l 1,1,-1
 477 -400 l 1,2,-1
 650 611 l 1,3,-1
 516 611 l 1,0,-1
635 768 m 128,-1,5
 661 768 661 768 683.5 777.5 c 128,-1,6
 706 787 706 787 724 804.5 c 128,-1,7
 742 822 742 822 752 845 c 128,-1,8
 762 868 762 868 762 893 c 128,-1,9
 762 918 762 918 753 939.5 c 128,-1,10
 744 961 744 961 728.5 977 c 128,-1,11
 713 993 713 993 691 1002.5 c 128,-1,12
 669 1012 669 1012 643.5 1012 c 128,-1,13
 618 1012 618 1012 595.5 1002.5 c 128,-1,14
 573 993 573 993 555.5 976 c 128,-1,15
 538 959 538 959 528 936 c 128,-1,16
 518 913 518 913 518 888 c 128,-1,17
 518 863 518 863 527 841 c 0,18,19
 544 798 544 798 588 778 c 0,20,4
 609 768 609 768 635 768 c 128,-1,5
EndSplineSet
EndChar

StartChar: cent
Encoding: 162 162 99
Width: 1126
Flags: W
LayerCount: 2
Fore
SplineSet
735 1153 m 2,0,1
 600 1153 600 1153 492.5 1104.5 c 128,-1,2
 385 1056 385 1056 310 972 c 128,-1,3
 235 888 235 888 194 775.5 c 128,-1,4
 153 663 153 663 153 535 c 0,5,6
 153 396 153 396 216.5 308 c 128,-1,7
 280 220 280 220 410 192 c 1,8,-1
 421 189 l 1,9,-1
 278 -240 l 1,10,-1
 411 -240 l 1,11,-1
 552 180 l 1,12,-1
 559 180 l 2,13,14
 633 180 633 180 709.5 192.5 c 128,-1,15
 786 205 786 205 854 228 c 1,16,-1
 854 356 l 1,17,18
 788 331 788 331 738 321 c 0,19,20
 675 309 675 309 606 309 c 2,21,-1
 592 309 l 1,22,-1
 833 1021 l 1,23,24
 884 1012 884 1012 920 1001 c 128,-1,25
 956 990 956 990 988 975 c 1,26,-1
 1016 1112 l 1,27,28
 948 1137 948 1137 886 1145 c 2,29,-1
 874 1147 l 1,30,-1
 985 1485 l 1,31,-1
 851 1485 l 1,32,-1
 742 1153 l 1,33,-1
 735 1153 l 2,0,1
316 553 m 128,-1,35
 316 641 316 641 341.5 724 c 128,-1,36
 367 807 367 807 414.5 872.5 c 128,-1,37
 462 938 462 938 530.5 979 c 128,-1,38
 599 1020 599 1020 684 1024 c 2,39,-1
 698 1025 l 1,40,-1
 465 323 l 1,41,-1
 456 326 l 2,42,43
 383 350 383 350 349.5 407.5 c 128,-1,34
 316 465 316 465 316 553 c 128,-1,35
EndSplineSet
EndChar

StartChar: sterling
Encoding: 163 163 100
Width: 1126
Flags: W
LayerCount: 2
Fore
SplineSet
459 711 m 1,0,-1
 496 893 l 2,1,2
 527 1037 527 1037 609 1112 c 0,3,4
 650 1149 650 1149 699.5 1167.5 c 128,-1,5
 749 1186 749 1186 805 1186 c 0,6,7
 884 1186 884 1186 939 1161 c 0,8,9
 966 1149 966 1149 988 1132 c 128,-1,10
 1010 1115 1010 1115 1028 1097 c 1,11,-1
 1121 1194 l 1,12,13
 1074 1244 1074 1244 1001 1279.5 c 128,-1,14
 928 1315 928 1315 823 1315 c 0,15,16
 632 1315 632 1315 507 1210 c 0,17,18
 446 1159 446 1159 404 1082.5 c 128,-1,19
 362 1006 362 1006 342 905 c 2,20,-1
 301 711 l 1,21,-1
 141 711 l 1,22,-1
 116 588 l 1,23,-1
 276 588 l 1,24,-1
 186 137 l 1,25,-1
 26 137 l 1,26,-1
 2 10 l 1,27,-1
 887 10 l 1,28,-1
 912 137 l 1,29,-1
 344 137 l 1,30,-1
 434 588 l 1,31,-1
 871 588 l 1,32,-1
 895 711 l 1,33,-1
 459 711 l 1,0,-1
EndSplineSet
EndChar

StartChar: currency
Encoding: 164 164 101
Width: 1126
Flags: W
LayerCount: 2
Fore
SplineSet
961 674 m 128,-1,1
 971 727 971 727 971 774 c 0,2,3
 971 870 971 870 941 927 c 1,4,-1
 938 934 l 1,5,-1
 1156 1169 l 1,6,-1
 1034 1249 l 1,7,-1
 848 1027 l 1,8,-1
 841 1031 l 2,9,10
 776 1067 776 1067 676 1067 c 0,11,12
 573 1067 573 1067 485 1023 c 1,13,-1
 476 1018 l 1,14,-1
 376 1248 l 1,15,-1
 231 1167 l 1,16,-1
 364 937 l 1,17,-1
 359 931 l 1,18,19
 289 855 289 855 251 752 c 0,20,21
 213 646 213 646 213 543 c 0,22,23
 213 457 213 457 245 396 c 1,24,-1
 248 389 l 1,25,-1
 28 154 l 1,26,-1
 152 74 l 1,27,-1
 333 296 l 1,28,-1
 341 292 l 2,29,30
 408 256 408 256 508 256 c 0,31,32
 610 256 610 256 695 300 c 2,33,-1
 705 305 l 1,34,-1
 810 75 l 1,35,-1
 953 156 l 1,36,-1
 819 387 l 1,37,-1
 824 392 l 2,38,39
 859 428 859 428 886.5 474 c 128,-1,40
 914 520 914 520 932.5 570.5 c 128,-1,0
 951 621 951 621 961 674 c 128,-1,1
809 754 m 0,41,42
 809 698 809 698 792.5 634.5 c 128,-1,43
 776 571 776 571 743.5 516.5 c 128,-1,44
 711 462 711 462 660 425.5 c 128,-1,45
 609 389 609 389 541 389 c 0,46,47
 462 389 462 389 418.5 435.5 c 128,-1,48
 375 482 375 482 375 571 c 0,49,50
 375 627 375 627 392 691 c 128,-1,51
 409 755 409 755 442.5 808.5 c 128,-1,52
 476 862 476 862 526.5 898 c 128,-1,53
 577 934 577 934 645 934 c 0,54,55
 723 934 723 934 766 888.5 c 128,-1,56
 809 843 809 843 809 754 c 0,41,42
EndSplineSet
EndChar

StartChar: yen
Encoding: 165 165 102
Width: 1126
Flags: W
LayerCount: 2
Fore
SplineSet
654 563 m 1,0,-1
 663 606 l 1,1,-1
 1216 1297 l 1,2,-1
 1035 1297 l 1,3,-1
 760 938 l 1,4,-1
 605 731 l 1,5,-1
 536 937 l 1,6,-1
 403 1297 l 1,7,-1
 230 1297 l 1,8,-1
 502 603 l 1,9,-1
 493 563 l 1,10,-1
 184 563 l 1,11,-1
 162 448 l 1,12,-1
 471 448 l 1,13,-1
 434 266 l 1,14,-1
 127 266 l 1,15,-1
 104 151 l 1,16,-1
 411 151 l 1,17,-1
 383 10 l 1,18,-1
 543 10 l 1,19,-1
 572 151 l 1,20,-1
 879 151 l 1,21,-1
 901 266 l 1,22,-1
 594 266 l 1,23,-1
 631 448 l 1,24,-1
 938 448 l 1,25,-1
 961 563 l 1,26,-1
 654 563 l 1,0,-1
EndSplineSet
EndChar

StartChar: brokenbar
Encoding: 166 166 103
Width: 1126
Flags: W
LayerCount: 2
Fore
SplineSet
309 -400 m 1,0,-1
 453 -400 l 1,1,-1
 617 416 l 1,2,-1
 473 416 l 1,3,-1
 309 -400 l 1,0,-1
715 1628 m 1,4,-1
 557 837 l 1,5,-1
 701 837 l 1,6,-1
 858 1628 l 1,7,-1
 715 1628 l 1,4,-1
EndSplineSet
EndChar

StartChar: section
Encoding: 167 167 104
Width: 1126
Flags: W
LayerCount: 2
Fore
SplineSet
1045 1393 m 1,0,1
 944 1415 944 1415 822 1415 c 128,-1,2
 700 1415 700 1415 614.5 1386.5 c 128,-1,3
 529 1358 529 1358 476.5 1314 c 128,-1,4
 424 1270 424 1270 400.5 1216 c 128,-1,5
 377 1162 377 1162 377 1112 c 128,-1,6
 377 1062 377 1062 390 1031.5 c 128,-1,7
 403 1001 403 1001 421 982 c 2,8,-1
 430 972 l 1,9,-1
 419 966 l 2,10,11
 365 937 365 937 320 898 c 0,12,13
 228 818 228 818 193 722 c 0,14,15
 176 674 176 674 176 627 c 0,16,17
 176 557 176 557 209 500.5 c 128,-1,18
 242 444 242 444 292 397.5 c 128,-1,19
 342 351 342 351 401.5 311 c 128,-1,20
 461 271 461 271 512.5 234.5 c 128,-1,21
 564 198 564 198 599.5 159.5 c 128,-1,22
 635 121 635 121 635 76 c 0,23,24
 635 36 635 36 613 4 c 0,25,26
 570 -60 570 -60 459 -84 c 0,27,28
 406 -96 406 -96 342 -96 c 0,29,30
 254 -96 254 -96 192 -85 c 0,31,32
 136 -75 136 -75 71 -52 c 1,33,-1
 43 -192 l 1,34,35
 103 -208 103 -208 165 -215 c 0,36,37
 237 -223 237 -223 331.5 -223 c 128,-1,38
 426 -223 426 -223 509.5 -201.5 c 128,-1,39
 593 -180 593 -180 656 -139 c 128,-1,40
 719 -98 719 -98 756 -39.5 c 128,-1,41
 793 19 793 19 793 92 c 0,42,43
 793 134 793 134 780 166.5 c 128,-1,44
 767 199 767 199 749 218 c 2,45,-1
 740 227 l 1,46,-1
 751 234 l 2,47,48
 804 264 804 264 848 303 c 0,49,50
 937 380 937 380 972 475 c 0,51,52
 989 523 989 523 989 574 c 128,-1,53
 989 625 989 625 970 668 c 0,54,55
 934 751 934 751 849 820 c 0,56,57
 808 853 808 853 765 883 c 128,-1,58
 722 913 722 913 681 941 c 128,-1,59
 640 969 640 969 607 997.5 c 128,-1,60
 574 1026 574 1026 553.5 1056.5 c 128,-1,61
 533 1087 533 1087 533 1122 c 0,62,63
 533 1207 533 1207 606 1250 c 0,64,65
 676 1292 676 1292 809 1292 c 0,66,67
 866 1292 866 1292 916 1285 c 128,-1,68
 966 1278 966 1278 1020 1264 c 1,69,-1
 1045 1393 l 1,0,1
332 655 m 0,70,71
 332 687 332 687 345 719.5 c 128,-1,72
 358 752 358 752 381.5 781.5 c 128,-1,73
 405 811 405 811 438 837 c 128,-1,74
 471 863 471 863 515 886 c 1,75,76
 569 843 569 843 623.5 807 c 128,-1,77
 678 771 678 771 724 732 c 128,-1,78
 770 693 770 693 801.5 648.5 c 128,-1,79
 833 604 833 604 833 549 c 0,80,81
 833 482 833 482 786 419 c 256,82,83
 739 356 739 356 658 313 c 2,84,-1
 652 310 l 1,85,86
 596 352 596 352 541 389 c 128,-1,87
 486 426 486 426 439.5 466.5 c 128,-1,88
 393 507 393 507 362.5 553 c 128,-1,89
 332 599 332 599 332 655 c 0,70,71
EndSplineSet
EndChar

StartChar: dieresis
Encoding: 168 168 105
Width: 1126
Flags: W
LayerCount: 2
Fore
SplineSet
508 1395 m 0,0,1
 486 1395 486 1395 466.5 1387 c 128,-1,2
 447 1379 447 1379 432.5 1364.5 c 128,-1,3
 418 1350 418 1350 409.5 1330 c 128,-1,4
 401 1310 401 1310 401 1288.5 c 128,-1,5
 401 1267 401 1267 408 1249.5 c 128,-1,6
 415 1232 415 1232 428 1218.5 c 128,-1,7
 441 1205 441 1205 458.5 1197.5 c 128,-1,8
 476 1190 476 1190 498 1190 c 128,-1,9
 520 1190 520 1190 539 1198 c 128,-1,10
 558 1206 558 1206 574 1220 c 0,11,12
 606 1252 606 1252 606 1298 c 0,13,14
 606 1338 606 1338 579 1366.5 c 128,-1,15
 552 1395 552 1395 508 1395 c 0,0,1
938 1395 m 128,-1,17
 916 1395 916 1395 896.5 1387 c 128,-1,18
 877 1379 877 1379 862.5 1364.5 c 128,-1,19
 848 1350 848 1350 839.5 1330 c 128,-1,20
 831 1310 831 1310 831 1288.5 c 128,-1,21
 831 1267 831 1267 838 1249.5 c 128,-1,22
 845 1232 845 1232 858 1218.5 c 128,-1,23
 871 1205 871 1205 888.5 1197.5 c 128,-1,24
 906 1190 906 1190 928 1190 c 128,-1,25
 950 1190 950 1190 969.5 1198 c 128,-1,26
 989 1206 989 1206 1005 1220 c 0,27,28
 1037 1252 1037 1252 1037 1298 c 0,29,30
 1037 1318 1037 1318 1030 1335.5 c 128,-1,31
 1023 1353 1023 1353 1009.5 1366.5 c 128,-1,32
 996 1380 996 1380 978 1387.5 c 128,-1,16
 960 1395 960 1395 938 1395 c 128,-1,17
0 1004 m 1024,33,-1
EndSplineSet
EndChar

StartChar: copyright
Encoding: 169 169 106
Width: 1126
Flags: W
LayerCount: 2
Fore
SplineSet
678 1313 m 0,0,1
 577 1313 577 1313 491 1282.5 c 128,-1,2
 405 1252 405 1252 334.5 1197.5 c 128,-1,3
 264 1143 264 1143 210 1069 c 128,-1,4
 156 995 156 995 119 907.5 c 128,-1,5
 82 820 82 820 62 724 c 128,-1,6
 42 628 42 628 42 530 c 0,7,8
 42 414 42 414 72.5 315.5 c 128,-1,9
 103 217 103 217 161 145.5 c 128,-1,10
 219 74 219 74 304 34 c 128,-1,11
 389 -6 389 -6 499.5 -6 c 128,-1,12
 610 -6 610 -6 700.5 29 c 128,-1,13
 791 64 791 64 861.5 122.5 c 128,-1,14
 932 181 932 181 984.5 259.5 c 128,-1,15
 1037 338 1037 338 1071 424.5 c 128,-1,16
 1105 511 1105 511 1122 600.5 c 128,-1,17
 1139 690 1139 690 1139 772 c 0,18,19
 1139 889 1139 889 1108 988.5 c 128,-1,20
 1077 1088 1077 1088 1018.5 1160 c 128,-1,21
 960 1232 960 1232 874.5 1272.5 c 128,-1,22
 789 1313 789 1313 678 1313 c 0,0,1
385.5 1098 m 128,-1,24
 440 1146 440 1146 507.5 1174 c 128,-1,25
 575 1202 575 1202 659 1202 c 128,-1,26
 743 1202 743 1202 809.5 1168.5 c 128,-1,27
 876 1135 876 1135 920.5 1076 c 128,-1,28
 965 1017 965 1017 988 935 c 128,-1,29
 1011 853 1011 853 1011 758 c 0,30,31
 1011 680 1011 680 996 602 c 0,32,33
 966 439 966 439 884 315 c 0,34,35
 799 186 799 186 666 132 c 0,36,37
 599 105 599 105 517.5 105 c 128,-1,38
 436 105 436 105 370 137.5 c 128,-1,39
 304 170 304 170 260 228.5 c 128,-1,40
 216 287 216 287 193 367 c 128,-1,41
 170 447 170 447 170 541 c 0,42,43
 170 617 170 617 183 695 c 0,44,45
 210 858 210 858 291 985 c 0,46,23
 331 1050 331 1050 385.5 1098 c 128,-1,24
459 572 m 0,47,48
 459 612 459 612 470 664 c 128,-1,49
 481 716 481 716 507 761.5 c 128,-1,50
 533 807 533 807 578.5 839 c 128,-1,51
 624 871 624 871 694 871 c 128,-1,52
 764 871 764 871 822 843 c 1,53,-1
 845 950 l 1,54,55
 780 977 780 977 690 977 c 128,-1,56
 600 977 600 977 531.5 940 c 128,-1,57
 463 903 463 903 417 843.5 c 128,-1,58
 371 784 371 784 348 708.5 c 128,-1,59
 325 633 325 633 325 555 c 0,60,61
 325 444 325 444 384 386.5 c 128,-1,62
 443 329 443 329 563 329 c 0,63,64
 653 329 653 329 738 359 c 1,65,-1
 738 461 l 1,66,67
 707 450 707 450 674 442.5 c 128,-1,68
 641 435 641 435 602 435 c 0,69,70
 530 435 530 435 494.5 468.5 c 128,-1,71
 459 502 459 502 459 572 c 0,47,48
EndSplineSet
EndChar

StartChar: ordfeminine
Encoding: 170 170 107
Width: 1126
Flags: W
LayerCount: 2
Fore
SplineSet
229 484 m 1,0,-1
 207 368 l 1,1,-1
 862 368 l 1,2,-1
 887 484 l 1,3,-1
 229 484 l 1,0,-1
375.5 682.5 m 128,-1,5
 424 624 424 624 518 624 c 0,6,7
 595 624 595 624 664 669 c 0,8,9
 695 689 695 689 718 713 c 128,-1,10
 741 737 741 737 756 759 c 2,11,-1
 775 789 l 1,12,-1
 770 641 l 1,13,-1
 880 641 l 1,14,15
 895 800 895 800 900 839 c 0,16,17
 906 895 906 895 916 948 c 2,18,-1
 988 1310 l 1,19,-1
 886 1288 l 1,20,21
 819 1311 819 1311 724.5 1311 c 128,-1,22
 630 1311 630 1311 556.5 1277 c 128,-1,23
 483 1243 483 1243 432 1182 c 128,-1,24
 381 1121 381 1121 354 1036 c 128,-1,25
 327 951 327 951 327 850 c 0,26,4
 327 741 327 741 375.5 682.5 c 128,-1,5
631 765.5 m 128,-1,28
 593 738 593 738 559 738 c 0,29,30
 517 738 517 738 495 771.5 c 128,-1,31
 473 805 473 805 473 862 c 0,32,33
 473 930 473 930 493 1001 c 0,34,35
 518 1090 518 1090 567 1141 c 0,36,37
 595 1171 595 1171 632.5 1185 c 128,-1,38
 670 1199 670 1199 720 1199 c 0,39,40
 764 1199 764 1199 817 1185 c 2,41,-1
 826 1182 l 1,42,-1
 794 1022 l 2,43,44
 786 976 786 976 760 926 c 128,-1,45
 734 876 734 876 701.5 834.5 c 128,-1,27
 669 793 669 793 631 765.5 c 128,-1,28
EndSplineSet
EndChar

StartChar: guillemotleft
Encoding: 171 171 108
Width: 1126
Flags: W
LayerCount: 2
Fore
SplineSet
464 208 m 1,0,-1
 316 541 l 1,1,-1
 597 869 l 1,2,-1
 485 933 l 1,3,-1
 162 547 l 1,4,-1
 339 150 l 1,5,-1
 464 208 l 1,0,-1
897 216 m 1,6,-1
 731 541 l 1,7,-1
 1027 864 l 1,8,-1
 922 929 l 1,9,-1
 581 547 l 1,10,-1
 777 156 l 1,11,-1
 897 216 l 1,6,-1
EndSplineSet
EndChar

StartChar: logicalnot
Encoding: 172 172 109
Width: 1126
Flags: W
LayerCount: 2
Fore
SplineSet
745 184 m 1,0,-1
 895 184 l 1,1,-1
 981 611 l 1,2,-1
 147 611 l 1,3,-1
 121 479 l 1,4,-1
 805 479 l 1,5,-1
 745 184 l 1,0,-1
EndSplineSet
EndChar

StartChar: registered
Encoding: 174 174 110
Width: 1126
Flags: W
LayerCount: 2
Fore
SplineSet
580 934 m 1,0,-1
 600 934 l 2,1,2
 630 934 630 934 647 920 c 0,3,4
 665 905 665 905 672 879 c 2,5,-1
 710 719 l 1,6,-1
 804 719 l 1,7,-1
 760 874 l 2,8,9
 750 907 750 907 739.5 921.5 c 128,-1,10
 729 936 729 936 714 940 c 2,11,-1
 663 955 l 1,12,-1
 716 960 l 2,13,14
 743 963 743 963 768 975.5 c 128,-1,15
 793 988 793 988 811.5 1008 c 128,-1,16
 830 1028 830 1028 841 1055 c 128,-1,17
 852 1082 852 1082 852 1112 c 0,18,19
 852 1169 852 1169 810 1193 c 0,20,21
 764 1219 764 1219 688 1219 c 2,22,-1
 549 1219 l 1,23,-1
 448 719 l 1,24,-1
 529 719 l 1,25,-1
 572 934 l 1,26,-1
 580 934 l 1,0,-1
766 1094 m 0,27,28
 766 1047 766 1047 731.5 1019 c 128,-1,29
 697 991 697 991 637 991 c 2,30,-1
 596 991 l 1,31,-1
 584 991 l 1,32,-1
 617 1157 l 1,33,-1
 670 1157 l 2,34,35
 716 1157 716 1157 739 1144 c 0,36,37
 766 1129 766 1129 766 1094 c 0,27,28
532.5 1304 m 128,-1,39
 600 1333 600 1333 673.5 1333 c 128,-1,40
 747 1333 747 1333 808 1305 c 128,-1,41
 869 1277 869 1277 913 1231 c 128,-1,42
 957 1185 957 1185 981 1125.5 c 128,-1,43
 1005 1066 1005 1066 1005 1004 c 0,44,45
 1005 915 1005 915 974 841 c 128,-1,46
 943 767 943 767 891.5 715 c 128,-1,47
 840 663 840 663 772 633.5 c 128,-1,48
 704 604 704 604 630.5 604 c 128,-1,49
 557 604 557 604 496 632.5 c 128,-1,50
 435 661 435 661 391.5 707.5 c 128,-1,51
 348 754 348 754 324.5 814 c 128,-1,52
 301 874 301 874 301 938 c 0,53,54
 301 1025 301 1025 332 1098 c 128,-1,55
 363 1171 363 1171 414 1223 c 128,-1,38
 465 1275 465 1275 532.5 1304 c 128,-1,39
849 1381 m 128,-1,57
 772 1415 772 1415 679.5 1415 c 128,-1,58
 587 1415 587 1415 502 1379.5 c 128,-1,59
 417 1344 417 1344 351 1280 c 128,-1,60
 285 1216 285 1216 246 1128 c 128,-1,61
 207 1040 207 1040 207 934 c 0,62,63
 207 855 207 855 238 780.5 c 128,-1,64
 269 706 269 706 324 648.5 c 128,-1,65
 379 591 379 591 455.5 556.5 c 128,-1,66
 532 522 532 522 624.5 522 c 128,-1,67
 717 522 717 522 803 558 c 128,-1,68
 889 594 889 594 955 658.5 c 128,-1,69
 1021 723 1021 723 1060 811.5 c 128,-1,70
 1099 900 1099 900 1099 1006 c 0,71,72
 1099 1085 1099 1085 1068.5 1158.5 c 128,-1,73
 1038 1232 1038 1232 982 1289.5 c 128,-1,56
 926 1347 926 1347 849 1381 c 128,-1,57
EndSplineSet
EndChar

StartChar: macron
Encoding: 175 175 111
AltUni2: 0002c9.ffffffff.0
Width: 1126
Flags: W
LayerCount: 2
Fore
SplineSet
993 1358 m 1,0,-1
 967 1225 l 1,1,-1
 442 1225 l 1,2,-1
 469 1358 l 1,3,-1
 993 1358 l 1,0,-1
0 1004 m 1024,4,-1
EndSplineSet
EndChar

StartChar: degree
Encoding: 176 176 112
Width: 1126
Flags: W
LayerCount: 2
Fore
SplineSet
1019 1157 m 0,0,1
 1019 1207 1019 1207 1005 1253 c 128,-1,2
 991 1299 991 1299 958.5 1335 c 128,-1,3
 926 1371 926 1371 872 1393 c 128,-1,4
 818 1415 818 1415 739 1415 c 128,-1,5
 660 1415 660 1415 587.5 1388.5 c 128,-1,6
 515 1362 515 1362 459 1311.5 c 128,-1,7
 403 1261 403 1261 369.5 1187 c 128,-1,8
 336 1113 336 1113 336 1018 c 0,9,10
 336 971 336 971 349.5 925.5 c 128,-1,11
 363 880 363 880 395.5 844 c 128,-1,12
 428 808 428 808 481.5 786 c 128,-1,13
 535 764 535 764 614 764 c 128,-1,14
 693 764 693 764 766 790.5 c 128,-1,15
 839 817 839 817 895 867.5 c 128,-1,16
 951 918 951 918 985 991 c 128,-1,17
 1019 1064 1019 1064 1019 1157 c 0,0,1
876 1155 m 0,18,19
 876 1085 876 1085 856.5 1033.5 c 128,-1,20
 837 982 837 982 803.5 947 c 128,-1,21
 770 912 770 912 727 895.5 c 128,-1,22
 684 879 684 879 634.5 879 c 128,-1,23
 585 879 585 879 553 894 c 128,-1,24
 521 909 521 909 505 932 c 128,-1,25
 489 955 489 955 484 980 c 128,-1,26
 479 1005 479 1005 479 1024 c 0,27,28
 479 1096 479 1096 498.5 1148 c 128,-1,29
 518 1200 518 1200 551 1234.5 c 128,-1,30
 584 1269 584 1269 627 1284.5 c 128,-1,31
 670 1300 670 1300 719.5 1300 c 128,-1,32
 769 1300 769 1300 800.5 1285 c 128,-1,33
 832 1270 832 1270 849 1247.5 c 128,-1,34
 866 1225 866 1225 871 1200 c 128,-1,35
 876 1175 876 1175 876 1155 c 0,18,19
EndSplineSet
EndChar

StartChar: plusminus
Encoding: 177 177 113
Width: 1126
Flags: W
LayerCount: 2
Fore
SplineSet
674 694 m 1,0,-1
 1049 694 l 1,1,-1
 1073 821 l 1,2,-1
 699 821 l 1,3,-1
 776 1209 l 1,4,-1
 629 1209 l 1,5,-1
 551 821 l 1,6,-1
 176 821 l 1,7,-1
 151 694 l 1,8,-1
 526 694 l 1,9,-1
 448 305 l 1,10,-1
 596 305 l 1,11,-1
 674 694 l 1,0,-1
43 10 m 1,12,-1
 883 10 l 1,13,-1
 908 135 l 1,14,-1
 67 135 l 1,15,-1
 43 10 l 1,12,-1
EndSplineSet
EndChar

StartChar: acute
Encoding: 180 180 116
Width: 1126
Flags: W
LayerCount: 2
Fore
SplineSet
769 1181 m 1,0,-1
 1073 1403 l 1,1,-1
 856 1403 l 1,2,-1
 623 1181 l 1,3,-1
 769 1181 l 1,0,-1
0 1004 m 1024,4,-1
EndSplineSet
EndChar

StartChar: paragraph
Encoding: 182 182 118
Width: 1126
Flags: W
LayerCount: 2
Fore
SplineSet
813 1403 m 2,0,1
 657 1403 657 1403 543 1364 c 128,-1,2
 429 1325 429 1325 355.5 1258.5 c 128,-1,3
 282 1192 282 1192 246.5 1102.5 c 128,-1,4
 211 1013 211 1013 211 911 c 0,5,6
 211 756 211 756 316 672 c 0,7,8
 371 629 371 629 456 605.5 c 128,-1,9
 541 582 541 582 660 581 c 1,10,-1
 799 1280 l 1,11,-1
 987 1280 l 1,12,-1
 770 197 l 2,13,14
 756 126 756 126 725.5 71.5 c 128,-1,15
 695 17 695 17 652.5 -20 c 128,-1,16
 610 -57 610 -57 557.5 -75.5 c 128,-1,17
 505 -94 505 -94 446 -94 c 0,18,19
 372 -94 372 -94 310 -66.5 c 128,-1,20
 248 -39 248 -39 206 3 c 1,21,-1
 122 -110 l 1,22,23
 180 -162 180 -162 256.5 -192.5 c 128,-1,24
 333 -223 333 -223 430 -223 c 128,-1,25
 527 -223 527 -223 609 -198 c 0,26,27
 861 -118 861 -118 922 186 c 2,28,-1
 1166 1403 l 1,29,-1
 813 1403 l 2,0,1
EndSplineSet
EndChar

StartChar: periodcentered
Encoding: 183 183 119
AltUni2: 002219.ffffffff.0
Width: 1126
Flags: W
LayerCount: 2
Fore
SplineSet
723.5 612.5 m 128,-1,1
 735 583 735 583 735 549 c 128,-1,2
 735 515 735 515 721 483.5 c 128,-1,3
 707 452 707 452 683.5 429 c 128,-1,4
 660 406 660 406 628.5 392.5 c 128,-1,5
 597 379 597 379 562.5 379 c 128,-1,6
 528 379 528 379 499 392 c 128,-1,7
 470 405 470 405 448.5 427.5 c 128,-1,8
 427 450 427 450 415 478.5 c 128,-1,9
 403 507 403 507 403 541.5 c 128,-1,10
 403 576 403 576 417 607.5 c 128,-1,11
 431 639 431 639 455 662.5 c 128,-1,12
 479 686 479 686 510 699.5 c 128,-1,13
 541 713 541 713 576 713 c 128,-1,14
 611 713 611 713 640.5 700 c 128,-1,15
 670 687 670 687 691 664.5 c 128,-1,0
 712 642 712 642 723.5 612.5 c 128,-1,1
EndSplineSet
EndChar

StartChar: cedilla
Encoding: 184 184 120
Width: 1126
Flags: W
LayerCount: 2
Fore
SplineSet
420 -285 m 1,0,-1
 555 -10 l 1,1,-1
 406 -10 l 1,2,-1
 289 -285 l 1,3,-1
 420 -285 l 1,0,-1
EndSplineSet
EndChar

StartChar: ordmasculine
Encoding: 186 186 122
Width: 1126
Flags: W
LayerCount: 2
Fore
SplineSet
229 484 m 1,0,-1
 207 368 l 1,1,-1
 862 368 l 1,2,-1
 885 484 l 1,3,-1
 229 484 l 1,0,-1
477 641 m 0,4,5
 529 626 529 626 590 626 c 0,6,7
 691 626 691 626 767.5 663 c 128,-1,8
 844 700 844 700 895.5 761.5 c 128,-1,9
 947 823 947 823 973.5 902.5 c 128,-1,10
 1000 982 1000 982 1000 1065 c 0,11,12
 1000 1128 1000 1128 979 1174 c 0,13,14
 938 1266 938 1266 833 1296 c 0,15,16
 781 1311 781 1311 719 1311 c 0,17,18
 618 1311 618 1311 541.5 1274 c 128,-1,19
 465 1237 465 1237 413.5 1175.5 c 128,-1,20
 362 1114 362 1114 335.5 1034.5 c 128,-1,21
 309 955 309 955 309 872 c 0,22,23
 309 809 309 809 330 763 c 0,24,25
 371 672 371 672 477 641 c 0,4,5
837.5 1111.5 m 128,-1,27
 850 1084 850 1084 850 1049 c 0,28,29
 850 1004 850 1004 837 950.5 c 128,-1,30
 824 897 824 897 795.5 851 c 128,-1,31
 767 805 767 805 721.5 773.5 c 128,-1,32
 676 742 676 742 612 742 c 0,33,34
 580 742 580 742 552.5 751.5 c 128,-1,35
 525 761 525 761 504 780 c 128,-1,36
 483 799 483 799 471 826.5 c 128,-1,37
 459 854 459 854 459 889 c 0,38,39
 459 934 459 934 472.5 987.5 c 128,-1,40
 486 1041 486 1041 514.5 1087 c 128,-1,41
 543 1133 543 1133 588 1164 c 128,-1,42
 633 1195 633 1195 696 1195 c 0,43,44
 728 1195 728 1195 755.5 1185.5 c 128,-1,45
 783 1176 783 1176 804 1157.5 c 128,-1,26
 825 1139 825 1139 837.5 1111.5 c 128,-1,27
EndSplineSet
EndChar

StartChar: guillemotright
Encoding: 187 187 123
Width: 1126
Flags: W
LayerCount: 2
Fore
SplineSet
675 876 m 1,0,-1
 823 543 l 1,1,-1
 541 214 l 1,2,-1
 653 150 l 1,3,-1
 977 537 l 1,4,-1
 800 933 l 1,5,-1
 675 876 l 1,0,-1
241 867 m 1,6,-1
 407 543 l 1,7,-1
 112 219 l 1,8,-1
 217 154 l 1,9,-1
 557 537 l 1,10,-1
 362 927 l 1,11,-1
 241 867 l 1,6,-1
EndSplineSet
EndChar

StartChar: onequarter
Encoding: 188 188 124
Width: 1126
Flags: W
LayerCount: 2
Fore
SplineSet
81 10 m 1,0,-1
 1268 1403 l 1,1,-1
 1121 1403 l 1,2,-1
 -64 10 l 1,3,-1
 81 10 l 1,0,-1
218 1185 m 1,4,-1
 409 1280 l 1,5,-1
 323 854 l 1,6,-1
 463 854 l 1,7,-1
 576 1415 l 1,8,-1
 448 1415 l 1,9,-1
 192 1291 l 1,10,-1
 218 1185 l 1,4,-1
897 119 m 1,11,-1
 987 119 l 1,12,-1
 1008 221 l 1,13,-1
 918 221 l 1,14,-1
 985 559 l 1,15,-1
 763 559 l 1,16,-1
 486 227 l 1,17,-1
 465 119 l 1,18,-1
 764 119 l 1,19,-1
 743 10 l 1,20,-1
 877 10 l 1,21,-1
 897 119 l 1,11,-1
614 221 m 1,22,-1
 839 494 l 1,23,-1
 784 221 l 1,24,-1
 614 221 l 1,22,-1
EndSplineSet
EndChar

StartChar: onehalf
Encoding: 189 189 125
Width: 1126
Flags: W
LayerCount: 2
Fore
SplineSet
1028 428 m 0,0,1
 1028 494 1028 494 981 534 c 128,-1,2
 934 574 934 574 850 574 c 0,3,4
 755 574 755 574 681 528 c 0,5,6
 660 515 660 515 638 499 c 1,7,-1
 683 416 l 1,8,9
 721 443 721 443 752 457 c 128,-1,10
 783 471 783 471 815.5 471 c 128,-1,11
 848 471 848 471 865 459 c 0,12,13
 889 443 889 443 889 406 c 128,-1,14
 889 369 889 369 862.5 338.5 c 128,-1,15
 836 308 836 308 782 271 c 2,16,-1
 570 119 l 1,17,-1
 549 10 l 1,18,-1
 969 10 l 1,19,-1
 989 115 l 1,20,-1
 724 115 l 1,21,-1
 820 176 l 2,22,23
 872 210 872 210 911.5 239.5 c 128,-1,24
 951 269 951 269 976.5 298 c 128,-1,25
 1002 327 1002 327 1015 358.5 c 128,-1,26
 1028 390 1028 390 1028 428 c 0,0,1
81 10 m 1,27,-1
 1268 1403 l 1,28,-1
 1121 1403 l 1,29,-1
 -64 10 l 1,30,-1
 81 10 l 1,27,-1
218 1185 m 1,31,-1
 409 1280 l 1,32,-1
 323 854 l 1,33,-1
 463 854 l 1,34,-1
 576 1415 l 1,35,-1
 448 1415 l 1,36,-1
 192 1291 l 1,37,-1
 218 1185 l 1,31,-1
EndSplineSet
EndChar

StartChar: threequarters
Encoding: 190 190 126
Width: 1126
Flags: W
LayerCount: 2
Fore
SplineSet
272 1305 m 1,0,1
 323 1319 323 1319 369 1319 c 0,2,3
 411 1319 411 1319 431 1302 c 0,4,5
 448 1287 448 1287 448 1268 c 0,6,7
 448 1235 448 1235 422 1208.5 c 128,-1,8
 396 1182 396 1182 336 1182 c 2,9,-1
 266 1182 l 1,10,-1
 248 1089 l 1,11,-1
 330 1089 l 2,12,13
 385 1089 385 1089 406.5 1074.5 c 128,-1,14
 428 1060 428 1060 428 1032 c 0,15,16
 428 993 428 993 393 966.5 c 128,-1,17
 358 940 358 940 283 940 c 0,18,19
 230 940 230 940 184 949 c 1,20,-1
 164 850 l 1,21,22
 184 845 184 845 215.5 842 c 128,-1,23
 247 839 247 839 276 839 c 0,24,25
 368 839 368 839 427.5 860.5 c 128,-1,26
 487 882 487 882 521 913 c 128,-1,27
 555 944 555 944 568.5 979.5 c 128,-1,28
 582 1015 582 1015 582 1044 c 0,29,30
 582 1095 582 1095 538 1122 c 0,31,32
 521 1133 521 1133 496 1137 c 2,33,-1
 460 1144 l 1,34,-1
 495 1156 l 2,35,36
 566 1182 566 1182 590 1250 c 0,37,38
 598 1275 598 1275 598 1305 c 0,39,40
 598 1326 598 1326 588 1346 c 0,41,42
 568 1388 568 1388 504 1407 c 0,43,44
 471 1417 471 1417 422 1417 c 0,45,46
 338 1417 338 1417 272 1398 c 1,47,-1
 272 1305 l 1,0,1
81 10 m 1,48,-1
 1268 1403 l 1,49,-1
 1121 1403 l 1,50,-1
 -64 10 l 1,51,-1
 81 10 l 1,48,-1
897 119 m 1,52,-1
 987 119 l 1,53,-1
 1008 221 l 1,54,-1
 918 221 l 1,55,-1
 985 559 l 1,56,-1
 763 559 l 1,57,-1
 486 227 l 1,58,-1
 465 119 l 1,59,-1
 764 119 l 1,60,-1
 743 10 l 1,61,-1
 877 10 l 1,62,-1
 897 119 l 1,52,-1
614 221 m 1,63,-1
 839 494 l 1,64,-1
 784 221 l 1,65,-1
 614 221 l 1,63,-1
EndSplineSet
EndChar

StartChar: questiondown
Encoding: 191 191 127
Width: 1126
Flags: W
LayerCount: 2
Fore
SplineSet
214 251 m 128,-1,1
 162 200 162 200 135 131.5 c 128,-1,2
 108 63 108 63 108 -14.5 c 128,-1,3
 108 -92 108 -92 138.5 -161 c 128,-1,4
 169 -230 169 -230 231 -283 c 128,-1,5
 293 -336 293 -336 388 -368 c 128,-1,6
 483 -400 483 -400 612 -400 c 2,7,-1
 629 -400 l 1,8,-1
 656 -264 l 1,9,-1
 635 -264 l 2,10,11
 559 -264 559 -264 494 -248.5 c 128,-1,12
 429 -233 429 -233 381.5 -201 c 128,-1,13
 334 -169 334 -169 307.5 -120 c 128,-1,14
 281 -71 281 -71 281 -4 c 0,15,16
 281 32 281 32 291.5 76.5 c 128,-1,17
 302 121 302 121 333 159 c 128,-1,18
 364 197 364 197 420 222.5 c 128,-1,19
 476 248 476 248 565 248 c 2,20,-1
 662 248 l 1,21,-1
 721 611 l 1,22,-1
 590 611 l 1,23,-1
 534 365 l 1,24,-1
 526 365 l 2,25,26
 423 362 423 362 344.5 332 c 128,-1,0
 266 302 266 302 214 251 c 128,-1,1
621.5 803.5 m 128,-1,28
 637 787 637 787 658 777.5 c 128,-1,29
 679 768 679 768 704.5 768 c 128,-1,30
 730 768 730 768 753 777.5 c 128,-1,31
 776 787 776 787 794 804.5 c 128,-1,32
 812 822 812 822 822 845 c 128,-1,33
 832 868 832 868 832 893 c 128,-1,34
 832 918 832 918 823 940 c 0,35,36
 806 982 806 982 760 1002 c 0,37,38
 739 1012 739 1012 713.5 1012 c 128,-1,39
 688 1012 688 1012 665.5 1002.5 c 128,-1,40
 643 993 643 993 625.5 976 c 128,-1,41
 608 959 608 959 598 936 c 128,-1,42
 588 913 588 913 588 888 c 128,-1,43
 588 863 588 863 597 841.5 c 128,-1,27
 606 820 606 820 621.5 803.5 c 128,-1,28
EndSplineSet
EndChar

StartChar: AE
Encoding: 198 198 134
Width: 1126
Flags: W
LayerCount: 2
Fore
SplineSet
664 133 m 1,0,-1
 760 616 l 1,1,-1
 1067 616 l 1,2,-1
 1092 738 l 1,3,-1
 785 738 l 1,4,-1
 873 1175 l 1,5,-1
 1194 1175 l 1,6,-1
 1219 1297 l 1,7,-1
 655 1297 l 1,8,-1
 -127 10 l 1,9,-1
 25 10 l 1,10,-1
 189 291 l 1,11,-1
 549 291 l 1,12,-1
 493 10 l 1,13,-1
 975 10 l 1,14,-1
 1000 133 l 1,15,-1
 664 133 l 1,0,-1
573 414 m 1,16,-1
 262 414 l 1,17,-1
 737 1224 l 1,18,-1
 573 414 l 1,16,-1
EndSplineSet
EndChar

StartChar: Ccedilla
Encoding: 199 199 135
Width: 1126
Flags: W
LayerCount: 2
Fore
SplineSet
1103 1108 m 1,0,-1
 1134 1263 l 1,1,2
 1008 1323 1008 1323 827 1323 c 0,3,4
 703 1323 703 1323 601.5 1284.5 c 128,-1,5
 500 1246 500 1246 420 1180.5 c 128,-1,6
 340 1115 340 1115 281 1027.5 c 128,-1,7
 222 940 222 940 183 841.5 c 128,-1,8
 144 743 144 743 125 640 c 128,-1,9
 106 537 106 537 106 441 c 0,10,11
 106 258 106 258 183 149 c 128,-1,12
 260 40 260 40 415 3 c 1,13,-1
 427 1 l 1,14,-1
 303 -295 l 1,15,-1
 434 -295 l 1,16,-1
 571 -16 l 1,17,18
 661 -15 661 -15 737 1 c 128,-1,19
 813 17 813 17 894 47 c 1,20,-1
 922 193 l 1,21,22
 852 163 852 163 769.5 144 c 128,-1,23
 687 125 687 125 602 125 c 0,24,25
 423 125 423 125 343 231 c 0,26,27
 279 315 279 315 279 464 c 0,28,29
 279 538 279 538 292 619.5 c 128,-1,30
 305 701 305 701 332.5 780.5 c 128,-1,31
 360 860 360 860 403 933 c 128,-1,32
 446 1006 446 1006 506 1061 c 128,-1,33
 566 1116 566 1116 643.5 1149.5 c 128,-1,34
 721 1183 721 1183 814.5 1183 c 128,-1,35
 908 1183 908 1183 976 1163 c 128,-1,36
 1044 1143 1044 1143 1103 1108 c 1,0,-1
EndSplineSet
EndChar

StartChar: Eth
Encoding: 208 208 144
Width: 1126
Flags: W
LayerCount: 2
Fore
SplineSet
307 1297 m 1,0,-1
 194 742 l 1,1,-1
 55 742 l 1,2,-1
 30 612 l 1,3,-1
 170 612 l 1,4,-1
 49 10 l 1,5,-1
 330 10 l 2,6,7
 459 10 459 10 560 38 c 0,8,9
 755 92 755 92 873 224 c 0,10,11
 982 345 982 345 1033 501 c 0,12,13
 1080 644 1080 644 1090 768 c 0,14,15
 1094 826 1094 826 1094 866 c 0,16,17
 1094 1087 1094 1087 973 1192 c 128,-1,18
 852 1297 852 1297 612 1297 c 2,19,-1
 307 1297 l 1,0,-1
909 999 m 0,20,21
 930 941 930 941 930 858 c 0,22,23
 930 708 930 708 885 556 c 0,24,25
 845 424 845 424 765 325 c 0,26,27
 722 272 722 272 662.5 231.5 c 128,-1,28
 603 191 603 191 526 167.5 c 128,-1,29
 449 144 449 144 352 144 c 2,30,-1
 234 144 l 1,31,-1
 328 612 l 1,32,-1
 553 612 l 1,33,-1
 578 742 l 1,34,-1
 353 742 l 1,35,-1
 438 1167 l 1,36,-1
 592 1167 l 2,37,38
 675 1167 675 1167 739 1150 c 0,39,40
 867 1116 867 1116 909 999 c 0,20,21
EndSplineSet
EndChar

StartChar: multiply
Encoding: 215 215 151
Width: 1126
Flags: W
LayerCount: 2
Fore
SplineSet
912 239 m 1,0,-1
 668 542 l 1,1,-1
 1028 843 l 1,2,-1
 945 944 l 1,3,-1
 585 643 l 1,4,-1
 342 944 l 1,5,-1
 227 851 l 1,6,-1
 471 548 l 1,7,-1
 110 247 l 1,8,-1
 194 145 l 1,9,-1
 554 446 l 1,10,-1
 796 145 l 1,11,-1
 912 239 l 1,0,-1
EndSplineSet
EndChar

StartChar: Oslash
Encoding: 216 216 152
Width: 1126
Flags: W
LayerCount: 2
Fore
SplineSet
400 -14 m 128,-1,1
 431 -18 431 -18 465 -18 c 0,2,3
 575 -18 575 -18 666 20.5 c 128,-1,4
 757 59 757 59 828.5 125 c 128,-1,5
 900 191 900 191 954 280 c 128,-1,6
 1008 369 1008 369 1043.5 470 c 128,-1,7
 1079 571 1079 571 1096.5 678 c 128,-1,8
 1114 785 1114 785 1114 887 c 0,9,10
 1114 1016 1114 1016 1076 1108 c 128,-1,11
 1038 1200 1038 1200 963 1253 c 2,12,-1
 956 1258 l 1,13,-1
 1086 1522 l 1,14,-1
 954 1522 l 1,15,-1
 849 1309 l 1,16,17
 814 1319 814 1319 784.5 1322 c 128,-1,18
 755 1325 755 1325 721 1325 c 0,19,20
 611 1325 611 1325 520 1286 c 128,-1,21
 429 1247 429 1247 357 1181 c 128,-1,22
 285 1115 285 1115 231 1026 c 128,-1,23
 177 937 177 937 141.5 836.5 c 128,-1,24
 106 736 106 736 88.5 629 c 128,-1,25
 71 522 71 522 71 420 c 0,26,27
 71 163 71 163 219 53 c 1,28,-1
 226 47 l 1,29,-1
 96 -215 l 1,30,-1
 227 -215 l 1,31,-1
 332 -3 l 1,32,0
 369 -10 369 -10 400 -14 c 128,-1,1
885 1109 m 1,33,-1
 895 1096 l 2,34,35
 952 1019 952 1019 952 875 c 0,36,37
 952 807 952 807 941 727 c 128,-1,38
 930 647 930 647 905.5 564.5 c 128,-1,39
 881 482 881 482 844.5 404 c 128,-1,40
 808 326 808 326 756 264 c 128,-1,41
 704 202 704 202 636.5 164.5 c 128,-1,42
 569 127 569 127 485 127 c 0,43,44
 443 127 443 127 412 133 c 2,45,-1
 399 136 l 1,46,-1
 885 1109 l 1,33,-1
297 200 m 1,47,-1
 287 213 l 2,48,49
 258 253 258 253 246 309 c 128,-1,50
 234 365 234 365 234 432 c 128,-1,51
 234 499 234 499 245 579 c 128,-1,52
 256 659 256 659 280.5 741.5 c 128,-1,53
 305 824 305 824 341.5 902 c 128,-1,54
 378 980 378 980 430 1042 c 128,-1,55
 482 1104 482 1104 549 1141.5 c 128,-1,56
 616 1179 616 1179 700 1179 c 0,57,58
 739 1179 739 1179 770 1173 c 2,59,-1
 783 1170 l 1,60,-1
 297 200 l 1,47,-1
EndSplineSet
EndChar

StartChar: Thorn
Encoding: 222 222 158
Width: 1126
Flags: W
LayerCount: 2
Fore
SplineSet
225 10 m 1,0,-1
 275 264 l 1,1,-1
 457 264 l 2,2,3
 567 264 567 264 654 289 c 128,-1,4
 741 314 741 314 806.5 356 c 128,-1,5
 872 398 872 398 919 452 c 128,-1,6
 966 506 966 506 995 563.5 c 128,-1,7
 1024 621 1024 621 1037.5 677.5 c 128,-1,8
 1051 734 1051 734 1051 782 c 0,9,10
 1051 864 1051 864 1019 925 c 0,11,12
 955 1044 955 1044 797 1083 c 0,13,14
 719 1102 719 1102 629 1102 c 2,15,-1
 443 1102 l 1,16,-1
 482 1297 l 1,17,-1
 323 1297 l 1,18,-1
 67 10 l 1,19,-1
 225 10 l 1,0,-1
817.5 918 m 128,-1,21
 884 863 884 863 884 758 c 0,22,23
 884 726 884 726 876.5 687 c 128,-1,24
 869 648 869 648 850.5 607.5 c 128,-1,25
 832 567 832 567 801.5 528.5 c 128,-1,26
 771 490 771 490 725 460 c 128,-1,27
 679 430 679 430 616.5 411.5 c 128,-1,28
 554 393 554 393 473 393 c 2,29,-1
 301 393 l 1,30,-1
 418 973 l 1,31,-1
 612 973 l 2,32,20
 751 973 751 973 817.5 918 c 128,-1,21
EndSplineSet
EndChar

StartChar: germandbls
Encoding: 223 223 159
Width: 1126
Flags: W
LayerCount: 2
Fore
SplineSet
426 152 m 1,0,-1
 399 0 l 1,1,2
 469 -12 469 -12 565 -12 c 0,3,4
 675 -12 675 -12 751 19.5 c 128,-1,5
 827 51 827 51 875 97.5 c 128,-1,6
 923 144 923 144 944 196.5 c 128,-1,7
 965 249 965 249 965 296 c 128,-1,8
 965 343 965 343 946 385 c 0,9,10
 912 460 912 460 838 531 c 0,11,12
 804 564 804 564 775 596.5 c 128,-1,13
 746 629 746 629 725.5 663 c 128,-1,14
 705 697 705 697 705 738.5 c 128,-1,15
 705 780 705 780 732 811.5 c 128,-1,16
 759 843 759 843 798 870.5 c 128,-1,17
 837 898 837 898 881.5 926 c 128,-1,18
 926 954 926 954 963 990.5 c 128,-1,19
 1000 1027 1000 1027 1024 1076 c 0,20,21
 1049 1123 1049 1123 1049 1192 c 0,22,23
 1049 1302 1049 1302 966.5 1363.5 c 128,-1,24
 884 1425 884 1425 725 1425 c 0,25,26
 530 1425 530 1425 413.5 1321.5 c 128,-1,27
 297 1218 297 1218 258 1022 c 2,28,-1
 55 -12 l 2,29,30
 16 -210 16 -210 -82 -410 c 1,31,-1
 71 -410 l 1,32,33
 120 -309 120 -309 155 -210 c 0,34,35
 190 -109 190 -109 210 -5 c 2,36,-1
 411 1020 l 2,37,38
 441 1165 441 1165 516.5 1234.5 c 128,-1,39
 592 1304 592 1304 715 1304 c 0,40,41
 796 1304 796 1304 843.5 1271.5 c 128,-1,42
 891 1239 891 1239 891 1181.5 c 128,-1,43
 891 1124 891 1124 864 1086 c 128,-1,44
 837 1048 837 1048 798 1018.5 c 128,-1,45
 759 989 759 989 714 963 c 128,-1,46
 669 937 669 937 631.5 904.5 c 128,-1,47
 594 872 594 872 569.5 829 c 128,-1,48
 545 786 545 786 545 721 c 0,49,50
 545 673 545 673 563.5 633.5 c 128,-1,51
 582 594 582 594 610 559.5 c 128,-1,52
 638 525 638 525 671 494 c 128,-1,53
 704 463 704 463 733.5 432 c 128,-1,54
 763 401 763 401 783 366.5 c 128,-1,55
 803 332 803 332 803 292 c 0,56,57
 803 261 803 261 789 232.5 c 128,-1,58
 775 204 775 204 746.5 182 c 128,-1,59
 718 160 718 160 673 147 c 128,-1,60
 628 134 628 134 567 134 c 0,61,62
 528 134 528 134 490.5 139 c 128,-1,63
 453 144 453 144 426 152 c 1,0,-1
EndSplineSet
EndChar

StartChar: ae
Encoding: 230 230 166
Width: 1126
Flags: W
LayerCount: 2
Fore
SplineSet
566 995 m 128,-1,1
 509 1022 509 1022 422 1022 c 0,2,3
 362 1022 362 1022 285 1002 c 0,4,5
 223 986 223 986 168 960 c 1,6,-1
 168 832 l 1,7,8
 228 862 228 862 281 881 c 128,-1,9
 334 900 334 900 393 900 c 0,10,11
 468 900 468 900 502 863 c 128,-1,12
 536 826 536 826 536 759 c 0,13,14
 536 719 536 719 526 671 c 2,15,-1
 508 577 l 1,16,-1
 377 577 l 2,17,18
 289 577 289 577 226 556.5 c 128,-1,19
 163 536 163 536 119.5 502 c 128,-1,20
 76 468 76 468 49.5 426 c 128,-1,21
 23 384 23 384 9 341 c 128,-1,22
 -5 298 -5 298 -10 258.5 c 128,-1,23
 -15 219 -15 219 -15 191 c 0,24,25
 -15 90 -15 90 43 36 c 128,-1,26
 101 -18 101 -18 207 -18 c 0,27,28
 281 -18 281 -18 349.5 25.5 c 128,-1,29
 418 69 418 69 462 151 c 2,30,-1
 474 173 l 1,31,-1
 481 149 l 2,32,33
 502 67 502 67 563.5 24.5 c 128,-1,34
 625 -18 625 -18 719 -18 c 0,35,36
 781 -18 781 -18 845 -7 c 128,-1,37
 909 4 909 4 957 23 c 1,38,-1
 957 142 l 1,39,40
 917 127 917 127 868.5 115.5 c 128,-1,41
 820 104 820 104 762 104 c 0,42,43
 676 104 676 104 638 154 c 128,-1,44
 600 204 600 204 600 297 c 0,45,46
 600 367 600 367 621 466 c 1,47,-1
 731 466 l 2,48,49
 827 466 827 466 900 490.5 c 128,-1,50
 973 515 973 515 1021.5 556.5 c 128,-1,51
 1070 598 1070 598 1094 653.5 c 128,-1,52
 1118 709 1118 709 1118 773 c 1,53,-1
 1118 773 l 1,54,55
 1118 777 1118 777 1118 780 c 0,56,57
 1118 823 1118 823 1106.5 866 c 128,-1,58
 1095 909 1095 909 1067.5 944 c 128,-1,59
 1040 979 1040 979 995 1000.5 c 128,-1,60
 950 1022 950 1022 883.5 1022 c 128,-1,61
 817 1022 817 1022 756.5 990.5 c 128,-1,62
 696 959 696 959 655 905 c 2,63,-1
 642 888 l 1,64,-1
 637 909 l 2,65,0
 623 968 623 968 566 995 c 128,-1,1
242 438 m 128,-1,67
 286 467 286 467 356 467 c 2,68,-1
 487 467 l 1,69,-1
 473 395 l 2,70,71
 461 336 461 336 435 285 c 0,72,73
 383 180 383 180 311 135 c 0,74,75
 274 112 274 112 241 112 c 0,76,77
 181 112 181 112 154 147 c 0,78,79
 142 162 142 162 136.5 182 c 128,-1,80
 131 202 131 202 131 224.5 c 128,-1,81
 131 247 131 247 140 289 c 128,-1,82
 149 331 149 331 173.5 370 c 128,-1,66
 198 409 198 409 242 438 c 128,-1,67
789 868 m 0,83,84
 824 892 824 892 864 892 c 0,85,86
 918 892 918 892 948 854 c 0,87,88
 975 819 975 819 975 762 c 0,89,90
 975 718 975 718 957.5 683 c 128,-1,91
 940 648 940 648 909.5 624.5 c 128,-1,92
 879 601 879 601 838.5 588.5 c 128,-1,93
 798 576 798 576 752 576 c 2,94,-1
 641 576 l 1,95,-1
 643 588 l 2,96,97
 656 652 656 652 678 707 c 0,98,99
 722 821 722 821 789 868 c 0,83,84
EndSplineSet
EndChar

StartChar: ccedilla
Encoding: 231 231 167
Width: 1126
Flags: W
LayerCount: 2
Fore
SplineSet
720.5 129.5 m 128,-1,1
 651 116 651 116 584 116 c 0,2,3
 452 116 452 116 383 181 c 128,-1,4
 314 246 314 246 314 375 c 0,5,6
 314 471 314 471 342 563 c 128,-1,7
 370 655 370 655 424 727.5 c 128,-1,8
 478 800 478 800 557.5 843.5 c 128,-1,9
 637 887 637 887 741 887 c 0,10,11
 807 887 807 887 874.5 872 c 128,-1,12
 942 857 942 857 994 834 c 1,13,-1
 1021 974 l 1,14,15
 960 997 960 997 890.5 1007.5 c 128,-1,16
 821 1018 821 1018 750 1018 c 0,17,18
 627 1018 627 1018 518 971.5 c 128,-1,19
 409 925 409 925 327.5 839 c 128,-1,20
 246 753 246 753 198.5 630.5 c 128,-1,21
 151 508 151 508 151 358.5 c 128,-1,22
 151 209 151 209 218.5 121.5 c 128,-1,23
 286 34 286 34 417 4 c 1,24,-1
 429 2 l 1,25,-1
 305 -295 l 1,26,-1
 436 -295 l 1,27,-1
 574 -14 l 1,28,29
 644 -12 644 -12 709 0.5 c 128,-1,30
 774 13 774 13 850 39 c 1,31,-1
 850 167 l 1,32,0
 790 143 790 143 720.5 129.5 c 128,-1,1
EndSplineSet
EndChar

StartChar: eth
Encoding: 240 240 176
Width: 1126
Flags: W
LayerCount: 2
Fore
SplineSet
651 888 m 0,0,1
 718 888 718 888 796 871 c 1,2,3
 844 734 844 734 844 626 c 0,4,5
 844 509 844 509 808 404 c 0,6,7
 789 349 789 349 760 299.5 c 128,-1,8
 731 250 731 250 689.5 212.5 c 128,-1,9
 648 175 648 175 594.5 152 c 128,-1,10
 541 129 541 129 475 129 c 0,11,12
 425 129 425 129 383 145.5 c 128,-1,13
 341 162 341 162 311.5 194.5 c 128,-1,14
 282 227 282 227 266 274.5 c 128,-1,15
 250 322 250 322 250 383 c 0,16,17
 250 418 250 418 257 469 c 128,-1,18
 264 520 264 520 282 575.5 c 128,-1,19
 300 631 300 631 329 687 c 128,-1,20
 358 743 358 743 402.5 788 c 128,-1,21
 447 833 447 833 508.5 860.5 c 128,-1,22
 570 888 570 888 651 888 c 0,0,1
662.5 1013.5 m 128,-1,24
 654 1014 654 1014 651 1014 c 0,25,26
 563 1014 563 1014 487.5 987 c 128,-1,27
 412 960 412 960 349.5 913 c 128,-1,28
 287 866 287 866 239.5 802 c 128,-1,29
 192 738 192 738 159 665 c 128,-1,30
 126 592 126 592 109 512 c 128,-1,31
 92 432 92 432 92 348.5 c 128,-1,32
 92 265 92 265 116 196 c 0,33,34
 165 58 165 58 298 7 c 0,35,36
 366 -18 366 -18 457 -18 c 128,-1,37
 548 -18 548 -18 625.5 8.5 c 128,-1,38
 703 35 703 35 764 81 c 128,-1,39
 825 127 825 127 869.5 188 c 128,-1,40
 914 249 914 249 943 319.5 c 128,-1,41
 972 390 972 390 986 464.5 c 128,-1,42
 1000 539 1000 539 1000 609 c 128,-1,43
 1000 679 1000 679 987.5 746.5 c 128,-1,44
 975 814 975 814 953 884 c 0,45,46
 910 1016 910 1016 822 1183 c 1,47,-1
 816 1195 l 1,48,-1
 1055 1243 l 1,49,-1
 1055 1368 l 1,50,-1
 755 1308 l 1,51,-1
 694 1413 l 1,52,-1
 517 1413 l 1,53,-1
 598 1273 l 1,54,-1
 379 1231 l 1,55,-1
 379 1105 l 1,56,-1
 658 1164 l 1,57,58
 682 1123 682 1123 699 1088 c 128,-1,59
 716 1053 716 1053 738 1007 c 1,60,-1
 719 1010 l 2,61,62
 714 1011 714 1011 692.5 1012 c 128,-1,23
 671 1013 671 1013 662.5 1013.5 c 128,-1,24
EndSplineSet
EndChar

StartChar: divide
Encoding: 247 247 183
Width: 1126
Flags: W
LayerCount: 2
Fore
SplineSet
88 479 m 1,0,-1
 1026 479 l 1,1,-1
 1053 611 l 1,2,-1
 114 611 l 1,3,-1
 88 479 l 1,0,-1
593 822.5 m 128,-1,5
 615 813 615 813 640.5 813 c 128,-1,6
 666 813 666 813 688 822.5 c 128,-1,7
 710 832 710 832 728 849.5 c 128,-1,8
 746 867 746 867 755.5 890 c 128,-1,9
 765 913 765 913 765 938 c 128,-1,10
 765 963 765 963 756.5 984.5 c 128,-1,11
 748 1006 748 1006 731 1022 c 128,-1,12
 714 1038 714 1038 693 1047.5 c 128,-1,13
 672 1057 672 1057 646.5 1057 c 128,-1,14
 621 1057 621 1057 598 1047.5 c 128,-1,15
 575 1038 575 1038 557.5 1021 c 128,-1,16
 540 1004 540 1004 530 981 c 128,-1,17
 520 958 520 958 520 933 c 128,-1,18
 520 908 520 908 529 886.5 c 128,-1,19
 538 865 538 865 554.5 848.5 c 128,-1,4
 571 832 571 832 593 822.5 c 128,-1,5
487 33 m 128,-1,21
 512 33 512 33 535 43 c 0,22,23
 580 62 580 62 601 110 c 0,24,25
 611 133 611 133 611 158 c 128,-1,26
 611 183 611 183 602 204 c 0,27,28
 583 248 583 248 540 267 c 0,29,30
 519 277 519 277 493.5 277 c 128,-1,31
 468 277 468 277 445 267.5 c 128,-1,32
 422 258 422 258 404 240.5 c 128,-1,33
 386 223 386 223 376 200.5 c 128,-1,34
 366 178 366 178 366 153 c 128,-1,35
 366 128 366 128 375 106 c 0,36,37
 394 63 394 63 440 43 c 0,38,20
 462 33 462 33 487 33 c 128,-1,21
EndSplineSet
EndChar

StartChar: oslash
Encoding: 248 248 184
Width: 1126
Flags: W
LayerCount: 2
Fore
SplineSet
415 -15.5 m 128,-1,1
 440 -18 440 -18 467 -18 c 0,2,3
 557 -18 557 -18 634.5 8.5 c 128,-1,4
 712 35 712 35 775.5 82 c 128,-1,5
 839 129 839 129 888.5 193 c 128,-1,6
 938 257 938 257 971.5 331.5 c 128,-1,7
 1005 406 1005 406 1023 488 c 128,-1,8
 1041 570 1041 570 1041 652 c 0,9,10
 1041 766 1041 766 1000 843.5 c 128,-1,11
 959 921 959 921 884 964 c 2,12,-1
 876 969 l 1,13,-1
 1007 1219 l 1,14,-1
 872 1219 l 1,15,-1
 762 1013 l 1,16,17
 694 1022 694 1022 655 1022 c 0,18,19
 565 1022 565 1022 488 995.5 c 128,-1,20
 411 969 411 969 347 922 c 128,-1,21
 283 875 283 875 234 811 c 128,-1,22
 185 747 185 747 151.5 672.5 c 128,-1,23
 118 598 118 598 100 516 c 128,-1,24
 82 434 82 434 82 351 c 0,25,26
 82 238 82 238 123 160 c 128,-1,27
 164 82 164 82 236 38 c 2,28,-1
 244 33 l 1,29,-1
 115 -215 l 1,30,-1
 250 -215 l 1,31,-1
 359 -9 l 1,32,0
 390 -13 390 -13 415 -15.5 c 128,-1,1
816 837 m 2,33,34
 882 774 882 774 882 644 c 0,35,36
 882 587 882 587 871 526 c 0,37,38
 848 402 848 402 782 302 c 0,39,40
 749 251 749 251 704.5 212.5 c 128,-1,41
 660 174 660 174 605.5 152 c 128,-1,42
 551 130 551 130 487 130 c 2,43,-1
 463 130 l 2,44,45
 450 130 450 130 438 132 c 2,46,-1
 425 134 l 1,47,-1
 806 846 l 1,48,-1
 816 837 l 2,33,34
314 157 m 1,49,-1
 304 166 l 2,50,51
 270 197 270 197 255 246.5 c 128,-1,52
 240 296 240 296 240 356.5 c 128,-1,53
 240 417 240 417 251 478 c 0,54,55
 274 600 274 600 340 701 c 0,56,57
 373 752 373 752 417.5 791 c 128,-1,58
 462 830 462 830 516.5 852 c 128,-1,59
 571 874 571 874 635 874 c 2,60,-1
 658 874 l 2,61,62
 670 874 670 874 682 872 c 2,63,-1
 695 870 l 1,64,-1
 314 157 l 1,49,-1
EndSplineSet
EndChar

StartChar: thorn
Encoding: 254 254 190
Width: 1126
Flags: W
LayerCount: 2
Fore
SplineSet
328 -6 m 128,-1,1
 377 -12 377 -12 449 -12 c 0,2,3
 586 -12 586 -12 691 43 c 128,-1,4
 796 98 796 98 868 192.5 c 128,-1,5
 940 287 940 287 977 414.5 c 128,-1,6
 1014 542 1014 542 1014 688 c 0,7,8
 1014 764 1014 764 997 826 c 0,9,10
 964 950 964 950 862 998 c 0,11,12
 811 1022 811 1022 741 1022 c 0,13,14
 631 1022 631 1022 535 960 c 0,15,16
 441 899 441 899 380 787 c 2,17,-1
 340 716 l 1,18,-1
 426 1036 l 1,19,-1
 502 1413 l 1,20,-1
 348 1413 l 1,21,-1
 -13 -410 l 1,22,-1
 142 -410 l 1,23,-1
 225 14 l 1,24,0
 279 0 279 0 328 -6 c 128,-1,1
824 822 m 0,25,26
 858 767 858 767 858 668 c 0,27,28
 858 623 858 623 851.5 566 c 128,-1,29
 845 509 845 509 828 448 c 128,-1,30
 811 387 811 387 782.5 328 c 128,-1,31
 754 269 754 269 709.5 223 c 128,-1,32
 665 177 665 177 602 148 c 128,-1,33
 539 119 539 119 455 119 c 0,34,35
 412 119 412 119 361 130.5 c 128,-1,36
 310 142 310 142 255 166 c 1,37,-1
 299 391 l 2,38,39
 322 505 322 505 386 617 c 0,40,41
 452 734 452 734 533 803 c 0,42,43
 575 838 575 838 619.5 859 c 128,-1,44
 664 880 664 880 709 880 c 0,45,46
 789 880 789 880 824 822 c 0,25,26
EndSplineSet
EndChar

StartChar: Aogonek
Encoding: 260 260 196
Width: 1126
Flags: W
LayerCount: 2
Fore
SplineSet
971 -377 m 1,0,-1
 971 -283 l 1,1,2
 941 -286 941 -286 911 -286 c 0,3,4
 861 -286 861 -286 841.5 -267.5 c 128,-1,5
 822 -249 822 -249 822 -226.5 c 128,-1,6
 822 -204 822 -204 828 -182 c 0,7,8
 841 -140 841 -140 903 -77 c 0,9,10
 934 -46 934 -46 987 0 c 1,11,-1
 1003 0 l 1,12,-1
 839 1287 l 1,13,-1
 610 1287 l 1,14,-1
 -75 0 l 1,15,-1
 92 0 l 1,16,-1
 242 285 l 1,17,-1
 802 285 l 1,18,-1
 836 -14 l 1,19,20
 782 -59 782 -59 751 -92 c 128,-1,21
 720 -125 720 -125 703 -153 c 128,-1,22
 686 -181 686 -181 680 -204.5 c 128,-1,23
 674 -228 674 -228 674 -253.5 c 128,-1,24
 674 -279 674 -279 685 -303 c 0,25,26
 708 -353 708 -353 778 -374 c 0,27,28
 815 -385 815 -385 869.5 -385 c 128,-1,29
 924 -385 924 -385 971 -377 c 1,0,-1
783 434 m 1,30,-1
 314 434 l 1,31,-1
 698 1177 l 1,32,-1
 783 434 l 1,30,-1
EndSplineSet
EndChar

StartChar: aogonek
Encoding: 261 261 197
Width: 1126
Flags: W
LayerCount: 2
Fore
SplineSet
875 -377 m 1,0,-1
 875 -283 l 1,1,2
 845 -286 845 -286 815 -286 c 0,3,4
 765 -286 765 -286 745.5 -267.5 c 128,-1,5
 726 -249 726 -249 726 -226.5 c 128,-1,6
 726 -204 726 -204 732 -182 c 0,7,8
 745 -140 745 -140 807 -77 c 0,9,10
 837 -46 837 -46 885 -4 c 1,11,12
 898 115 898 115 912.5 247.5 c 128,-1,13
 927 380 927 380 931.5 411.5 c 128,-1,14
 936 443 936 443 940 463 c 2,15,-1
 1050 1019 l 1,16,-1
 905 983 l 1,17,18
 792 1016 792 1016 668 1016 c 0,19,20
 530 1016 530 1016 425 961 c 128,-1,21
 320 906 320 906 248 811 c 128,-1,22
 176 716 176 716 139 588.5 c 128,-1,23
 102 461 102 461 102 315 c 0,24,25
 102 159 102 159 169 72 c 0,26,27
 202 29 202 29 253.5 5.5 c 128,-1,28
 305 -18 305 -18 375 -18 c 0,29,30
 487 -18 487 -18 583.5 45 c 128,-1,31
 680 108 680 108 747 226 c 2,32,-1
 771 267 l 1,33,-1
 740 -15 l 1,34,35
 686 -59 686 -59 655 -92 c 128,-1,36
 624 -125 624 -125 607 -153 c 128,-1,37
 590 -181 590 -181 584 -204.5 c 128,-1,38
 578 -228 578 -228 578 -253.5 c 128,-1,39
 578 -279 578 -279 589 -303 c 0,40,41
 612 -353 612 -353 682 -374 c 0,42,43
 719 -385 719 -385 773.5 -385 c 128,-1,44
 828 -385 828 -385 875 -377 c 1,0,-1
292 182 m 0,45,46
 258 238 258 238 258 336 c 0,47,48
 258 380 258 380 264.5 437.5 c 128,-1,49
 271 495 271 495 288 556 c 128,-1,50
 305 617 305 617 333.5 675.5 c 128,-1,51
 362 734 362 734 407 780 c 128,-1,52
 452 826 452 826 515 855 c 128,-1,53
 578 884 578 884 662 884 c 0,54,55
 705 884 705 884 755.5 872.5 c 128,-1,56
 806 861 806 861 861 837 c 1,57,-1
 819 623 l 2,58,59
 794 499 794 499 731 388 c 0,60,61
 665 269 665 269 584 200 c 0,62,63
 542 165 542 165 497.5 144 c 128,-1,64
 453 123 453 123 408 123 c 0,65,66
 328 123 328 123 292 182 c 0,45,46
EndSplineSet
EndChar

StartChar: dcroat
Encoding: 273 273 209
Width: 1126
Flags: W
LayerCount: 2
Fore
SplineSet
954 1413 m 1,0,-1
 928 1282 l 1,1,-1
 639 1282 l 1,2,-1
 614 1157 l 1,3,-1
 903 1157 l 1,4,-1
 870 988 l 1,5,6
 838 997 838 997 817 1002 c 128,-1,7
 796 1007 796 1007 773 1010 c 0,8,9
 725 1016 725 1016 657 1016 c 0,10,11
 519 1016 519 1016 414.5 961 c 128,-1,12
 310 906 310 906 238 811 c 128,-1,13
 166 716 166 716 129 588.5 c 128,-1,14
 92 461 92 461 92 315 c 0,15,16
 92 159 92 159 159 72 c 0,17,18
 192 29 192 29 243.5 5.5 c 128,-1,19
 295 -18 295 -18 365 -18 c 0,20,21
 476 -18 476 -18 567 46 c 128,-1,22
 658 110 658 110 726 230 c 2,23,-1
 750 272 l 1,24,-1
 722 0 l 1,25,-1
 865 0 l 1,26,27
 904 383 904 383 920 461 c 2,28,-1
 1057 1157 l 1,29,-1
 1243 1157 l 1,30,-1
 1268 1282 l 1,31,-1
 1082 1282 l 1,32,-1
 1108 1413 l 1,33,-1
 954 1413 l 1,0,-1
282 181 m 0,34,35
 248 237 248 237 248 336 c 0,36,37
 248 380 248 380 254.5 437.5 c 128,-1,38
 261 495 261 495 278 556 c 128,-1,39
 295 617 295 617 323.5 675.5 c 128,-1,40
 352 734 352 734 396.5 780 c 128,-1,41
 441 826 441 826 504 855 c 128,-1,42
 567 884 567 884 651 884 c 0,43,44
 732 884 732 884 833 840 c 2,45,-1
 840 837 l 1,46,-1
 798 623 l 2,47,48
 773 501 773 501 711 388 c 0,49,50
 680 333 680 333 644 284 c 0,51,52
 568 185 568 185 484 144 c 0,53,54
 440 123 440 123 397 123 c 0,55,56
 317 123 317 123 282 181 c 0,34,35
EndSplineSet
EndChar

StartChar: Eogonek
Encoding: 280 280 216
Width: 1126
Flags: W
LayerCount: 2
Fore
SplineSet
821 -377 m 1,0,-1
 821 -283 l 1,1,2
 791 -286 791 -286 761 -286 c 0,3,4
 711 -286 711 -286 691.5 -267.5 c 128,-1,5
 672 -249 672 -249 672 -226.5 c 128,-1,6
 672 -204 672 -204 678 -182 c 0,7,8
 691 -140 691 -140 753 -77 c 0,9,10
 784 -43 784 -43 833 3 c 1,11,-1
 860 152 l 1,12,-1
 295 152 l 1,13,-1
 389 622 l 1,14,-1
 932 622 l 1,15,-1
 957 752 l 1,16,-1
 414 752 l 1,17,-1
 500 1177 l 1,18,-1
 1065 1177 l 1,19,-1
 1092 1307 l 1,20,-1
 368 1307 l 1,21,-1
 110 2 l 1,22,-1
 702 2 l 1,23,-1
 681 -18 l 1,24,25
 587 -97 587 -97 553 -153 c 0,26,27
 536 -181 536 -181 530 -204.5 c 128,-1,28
 524 -228 524 -228 524 -253.5 c 128,-1,29
 524 -279 524 -279 535 -303 c 0,30,31
 558 -353 558 -353 628 -374 c 0,32,33
 665 -385 665 -385 719.5 -385 c 128,-1,34
 774 -385 774 -385 821 -377 c 1,0,-1
EndSplineSet
EndChar

StartChar: eogonek
Encoding: 281 281 217
Width: 1126
Flags: W
LayerCount: 2
Fore
SplineSet
725 -377 m 1,0,-1
 725 -283 l 1,1,2
 695 -286 695 -286 666 -286 c 0,3,4
 615 -286 615 -286 595.5 -267.5 c 128,-1,5
 576 -249 576 -249 576 -226.5 c 128,-1,6
 576 -204 576 -204 582 -182 c 0,7,8
 595 -140 595 -140 657 -77 c 0,9,10
 688 -45 688 -45 741 1 c 1,11,12
 803 10 803 10 864 27 c 1,13,-1
 864 151 l 1,14,15
 800 136 800 136 717 123 c 128,-1,16
 634 110 634 110 545 110 c 0,17,18
 405 110 405 110 337 172 c 128,-1,19
 269 234 269 234 269 350 c 0,20,21
 269 394 269 394 281 456 c 1,22,-1
 477 456 l 2,23,24
 761 456 761 456 897 542 c 0,25,26
 961 583 961 583 990.5 640 c 128,-1,27
 1020 697 1020 697 1020 767 c 0,28,29
 1020 821 1020 821 997 867 c 128,-1,30
 974 913 974 913 929.5 947.5 c 128,-1,31
 885 982 885 982 820.5 1002 c 128,-1,32
 756 1022 756 1022 672 1022 c 0,33,34
 551 1022 551 1022 448.5 968.5 c 128,-1,35
 346 915 346 915 271.5 823 c 128,-1,36
 197 731 197 731 154.5 608.5 c 128,-1,37
 112 486 112 486 112 347 c 0,38,39
 112 169 112 169 210 75.5 c 128,-1,40
 308 -18 308 -18 516 -18 c 2,41,-1
 538 -18 l 2,42,43
 548 -18 548 -18 589 -14 c 1,44,-1
 566 -35 l 2,45,46
 487 -102 487 -102 454 -159 c 0,47,48
 438 -185 438 -185 433 -207 c 128,-1,49
 428 -229 428 -229 428 -254 c 128,-1,50
 428 -279 428 -279 439 -303 c 0,51,52
 462 -353 462 -353 533 -374 c 0,53,54
 570 -385 570 -385 623 -385 c 0,55,56
 647 -385 647 -385 675.5 -382.5 c 128,-1,57
 704 -380 704 -380 725 -377 c 1,0,-1
660 584 m 0,58,59
 587 570 587 570 475 570 c 2,60,-1
 301 570 l 1,61,-1
 306 583 l 1,62,63
 354 729 354 729 440 808 c 0,64,65
 533 893 533 893 662 893 c 0,66,67
 712 893 712 893 749 881.5 c 128,-1,68
 786 870 786 870 811 849.5 c 128,-1,69
 836 829 836 829 848 802 c 128,-1,70
 860 775 860 775 860 742.5 c 128,-1,71
 860 710 860 710 842 678 c 0,72,73
 803 610 803 610 660 584 c 0,58,59
EndSplineSet
EndChar

StartChar: Hbar
Encoding: 294 294 230
Width: 1126
Flags: W
LayerCount: 2
Fore
SplineSet
875 10 m 1,0,-1
 1061 950 l 1,1,-1
 1172 950 l 1,2,-1
 1198 1080 l 1,3,-1
 1088 1080 l 1,4,-1
 1131 1297 l 1,5,-1
 973 1297 l 1,6,-1
 930 1080 l 1,7,-1
 422 1080 l 1,8,-1
 465 1297 l 1,9,-1
 307 1297 l 1,10,-1
 264 1080 l 1,11,-1
 153 1080 l 1,12,-1
 127 950 l 1,13,-1
 237 950 l 1,14,-1
 51 10 l 1,15,-1
 209 10 l 1,16,-1
 322 581 l 1,17,-1
 829 581 l 1,18,-1
 717 10 l 1,19,-1
 875 10 l 1,0,-1
856 711 m 1,20,-1
 348 711 l 1,21,-1
 395 950 l 1,22,-1
 903 950 l 1,23,-1
 856 711 l 1,20,-1
EndSplineSet
EndChar

StartChar: hbar
Encoding: 295 295 231
Width: 1126
Flags: W
LayerCount: 2
Fore
SplineSet
973 602 m 2,0,1
 986 668 986 668 986 723 c 0,2,3
 986 819 986 819 946 879 c 0,4,5
 883 973 883 973 729 973 c 0,6,7
 674 973 674 973 622 957 c 128,-1,8
 570 941 570 941 525 911 c 128,-1,9
 480 881 480 881 441.5 839 c 128,-1,10
 403 797 403 797 376 746 c 2,11,-1
 337 674 l 1,12,-1
 412 966 l 1,13,-1
 451 1159 l 1,14,-1
 766 1159 l 1,15,-1
 791 1280 l 1,16,-1
 475 1280 l 1,17,-1
 502 1413 l 1,18,-1
 348 1413 l 1,19,-1
 321 1280 l 1,20,-1
 162 1280 l 1,21,-1
 137 1159 l 1,22,-1
 297 1159 l 1,23,-1
 69 20 l 1,24,-1
 223 20 l 1,25,-1
 287 342 l 2,26,27
 305 431 305 431 346 520 c 128,-1,28
 387 609 387 609 443 681 c 128,-1,29
 499 753 499 753 564.5 798 c 128,-1,30
 630 843 630 843 697 843 c 0,31,32
 782 843 782 843 813 780 c 0,33,34
 830 747 830 747 830 696 c 0,35,36
 830 654 830 654 819 600 c 2,37,-1
 702 20 l 1,38,-1
 856 20 l 1,39,-1
 973 602 l 2,0,1
0 1004 m 1024,40,-1
EndSplineSet
EndChar

StartChar: Iogonek
Encoding: 302 302 238
Width: 1126
Flags: W
LayerCount: 2
Fore
SplineSet
832 -377 m 1,0,-1
 832 -283 l 1,1,2
 802 -286 802 -286 772 -286 c 0,3,4
 722 -286 722 -286 702.5 -267.5 c 128,-1,5
 683 -249 683 -249 683 -226.5 c 128,-1,6
 683 -204 683 -204 689 -182 c 0,7,8
 702 -140 702 -140 764 -77 c 0,9,10
 794 -44 794 -44 843 2 c 1,11,-1
 871 152 l 1,12,-1
 570 152 l 1,13,-1
 774 1177 l 1,14,-1
 1075 1177 l 1,15,-1
 1102 1307 l 1,16,-1
 340 1307 l 1,17,-1
 313 1177 l 1,18,-1
 614 1177 l 1,19,-1
 409 152 l 1,20,-1
 108 152 l 1,21,-1
 82 2 l 1,22,-1
 713 2 l 1,23,-1
 692 -18 l 1,24,25
 598 -97 598 -97 564 -153 c 0,26,27
 547 -181 547 -181 541 -204.5 c 128,-1,28
 535 -228 535 -228 535 -253.5 c 128,-1,29
 535 -279 535 -279 546 -303 c 0,30,31
 569 -353 569 -353 639 -374 c 0,32,33
 676 -385 676 -385 730.5 -385 c 128,-1,34
 785 -385 785 -385 832 -377 c 1,0,-1
EndSplineSet
EndChar

StartChar: iogonek
Encoding: 303 303 239
Width: 1126
Flags: W
LayerCount: 2
Fore
SplineSet
775 -377 m 1,0,-1
 775 -283 l 1,1,2
 745 -286 745 -286 716 -286 c 0,3,4
 665 -286 665 -286 645.5 -267.5 c 128,-1,5
 626 -249 626 -249 626 -226 c 128,-1,6
 626 -203 626 -203 633 -182 c 0,7,8
 647 -138 647 -138 707 -77 c 0,9,10
 738 -45 738 -45 790 1 c 1,11,12
 870 19 870 19 946 61 c 1,13,-1
 946 195 l 1,14,15
 885 162 885 162 826 138 c 0,16,17
 758 110 758 110 688 110 c 0,18,19
 660 110 660 110 638 121 c 128,-1,20
 616 132 616 132 604.5 158.5 c 128,-1,21
 593 185 593 185 593 225 c 128,-1,22
 593 265 593 265 604 325 c 2,23,-1
 672 668 l 2,24,25
 688 752 688 752 688 814 c 0,26,27
 688 894 688 894 661 942 c 0,28,29
 637 983 637 983 591.5 1002.5 c 128,-1,30
 546 1022 546 1022 477 1022 c 0,31,32
 391 1022 391 1022 317.5 1000.5 c 128,-1,33
 244 979 244 979 178 943 c 1,34,-1
 178 809 l 1,35,36
 239 842 239 842 298 867 c 0,37,38
 366 895 366 895 436 895 c 0,39,40
 464 895 464 895 487 884 c 0,41,42
 532 861 532 861 532 776 c 0,43,44
 532 736 532 736 520 679 c 2,45,-1
 452 337 l 2,46,47
 435 253 435 253 435 191 c 0,48,49
 435 119 435 119 456 75.5 c 128,-1,50
 477 32 477 32 515 10.5 c 128,-1,51
 553 -11 553 -11 611 -16 c 2,52,-1
 635 -18 l 1,53,-1
 617 -34 l 2,54,55
 535 -104 535 -104 504 -158 c 0,56,57
 489 -184 489 -184 483.5 -206.5 c 128,-1,58
 478 -229 478 -229 478 -254 c 128,-1,59
 478 -279 478 -279 489 -303 c 0,60,61
 512 -353 512 -353 583 -374 c 0,62,63
 620 -385 620 -385 673 -385 c 0,64,65
 698 -385 698 -385 726 -382.5 c 128,-1,66
 754 -380 754 -380 775 -377 c 1,0,-1
591.5 1387 m 128,-1,68
 573 1369 573 1369 563 1345 c 128,-1,69
 553 1321 553 1321 553 1294 c 128,-1,70
 553 1267 553 1267 562 1245 c 128,-1,71
 571 1223 571 1223 586.5 1206.5 c 128,-1,72
 602 1190 602 1190 624.5 1180.5 c 128,-1,73
 647 1171 647 1171 674.5 1171 c 128,-1,74
 702 1171 702 1171 726 1181 c 128,-1,75
 750 1191 750 1191 768.5 1209 c 128,-1,76
 787 1227 787 1227 797 1251 c 128,-1,77
 807 1275 807 1275 807 1302 c 128,-1,78
 807 1329 807 1329 798 1351 c 128,-1,79
 789 1373 789 1373 773 1389.5 c 128,-1,80
 757 1406 757 1406 735 1415.5 c 128,-1,81
 713 1425 713 1425 685.5 1425 c 128,-1,82
 658 1425 658 1425 634 1415 c 128,-1,67
 610 1405 610 1405 591.5 1387 c 128,-1,68
EndSplineSet
EndChar

StartChar: dotlessi
Encoding: 305 305 241
Width: 1126
Flags: W
LayerCount: 2
Fore
SplineSet
298 867 m 0,0,1
 366 895 366 895 436 895 c 0,2,3
 464 895 464 895 487 884 c 0,4,5
 532 861 532 861 532 776 c 0,6,7
 532 736 532 736 520 679 c 2,8,-1
 452 337 l 2,9,10
 436 252 436 252 436 190 c 0,11,12
 436 110 436 110 463 62 c 0,13,14
 487 21 487 21 532.5 1.5 c 128,-1,15
 578 -18 578 -18 647 -18 c 0,16,17
 733 -18 733 -18 806.5 3 c 128,-1,18
 880 24 880 24 946 60 c 1,19,-1
 946 194 l 1,20,21
 885 162 885 162 826 137 c 0,22,23
 758 109 758 109 688 109 c 0,24,25
 660 109 660 109 638 120.5 c 128,-1,26
 616 132 616 132 604.5 158 c 128,-1,27
 593 184 593 184 593 224 c 128,-1,28
 593 264 593 264 604 324 c 2,29,-1
 672 667 l 2,30,31
 688 752 688 752 688 814 c 0,32,33
 688 894 688 894 661 942 c 0,34,35
 637 983 637 983 591.5 1002.5 c 128,-1,36
 546 1022 546 1022 477 1022 c 0,37,38
 391 1022 391 1022 317.5 1000.5 c 128,-1,39
 244 979 244 979 178 943 c 1,40,-1
 178 809 l 1,41,42
 239 842 239 842 298 867 c 0,0,1
EndSplineSet
EndChar

StartChar: IJ
Encoding: 306 306 242
Width: 1126
Flags: W
LayerCount: 2
Fore
SplineSet
727 174 m 0,0,1
 663 115 663 115 563 115 c 0,2,3
 491 115 491 115 432 145 c 1,4,-1
 366 25 l 1,5,6
 405 7 405 7 451.5 -2.5 c 128,-1,7
 498 -12 498 -12 563 -12 c 0,8,9
 731 -12 731 -12 835.5 81.5 c 128,-1,10
 940 175 940 175 973 346 c 2,11,-1
 1162 1287 l 1,12,-1
 1003 1287 l 1,13,-1
 821 367 l 2,14,15
 795 237 795 237 727 174 c 0,0,1
276 1297 m 1,16,-1
 20 10 l 1,17,-1
 178 10 l 1,18,-1
 434 1297 l 1,19,-1
 276 1297 l 1,16,-1
EndSplineSet
EndChar

StartChar: ij
Encoding: 307 307 243
Width: 1126
Flags: W
LayerCount: 2
Fore
SplineSet
593.5 -215 m 128,-1,1
 513 -290 513 -290 401 -290 c 0,2,3
 350 -290 350 -290 305.5 -274 c 128,-1,4
 261 -258 261 -258 226 -235 c 1,5,-1
 153 -355 l 1,6,7
 201 -384 201 -384 257.5 -402 c 128,-1,8
 314 -420 314 -420 398.5 -420 c 128,-1,9
 483 -420 483 -420 558 -395 c 0,10,11
 708 -344 708 -344 792 -186 c 0,12,13
 833 -107 833 -107 854 0 c 2,14,-1
 1053 984 l 1,15,-1
 899 984 l 1,16,-1
 704 11 l 2,17,0
 674 -140 674 -140 593.5 -215 c 128,-1,1
69 10 m 1,18,-1
 223 10 l 1,19,-1
 420 994 l 1,20,-1
 266 994 l 1,21,-1
 69 10 l 1,18,-1
309 1387 m 128,-1,23
 291 1369 291 1369 281 1345 c 128,-1,24
 271 1321 271 1321 271 1294 c 128,-1,25
 271 1267 271 1267 280 1244.5 c 128,-1,26
 289 1222 289 1222 304 1206 c 128,-1,27
 319 1190 319 1190 341.5 1180.5 c 128,-1,28
 364 1171 364 1171 391.5 1171 c 128,-1,29
 419 1171 419 1171 443 1181 c 128,-1,30
 467 1191 467 1191 485.5 1209 c 128,-1,31
 504 1227 504 1227 514.5 1251 c 128,-1,32
 525 1275 525 1275 525 1302 c 128,-1,33
 525 1329 525 1329 516 1351 c 128,-1,34
 507 1373 507 1373 491 1389.5 c 128,-1,35
 475 1406 475 1406 452.5 1415.5 c 128,-1,36
 430 1425 430 1425 402.5 1425 c 128,-1,37
 375 1425 375 1425 351 1415 c 128,-1,22
 327 1405 327 1405 309 1387 c 128,-1,23
941.5 1387 m 128,-1,39
 923 1369 923 1369 913 1345 c 128,-1,40
 903 1321 903 1321 903 1294 c 128,-1,41
 903 1267 903 1267 912 1245 c 128,-1,42
 921 1223 921 1223 936.5 1206.5 c 128,-1,43
 952 1190 952 1190 974.5 1180.5 c 128,-1,44
 997 1171 997 1171 1024.5 1171 c 128,-1,45
 1052 1171 1052 1171 1076 1181 c 128,-1,46
 1100 1191 1100 1191 1118.5 1209 c 128,-1,47
 1137 1227 1137 1227 1147 1251 c 128,-1,48
 1157 1275 1157 1275 1157 1302 c 128,-1,49
 1157 1329 1157 1329 1148 1351 c 128,-1,50
 1139 1373 1139 1373 1123 1389.5 c 128,-1,51
 1107 1406 1107 1406 1085 1415.5 c 128,-1,52
 1063 1425 1063 1425 1035.5 1425 c 128,-1,53
 1008 1425 1008 1425 984 1415 c 128,-1,38
 960 1405 960 1405 941.5 1387 c 128,-1,39
EndSplineSet
EndChar

StartChar: Lslash
Encoding: 321 321 257
Width: 1126
Flags: W
LayerCount: 2
Fore
SplineSet
901 152 m 1,0,-1
 349 152 l 1,1,-1
 460 709 l 1,2,-1
 871 897 l 1,3,-1
 871 1022 l 1,4,-1
 488 847 l 1,5,-1
 580 1307 l 1,6,-1
 422 1307 l 1,7,-1
 314 767 l 1,8,-1
 67 653 l 1,9,-1
 67 528 l 1,10,-1
 286 629 l 1,11,-1
 164 20 l 1,12,-1
 875 20 l 1,13,-1
 901 152 l 1,0,-1
EndSplineSet
EndChar

StartChar: lslash
Encoding: 322 322 258
Width: 1126
Flags: W
LayerCount: 2
Fore
SplineSet
899 66 m 1,0,-1
 899 202 l 1,1,2
 694 117 694 117 543 117 c 0,3,4
 497 117 497 117 467 132 c 0,5,6
 417 157 417 157 417 248 c 0,7,8
 417 309 417 309 441 430 c 2,9,-1
 499 734 l 1,10,-1
 893 917 l 1,11,-1
 893 1045 l 1,12,-1
 527 878 l 1,13,-1
 635 1413 l 1,14,-1
 477 1413 l 1,15,-1
 353 787 l 1,16,-1
 88 665 l 1,17,-1
 88 537 l 1,18,-1
 325 648 l 1,19,-1
 280 424 l 2,20,21
 257 305 257 305 257 222 c 0,22,23
 257 134 257 134 286 82.5 c 128,-1,24
 315 31 315 31 372.5 8.5 c 128,-1,25
 430 -14 430 -14 525.5 -14 c 128,-1,26
 621 -14 621 -14 714 7.5 c 128,-1,27
 807 29 807 29 899 66 c 1,0,-1
EndSplineSet
EndChar

StartChar: Eng
Encoding: 330 330 266
Width: 1126
Flags: W
LayerCount: 2
Fore
SplineSet
28 0 m 1,0,-1
 174 0 l 1,1,-1
 395 1109 l 1,2,-1
 483 814 l 1,3,-1
 743 3 l 1,4,5
 713 -143 713 -143 638.5 -215 c 128,-1,6
 564 -287 564 -287 457 -290 c 1,7,-1
 428 -420 l 1,8,9
 612 -417 612 -417 731 -314 c 0,10,11
 854 -208 854 -208 895 0 c 2,12,-1
 1153 1287 l 1,13,-1
 1007 1287 l 1,14,-1
 809 285 l 1,15,-1
 731 542 l 1,16,-1
 487 1287 l 1,17,-1
 284 1287 l 1,18,-1
 28 0 l 1,0,-1
EndSplineSet
EndChar

StartChar: eng
Encoding: 331 331 267
Width: 1126
Flags: W
LayerCount: 2
Fore
SplineSet
983 649 m 2,0,1
 997 717 997 717 997 773 c 0,2,3
 997 870 997 870 956 929 c 0,4,5
 893 1022 893 1022 739 1022 c 0,6,7
 628 1022 628 1022 532.5 958 c 128,-1,8
 437 894 437 894 369 773 c 2,9,-1
 345 731 l 1,10,-1
 374 1004 l 1,11,-1
 230 1004 l 1,12,13
 218 888 218 888 203.5 757 c 128,-1,14
 189 626 189 626 184.5 594.5 c 128,-1,15
 180 563 180 563 176 543 c 2,16,-1
 69 3 l 1,17,-1
 223 3 l 1,18,-1
 297 381 l 2,19,20
 315 471 315 471 356 561.5 c 128,-1,21
 397 652 397 652 453 725 c 128,-1,22
 509 798 509 798 574.5 844 c 128,-1,23
 640 890 640 890 707 890 c 0,24,25
 793 890 793 890 824 829 c 0,26,27
 841 797 841 797 841 749.5 c 128,-1,28
 841 702 841 702 829 643 c 2,29,-1
 704 15 l 2,30,31
 675 -132 675 -132 599 -210 c 0,32,33
 523 -287 523 -287 416 -290 c 1,34,-1
 387 -420 l 1,35,36
 567 -417 567 -417 687 -316 c 0,37,38
 811 -210 811 -210 854 5 c 2,39,-1
 983 649 l 2,0,1
EndSplineSet
EndChar

StartChar: OE
Encoding: 338 338 274
Width: 1126
Flags: W
LayerCount: 2
Fore
SplineSet
1241 1307 m 1,0,-1
 874 1307 l 2,1,2
 846 1307 846 1307 796 1312 c 0,3,4
 706 1321 706 1321 662 1321 c 0,5,6
 548 1321 548 1321 458.5 1277 c 128,-1,7
 369 1233 369 1233 300 1160.5 c 128,-1,8
 231 1088 231 1088 182 993 c 128,-1,9
 133 898 133 898 102.5 796.5 c 128,-1,10
 72 695 72 695 57.5 594.5 c 128,-1,11
 43 494 43 494 43 410 c 0,12,13
 43 205 43 205 135 95.5 c 128,-1,14
 227 -14 227 -14 416 -14 c 0,15,16
 447 -14 447 -14 488.5 -9 c 128,-1,17
 530 -4 530 -4 560 -2 c 128,-1,18
 590 0 590 0 627 0 c 2,19,-1
 983 0 l 1,20,-1
 1008 129 l 1,21,-1
 678 129 l 1,22,-1
 774 613 l 1,23,-1
 1084 613 l 1,24,-1
 1108 741 l 1,25,-1
 799 741 l 1,26,-1
 885 1179 l 1,27,-1
 1215 1179 l 1,28,-1
 1241 1307 l 1,0,-1
479.5 125.5 m 128,-1,30
 461 123 461 123 440 123 c 0,31,32
 307 123 307 123 248 217 c 0,33,34
 201 292 201 292 201 424 c 0,35,36
 201 477 201 477 210 553 c 128,-1,37
 219 629 219 629 240 713 c 128,-1,38
 261 797 261 797 294.5 880.5 c 128,-1,39
 328 964 328 964 377 1031.5 c 128,-1,40
 426 1099 426 1099 492 1141.5 c 128,-1,41
 558 1184 558 1184 643 1184 c 0,42,43
 682 1184 682 1184 725 1175 c 2,44,-1
 735 1173 l 1,45,-1
 527 135 l 1,46,29
 498 128 498 128 479.5 125.5 c 128,-1,30
EndSplineSet
EndChar

StartChar: oe
Encoding: 339 339 275
Width: 1126
Flags: W
LayerCount: 2
Fore
SplineSet
588 17.5 m 128,-1,1
 639 -18 639 -18 727 -18 c 0,2,3
 788 -18 788 -18 851 -7 c 128,-1,4
 914 4 914 4 961 23 c 1,5,-1
 961 143 l 1,6,7
 923 129 923 129 877.5 118 c 128,-1,8
 832 107 832 107 774 107 c 0,9,10
 700 107 700 107 662.5 159 c 128,-1,11
 625 211 625 211 625 309 c 0,12,13
 625 373 625 373 643 468 c 1,14,-1
 733 468 l 2,15,16
 823 468 823 468 886.5 485.5 c 128,-1,17
 950 503 950 503 993 531 c 128,-1,18
 1036 559 1036 559 1061.5 592.5 c 128,-1,19
 1087 626 1087 626 1100.5 660 c 128,-1,20
 1114 694 1114 694 1118.5 724 c 128,-1,21
 1123 754 1123 754 1123 773 c 0,22,23
 1123 827 1123 827 1108.5 872.5 c 128,-1,24
 1094 918 1094 918 1065 951 c 128,-1,25
 1036 984 1036 984 992 1003 c 128,-1,26
 948 1022 948 1022 889 1022 c 0,27,28
 847 1022 847 1022 808 1009.5 c 128,-1,29
 769 997 769 997 737.5 976.5 c 128,-1,30
 706 956 706 956 682.5 931.5 c 128,-1,31
 659 907 659 907 648 885 c 2,32,-1
 631 852 l 1,33,-1
 629 888 l 2,34,35
 625 947 625 947 580 983 c 0,36,37
 529 1022 529 1022 442 1022 c 0,38,39
 380 1022 380 1022 329 998 c 0,40,41
 233 953 233 953 165 837 c 0,42,43
 103 733 103 733 67 593 c 0,44,45
 34 468 34 468 24 354 c 0,46,47
 20 301 20 301 20 263 c 0,48,49
 20 119 20 119 76.5 50.5 c 128,-1,50
 133 -18 133 -18 256 -18 c 0,51,52
 292 -18 292 -18 328 -7 c 0,53,54
 401 14 401 14 454 69 c 0,55,56
 480 96 480 96 495 129 c 2,57,-1
 506 153 l 1,58,-1
 514 128 l 2,59,0
 537 53 537 53 588 17.5 c 128,-1,1
350.5 152 m 128,-1,61
 314 115 314 115 268 115 c 0,62,63
 214 115 214 115 188 152.5 c 128,-1,64
 162 190 162 190 162 270 c 0,65,66
 162 309 162 309 169 370 c 0,67,68
 183 501 183 501 223 635 c 0,69,70
 267 783 267 783 340 852 c 0,71,72
 379 889 379 889 427 889 c 128,-1,73
 475 889 475 889 500.5 850 c 128,-1,74
 526 811 526 811 526 727 c 0,75,76
 526 691 526 691 519 632 c 0,77,78
 506 511 506 511 465 370 c 0,79,80
 444 301 444 301 415.5 245 c 128,-1,60
 387 189 387 189 350.5 152 c 128,-1,61
847 590 m 128,-1,82
 806 578 806 578 758 578 c 2,83,-1
 666 578 l 1,84,-1
 668 590 l 1,85,86
 698 729 698 729 748 807 c 0,87,88
 800 889 800 889 874 889 c 0,89,90
 917 889 917 889 948 856 c 128,-1,91
 979 823 979 823 979 762 c 0,92,93
 979 718 979 718 962.5 684 c 128,-1,94
 946 650 946 650 917 626 c 128,-1,81
 888 602 888 602 847 590 c 128,-1,82
EndSplineSet
EndChar

StartChar: Scedilla
Encoding: 350 350 286
Width: 1126
Flags: W
LayerCount: 2
Fore
SplineSet
588 1155 m 0,0,1
 653 1174 653 1174 741 1174 c 0,2,3
 885 1174 885 1174 1028 1130 c 1,4,-1
 1057 1284 l 1,5,6
 998 1300 998 1300 917 1312 c 0,7,8
 832 1325 832 1325 764 1325 c 0,9,10
 634 1325 634 1325 534 1292.5 c 128,-1,11
 434 1260 434 1260 366 1206 c 128,-1,12
 298 1152 298 1152 263.5 1082.5 c 128,-1,13
 229 1013 229 1013 229 938 c 0,14,15
 229 874 229 874 252 825 c 128,-1,16
 275 776 275 776 313 739 c 128,-1,17
 351 702 351 702 400.5 673 c 128,-1,18
 450 644 450 644 502 619 c 2,19,-1
 604 569 l 2,20,21
 714 517 714 517 760 451 c 0,22,23
 786 415 786 415 786 364.5 c 128,-1,24
 786 314 786 314 765.5 269 c 128,-1,25
 745 224 745 224 700 191 c 128,-1,26
 655 158 655 158 585.5 139.5 c 128,-1,27
 516 121 516 121 418 121 c 0,28,29
 298 121 298 121 210 137 c 128,-1,30
 122 153 122 153 55 178 c 1,31,-1
 26 25 l 1,32,33
 84 9 84 9 180 -4 c 0,34,35
 272 -17 272 -17 351 -17 c 2,36,-1
 366 -17 l 1,37,-1
 248 -295 l 1,38,-1
 379 -295 l 1,39,-1
 518 -10 l 1,40,-1
 524 -9 l 2,41,42
 673 12 673 12 774 74 c 128,-1,43
 875 136 875 136 915 216 c 128,-1,44
 955 296 955 296 955 379 c 0,45,46
 955 445 955 445 932 494 c 128,-1,47
 909 543 909 543 870.5 580.5 c 128,-1,48
 832 618 832 618 782.5 646.5 c 128,-1,49
 733 675 733 675 681 700 c 2,50,-1
 579 748 l 2,51,52
 528 772 528 772 487.5 799.5 c 128,-1,53
 447 827 447 827 421.5 863 c 128,-1,54
 396 899 396 899 396 946.5 c 128,-1,55
 396 994 396 994 417 1036 c 128,-1,56
 438 1078 438 1078 481 1108 c 128,-1,57
 524 1138 524 1138 588 1155 c 0,0,1
EndSplineSet
EndChar

StartChar: scedilla
Encoding: 351 351 287
Width: 1126
Flags: W
LayerCount: 2
Fore
SplineSet
668 154 m 0,0,1
 600 111 600 111 455 111 c 0,2,3
 282 111 282 111 110 166 c 1,4,-1
 110 15 l 1,5,6
 171 1 171 1 249.5 -8 c 128,-1,7
 328 -17 328 -17 376 -17 c 2,8,-1
 391 -17 l 1,9,-1
 273 -295 l 1,10,-1
 404 -295 l 1,11,-1
 542 -13 l 1,12,13
 673 5 673 5 749.5 49.5 c 128,-1,14
 826 94 826 94 861.5 158 c 128,-1,15
 897 222 897 222 897 299 c 0,16,17
 897 349 897 349 883 387 c 0,18,19
 854 463 854 463 755 513 c 0,20,21
 704 538 704 538 632 563 c 0,22,23
 571 582 571 582 528.5 599.5 c 128,-1,24
 486 617 486 617 459.5 636 c 128,-1,25
 433 655 433 655 420.5 677 c 128,-1,26
 408 699 408 699 408 727 c 0,27,28
 408 766 408 766 424 797 c 0,29,30
 457 860 457 860 559 883 c 0,31,32
 610 895 610 895 680 895 c 0,33,34
 791 895 791 895 961 855 c 1,35,-1
 961 990 l 1,36,37
 902 1004 902 1004 826 1013 c 0,38,39
 758 1022 758 1022 696 1022 c 0,40,41
 580 1022 580 1022 496 997.5 c 128,-1,42
 412 973 412 973 357 930.5 c 128,-1,43
 302 888 302 888 276 831.5 c 128,-1,44
 250 775 250 775 250 709 c 0,45,46
 250 654 250 654 268.5 612.5 c 128,-1,47
 287 571 287 571 321.5 540.5 c 128,-1,48
 356 510 356 510 405 487.5 c 128,-1,49
 454 465 454 465 516 446 c 0,50,51
 639 409 639 409 689 374 c 0,52,53
 716 356 716 356 727 335 c 128,-1,54
 738 314 738 314 738 289 c 0,55,56
 738 198 738 198 668 154 c 0,0,1
EndSplineSet
EndChar

StartChar: Tbar
Encoding: 358 358 294
Width: 1126
Flags: W
LayerCount: 2
Fore
SplineSet
543 0 m 1,0,-1
 658 582 l 1,1,-1
 925 582 l 1,2,-1
 952 711 l 1,3,-1
 685 711 l 1,4,-1
 774 1155 l 1,5,-1
 1161 1155 l 1,6,-1
 1187 1287 l 1,7,-1
 253 1287 l 1,8,-1
 226 1155 l 1,9,-1
 614 1155 l 1,10,-1
 524 711 l 1,11,-1
 258 711 l 1,12,-1
 231 582 l 1,13,-1
 499 582 l 1,14,-1
 383 0 l 1,15,-1
 543 0 l 1,0,-1
EndSplineSet
EndChar

StartChar: tbar
Encoding: 359 359 295
Width: 1126
Flags: W
LayerCount: 2
Fore
SplineSet
332 389 m 2,0,1
 316 313 316 313 316 252 c 0,2,3
 316 141 316 141 370 78 c 0,4,5
 410 30 410 30 480.5 8 c 128,-1,6
 551 -14 551 -14 651 -14 c 0,7,8
 698 -14 698 -14 757.5 -7.5 c 128,-1,9
 817 -1 817 -1 875 12 c 1,10,-1
 875 144 l 1,11,12
 816 130 816 130 762 122.5 c 128,-1,13
 708 115 708 115 670 115 c 0,14,15
 606 115 606 115 564 130 c 0,16,17
 472 162 472 162 472 284 c 0,18,19
 472 328 472 328 484 387 c 2,20,-1
 498 456 l 1,21,-1
 885 456 l 1,22,-1
 912 583 l 1,23,-1
 523 583 l 1,24,-1
 580 871 l 1,25,-1
 1030 871 l 1,26,-1
 1055 999 l 1,27,-1
 604 999 l 1,28,-1
 669 1322 l 1,29,-1
 507 1282 l 1,30,-1
 450 1000 l 1,31,-1
 170 1000 l 1,32,-1
 145 872 l 1,33,-1
 426 872 l 1,34,-1
 368 583 l 1,35,-1
 129 583 l 1,36,-1
 102 456 l 1,37,-1
 344 456 l 1,38,-1
 332 389 l 2,0,1
EndSplineSet
EndChar

StartChar: Uogonek
Encoding: 370 370 306
Width: 1126
Flags: W
LayerCount: 2
Fore
SplineSet
595 -377 m 1,0,-1
 595 -283 l 1,1,2
 565 -286 565 -286 536 -286 c 0,3,4
 485 -286 485 -286 465.5 -267.5 c 128,-1,5
 446 -249 446 -249 446 -226.5 c 128,-1,6
 446 -204 446 -204 452.5 -182.5 c 128,-1,7
 459 -161 459 -161 477 -135 c 0,8,9
 515 -78 515 -78 609 9 c 1,10,11
 762 48 762 48 863 174 c 1,12,13
 960 288 960 288 996 467 c 2,14,-1
 1166 1307 l 1,15,-1
 1007 1307 l 1,16,-1
 835 452 l 2,17,18
 805 300 805 300 716 215 c 0,19,20
 627 129 627 129 481 129 c 0,21,22
 403 129 403 129 353 152 c 0,23,24
 253 193 253 193 249 317 c 0,25,26
 249 324 249 324 249 331 c 0,27,28
 249 385 249 385 262 454 c 2,29,-1
 434 1307 l 1,30,-1
 276 1307 l 1,31,-1
 102 436 l 2,32,33
 89 370 89 370 89 312 c 0,34,35
 89 287 89 287 91 263 c 0,36,37
 108 96 108 96 249 26 c 0,38,39
 320 -11 320 -11 429 -17 c 2,40,-1
 455 -18 l 1,41,-1
 436 -35 l 2,42,43
 392 -72 392 -72 366 -102 c 0,44,45
 314 -161 314 -161 303 -206 c 0,46,47
 298 -229 298 -229 298 -254 c 128,-1,48
 298 -279 298 -279 309 -303 c 0,49,50
 332 -353 332 -353 403 -374 c 0,51,52
 440 -385 440 -385 493 -385 c 0,53,54
 517 -385 517 -385 545.5 -382.5 c 128,-1,55
 574 -380 574 -380 595 -377 c 1,0,-1
EndSplineSet
EndChar

StartChar: uogonek
Encoding: 371 371 307
Width: 1126
Flags: W
LayerCount: 2
Fore
SplineSet
881 -377 m 1,0,-1
 881 -283 l 1,1,2
 851 -286 851 -286 821 -286 c 0,3,4
 771 -286 771 -286 751.5 -267.5 c 128,-1,5
 732 -249 732 -249 732 -226.5 c 128,-1,6
 732 -204 732 -204 738 -182 c 0,7,8
 751 -140 751 -140 813 -77 c 0,9,10
 843 -44 843 -44 891 2 c 1,11,12
 904 125 904 125 918 262 c 0,13,14
 933 392 933 392 937.5 423 c 128,-1,15
 942 454 942 454 946 473 c 2,16,-1
 1053 1004 l 1,17,-1
 899 1004 l 1,18,-1
 825 633 l 2,19,20
 800 510 800 510 737 397 c 0,21,22
 672 281 672 281 591 209 c 0,23,24
 550 173 550 173 505 152 c 0,25,26
 461 128 461 128 416 128 c 0,27,28
 329 128 329 128 298 192 c 0,29,30
 281 223 281 223 281 270 c 128,-1,31
 281 317 281 317 293 374 c 2,32,-1
 420 1004 l 1,33,-1
 266 1004 l 1,34,-1
 139 368 l 2,35,36
 125 302 125 302 125 247 c 0,37,38
 125 148 125 148 166 86 c 0,39,40
 229 -18 229 -18 383 -18 c 0,41,42
 495 -18 495 -18 590.5 45 c 128,-1,43
 686 108 686 108 753 226 c 2,44,-1
 777 267 l 1,45,-1
 746 -15 l 1,46,47
 692 -59 692 -59 661 -92 c 128,-1,48
 630 -125 630 -125 613 -153 c 128,-1,49
 596 -181 596 -181 590 -204.5 c 128,-1,50
 584 -228 584 -228 584 -253.5 c 128,-1,51
 584 -279 584 -279 595 -303 c 0,52,53
 618 -353 618 -353 688 -374 c 0,54,55
 725 -385 725 -385 779.5 -385 c 128,-1,56
 834 -385 834 -385 881 -377 c 1,0,-1
EndSplineSet
EndChar

StartChar: longs
Encoding: 383 383 319
Width: 1126
Flags: W
LayerCount: 2
Fore
SplineSet
757 1281 m 128,-1,1
 807 1298 807 1298 864 1298 c 0,2,3
 937 1298 937 1298 996 1269 c 0,4,5
 1048 1244 1048 1244 1083 1204 c 1,6,-1
 1171 1310 l 1,7,8
 1124 1360 1124 1360 1056 1390 c 0,9,10
 974 1427 974 1427 874 1427 c 0,11,12
 689 1427 689 1427 569 1334 c 0,13,14
 509 1286 509 1286 465.5 1212.5 c 128,-1,15
 422 1139 422 1139 401 1038 c 2,16,-1
 196 -12 l 2,17,18
 156 -216 156 -216 59 -410 c 1,19,-1
 215 -410 l 1,20,21
 264 -309 264 -309 300 -210 c 0,22,23
 335 -109 335 -109 355 -5 c 2,24,-1
 551 1000 l 2,25,26
 583 1152 583 1152 666 1227 c 0,27,0
 707 1264 707 1264 757 1281 c 128,-1,1
EndSplineSet
EndChar

StartChar: uni0180
Encoding: 384 384 320
Width: 1126
Flags: W
LayerCount: 2
Fore
SplineSet
824 822 m 0,0,1
 858 767 858 767 858 668 c 0,2,3
 858 623 858 623 851.5 566 c 128,-1,4
 845 509 845 509 828 448 c 128,-1,5
 811 387 811 387 782.5 328 c 128,-1,6
 754 269 754 269 709.5 223 c 128,-1,7
 665 177 665 177 602 148 c 128,-1,8
 539 119 539 119 455 119 c 0,9,10
 412 119 412 119 361 130.5 c 128,-1,11
 310 142 310 142 255 166 c 1,12,-1
 299 391 l 2,13,14
 322 505 322 505 386 617 c 0,15,16
 452 734 452 734 533 803 c 0,17,18
 575 838 575 838 619.5 859 c 128,-1,19
 664 880 664 880 709 880 c 0,20,21
 789 880 789 880 824 822 c 0,0,1
251 9.5 m 128,-1,23
 340 -12 340 -12 449 -12 c 0,24,25
 586 -12 586 -12 691 43 c 128,-1,26
 796 98 796 98 868 192.5 c 128,-1,27
 940 287 940 287 977 414.5 c 128,-1,28
 1014 542 1014 542 1014 688 c 0,29,30
 1014 764 1014 764 997 826 c 0,31,32
 964 950 964 950 862 998 c 0,33,34
 811 1022 811 1022 741 1022 c 0,35,36
 631 1022 631 1022 535 960 c 0,37,38
 441 899 441 899 380 787 c 2,39,-1
 340 716 l 1,40,-1
 426 1036 l 1,41,-1
 450 1157 l 1,42,-1
 740 1157 l 1,43,-1
 765 1282 l 1,44,-1
 475 1282 l 1,45,-1
 502 1413 l 1,46,-1
 348 1413 l 1,47,-1
 322 1282 l 1,48,-1
 162 1282 l 1,49,-1
 137 1157 l 1,50,-1
 297 1157 l 1,51,-1
 83 67 l 1,52,22
 162 31 162 31 251 9.5 c 128,-1,23
EndSplineSet
EndChar

StartChar: uni0181
Encoding: 385 385 321
Width: 1126
Flags: W
LayerCount: 2
Fore
SplineSet
22.5 1108 m 128,-1,1
 -1 1049 -1 1049 -1 975 c 0,2,3
 -1 957 -1 957 3 927 c 1,4,-1
 123 927 l 1,5,6
 121 945 121 945 121 962 c 0,7,8
 121 1042 121 1042 158 1093 c 0,9,10
 197 1148 197 1148 284 1160 c 2,11,-1
 298 1162 l 1,12,-1
 67 10 l 1,13,-1
 410 10 l 2,14,15
 517 10 517 10 601.5 28.5 c 128,-1,16
 686 47 686 47 750 79.5 c 128,-1,17
 814 112 814 112 859 155 c 128,-1,18
 904 198 904 198 932.5 247 c 128,-1,19
 961 296 961 296 974 347.5 c 128,-1,20
 987 399 987 399 987 448.5 c 128,-1,21
 987 498 987 498 971.5 536.5 c 128,-1,22
 956 575 956 575 929 603.5 c 128,-1,23
 902 632 902 632 865.5 650 c 128,-1,24
 829 668 829 668 786 676 c 2,25,-1
 745 684 l 1,26,-1
 785 696 l 2,27,28
 861 718 861 718 914 757 c 0,29,30
 1015 832 1015 832 1045 945 c 0,31,32
 1059 999 1059 999 1059 1053 c 0,33,34
 1059 1297 1059 1297 680 1297 c 2,35,-1
 353 1297 l 2,36,37
 268 1297 268 1297 202 1274 c 128,-1,38
 136 1251 136 1251 91 1209 c 128,-1,0
 46 1167 46 1167 22.5 1108 c 128,-1,1
747 563 m 128,-1,40
 817 516 817 516 817 432 c 0,41,42
 817 369 817 369 791 311 c 0,43,44
 775 279 775 279 748 247.5 c 128,-1,45
 721 216 721 216 679 192 c 0,46,47
 586 140 586 140 438 140 c 2,48,-1
 252 140 l 1,49,-1
 346 610 l 1,50,-1
 545 610 l 2,51,39
 677 610 677 610 747 563 c 128,-1,40
649 1167 m 2,52,53
 715 1167 715 1167 761 1156 c 0,54,55
 851 1135 851 1135 878 1076 c 0,56,57
 891 1047 891 1047 891 1010 c 128,-1,58
 891 973 891 973 875.5 925 c 128,-1,59
 860 877 860 877 821 835.5 c 128,-1,60
 782 794 782 794 717 766 c 128,-1,61
 652 738 652 738 553 738 c 2,62,-1
 371 738 l 1,63,-1
 457 1167 l 1,64,-1
 649 1167 l 2,52,53
EndSplineSet
EndChar

StartChar: uni0183
Encoding: 387 387 323
Width: 1126
Flags: W
LayerCount: 2
Fore
SplineSet
251 9.5 m 128,-1,1
 339 -12 339 -12 449 -12 c 0,2,3
 586 -12 586 -12 691 43 c 128,-1,4
 796 98 796 98 868 192.5 c 128,-1,5
 940 287 940 287 977 414.5 c 128,-1,6
 1014 542 1014 542 1014 688 c 0,7,8
 1014 764 1014 764 997 826 c 0,9,10
 964 950 964 950 862 998 c 0,11,12
 811 1022 811 1022 741 1022 c 0,13,14
 631 1022 631 1022 535 960 c 0,15,16
 441 899 441 899 380 787 c 2,17,-1
 340 716 l 1,18,-1
 426 1036 l 1,19,-1
 477 1288 l 1,20,-1
 1038 1288 l 1,21,-1
 1062 1413 l 1,22,-1
 348 1413 l 1,23,-1
 83 67 l 1,24,0
 163 31 163 31 251 9.5 c 128,-1,1
824 822 m 0,25,26
 858 767 858 767 858 668 c 0,27,28
 858 623 858 623 851.5 566 c 128,-1,29
 845 509 845 509 828 448 c 128,-1,30
 811 387 811 387 782.5 328 c 128,-1,31
 754 269 754 269 709.5 223 c 128,-1,32
 665 177 665 177 602 148 c 128,-1,33
 539 119 539 119 455 119 c 0,34,35
 412 119 412 119 361.5 130.5 c 128,-1,36
 311 142 311 142 255 166 c 1,37,-1
 299 391 l 2,38,39
 321 503 321 503 385 617 c 0,40,41
 416 672 416 672 453 719 c 0,42,43
 531 818 531 818 619 859 c 0,44,45
 664 880 664 880 709 880 c 0,46,47
 789 880 789 880 824 822 c 0,25,26
EndSplineSet
EndChar

StartChar: uni0184
Encoding: 388 388 324
Width: 1126
Flags: W
LayerCount: 2
Fore
SplineSet
483 1297 m 1,0,-1
 480 1297 l 2,1,2
 434 1297 434 1297 378.5 1283 c 128,-1,3
 323 1269 323 1269 274.5 1245 c 128,-1,4
 226 1221 226 1221 194.5 1189 c 128,-1,5
 163 1157 163 1157 163 1122 c 0,6,7
 163 1099 163 1099 193 1073 c 0,8,9
 208 1061 208 1061 226.5 1050.5 c 128,-1,10
 245 1040 245 1040 270 1026 c 1,11,-1
 67 10 l 1,12,-1
 427 10 l 2,13,14
 532 10 532 10 632.5 33 c 128,-1,15
 733 56 733 56 812 107.5 c 128,-1,16
 891 159 891 159 939 241.5 c 128,-1,17
 987 324 987 324 987 444 c 0,18,19
 987 511 987 511 962.5 569 c 128,-1,20
 938 627 938 627 887 669 c 128,-1,21
 836 711 836 711 758.5 735.5 c 128,-1,22
 681 760 681 760 575 760 c 2,23,-1
 375 760 l 1,24,-1
 483 1297 l 1,0,-1
750 580 m 0,25,26
 816 530 816 530 816 435 c 0,27,28
 816 359 816 359 788 302.5 c 128,-1,29
 760 246 760 246 710 210 c 0,30,31
 614 140 614 140 443 140 c 2,32,-1
 250 140 l 1,33,-1
 351 633 l 1,34,-1
 535 633 l 2,35,36
 680 633 680 633 750 580 c 0,25,26
EndSplineSet
EndChar

StartChar: uni0185
Encoding: 389 389 325
Width: 1126
Flags: W
LayerCount: 2
Fore
SplineSet
251 9.5 m 128,-1,1
 339 -12 339 -12 449 -12 c 0,2,3
 586 -12 586 -12 691 43 c 128,-1,4
 796 98 796 98 868 192.5 c 128,-1,5
 940 287 940 287 977 414.5 c 128,-1,6
 1014 542 1014 542 1014 688 c 0,7,8
 1014 764 1014 764 997 826 c 0,9,10
 964 950 964 950 862 998 c 0,11,12
 811 1022 811 1022 741 1022 c 0,13,14
 631 1022 631 1022 535 960 c 0,15,16
 441 899 441 899 380 787 c 2,17,-1
 340 716 l 1,18,-1
 426 1036 l 1,19,-1
 480 1307 l 1,20,-1
 479 1307 l 2,21,22
 431 1307 431 1307 375 1293 c 128,-1,23
 319 1279 319 1279 270.5 1254.5 c 128,-1,24
 222 1230 222 1230 191 1198 c 128,-1,25
 160 1166 160 1166 160 1132 c 0,26,27
 160 1108 160 1108 192 1082 c 0,28,29
 217 1062 217 1062 273 1034 c 1,30,-1
 83 67 l 1,31,0
 163 31 163 31 251 9.5 c 128,-1,1
824 822 m 0,32,33
 858 767 858 767 858 668 c 0,34,35
 858 623 858 623 851.5 566 c 128,-1,36
 845 509 845 509 828 448 c 128,-1,37
 811 387 811 387 782.5 328 c 128,-1,38
 754 269 754 269 709.5 223 c 128,-1,39
 665 177 665 177 602 148 c 128,-1,40
 539 119 539 119 455 119 c 0,41,42
 412 119 412 119 361.5 130.5 c 128,-1,43
 311 142 311 142 255 166 c 1,44,-1
 299 391 l 2,45,46
 321 503 321 503 385 617 c 0,47,48
 416 672 416 672 453 719 c 0,49,50
 531 818 531 818 619 859 c 0,51,52
 664 880 664 880 709 880 c 0,53,54
 789 880 789 880 824 822 c 0,32,33
EndSplineSet
EndChar

StartChar: uni0186
Encoding: 390 390 326
Width: 1126
Flags: W
LayerCount: 2
Fore
SplineSet
1052 642 m 128,-1,1
 1071 745 1071 745 1071 847 c 0,2,3
 1071 962 1071 962 1041 1051 c 0,4,5
 980 1229 980 1229 808 1292 c 0,6,7
 722 1323 722 1323 610 1323 c 0,8,9
 523 1323 523 1323 444.5 1307 c 128,-1,10
 366 1291 366 1291 285 1260 c 1,11,-1
 253 1101 l 1,12,13
 329 1136 329 1136 410 1159 c 128,-1,14
 491 1182 491 1182 577 1182 c 0,15,16
 756 1182 756 1182 836 1074 c 0,17,18
 900 989 900 989 900 837 c 0,19,20
 900 758 900 758 886 675 c 0,21,22
 858 500 858 500 773 364 c 0,23,24
 730 293 730 293 669.5 239.5 c 128,-1,25
 609 186 609 186 531 155 c 128,-1,26
 453 124 453 124 359.5 124 c 128,-1,27
 266 124 266 124 200 144.5 c 128,-1,28
 134 165 134 165 76 199 c 1,29,-1
 45 53 l 1,30,31
 107 21 107 21 181.5 2.5 c 128,-1,32
 256 -16 256 -16 352 -16 c 0,33,34
 476 -16 476 -16 577.5 20 c 128,-1,35
 679 56 679 56 759 118 c 128,-1,36
 839 180 839 180 897.5 263.5 c 128,-1,37
 956 347 956 347 994.5 443 c 128,-1,0
 1033 539 1033 539 1052 642 c 128,-1,1
EndSplineSet
EndChar

StartChar: uni0187
Encoding: 391 391 327
Width: 1126
Flags: W
LayerCount: 2
Fore
SplineSet
1333 1583.5 m 128,-1,1
 1311 1587 1311 1587 1283 1587 c 0,2,3
 1231 1587 1231 1587 1188 1575 c 128,-1,4
 1145 1563 1145 1563 1110 1533 c 128,-1,5
 1075 1503 1075 1503 1047.5 1450 c 128,-1,6
 1020 1397 1020 1397 1001 1317 c 1,7,-1
 998 1308 l 1,8,9
 911 1323 911 1323 827 1323 c 0,10,11
 703 1323 703 1323 601.5 1284.5 c 128,-1,12
 500 1246 500 1246 420 1180 c 128,-1,13
 340 1114 340 1114 281 1026.5 c 128,-1,14
 222 939 222 939 183 840.5 c 128,-1,15
 144 742 144 742 125 638.5 c 128,-1,16
 106 535 106 535 106 439 c 0,17,18
 106 210 106 210 226 97 c 128,-1,19
 346 -16 346 -16 569 -16 c 0,20,21
 656 -16 656 -16 734.5 0.5 c 128,-1,22
 813 17 813 17 894 47 c 1,23,-1
 923 193 l 1,24,25
 852 163 852 163 770 144 c 128,-1,26
 688 125 688 125 602 125 c 0,27,28
 423 125 423 125 343 230 c 0,29,30
 279 314 279 314 279 464 c 0,31,32
 279 537 279 537 292 618.5 c 128,-1,33
 305 700 305 700 332.5 779.5 c 128,-1,34
 360 859 360 859 403 931.5 c 128,-1,35
 446 1004 446 1004 506 1059.5 c 128,-1,36
 566 1115 566 1115 643.5 1148.5 c 128,-1,37
 721 1182 721 1182 814.5 1182 c 128,-1,38
 908 1182 908 1182 976 1161.5 c 128,-1,39
 1044 1141 1044 1141 1103 1106 c 1,40,-1
 1142 1303 l 2,41,42
 1159 1392 1159 1392 1198 1435 c 0,43,44
 1230 1470 1230 1470 1283 1470 c 0,45,46
 1310 1470 1310 1470 1324 1467.5 c 128,-1,47
 1338 1465 1338 1465 1353 1459 c 1,48,-1
 1376 1575 l 1,49,0
 1355 1580 1355 1580 1333 1583.5 c 128,-1,1
EndSplineSet
EndChar

StartChar: uni0188
Encoding: 392 392 328
Width: 1126
Flags: W
LayerCount: 2
Fore
SplineSet
1209 1240.5 m 128,-1,1
 1187 1244 1187 1244 1159 1244 c 0,2,3
 1110 1244 1110 1244 1068.5 1233 c 128,-1,4
 1027 1222 1027 1222 993 1196 c 0,5,6
 923 1143 923 1143 887 1016 c 1,7,-1
 884 1008 l 1,8,9
 813 1018 813 1018 750 1018 c 0,10,11
 627 1018 627 1018 518 971.5 c 128,-1,12
 409 925 409 925 327.5 838.5 c 128,-1,13
 246 752 246 752 198.5 629 c 128,-1,14
 151 506 151 506 151 353 c 0,15,16
 151 168 151 168 255.5 77 c 128,-1,17
 360 -14 360 -14 557 -14 c 0,18,19
 631 -14 631 -14 701 -1 c 128,-1,20
 771 12 771 12 850 39 c 1,21,-1
 850 167 l 1,22,23
 789 143 789 143 720 129 c 128,-1,24
 651 115 651 115 584 115 c 0,25,26
 451 115 451 115 382.5 179.5 c 128,-1,27
 314 244 314 244 314 374 c 0,28,29
 314 470 314 470 342 562 c 128,-1,30
 370 654 370 654 424 726 c 128,-1,31
 478 798 478 798 557.5 842 c 128,-1,32
 637 886 637 886 741 886 c 0,33,34
 808 886 808 886 875 871 c 128,-1,35
 942 856 942 856 994 833 c 1,36,-1
 1018 960 l 2,37,38
 1036 1051 1036 1051 1074 1092 c 0,39,40
 1107 1127 1107 1127 1159 1127 c 0,41,42
 1186 1127 1186 1127 1200 1124.5 c 128,-1,43
 1214 1122 1214 1122 1229 1116 c 1,44,-1
 1252 1232 l 1,45,0
 1231 1237 1231 1237 1209 1240.5 c 128,-1,1
EndSplineSet
EndChar

StartChar: uni018A
Encoding: 394 394 330
Width: 1126
Flags: W
LayerCount: 2
Fore
SplineSet
136.5 1108 m 128,-1,1
 113 1049 113 1049 113 975 c 0,2,3
 113 957 113 957 117 927 c 1,4,-1
 237 927 l 1,5,6
 235 945 235 945 235 962 c 0,7,8
 235 1044 235 1044 272 1093 c 0,9,10
 313 1148 313 1148 398 1160 c 2,11,-1
 412 1162 l 1,12,-1
 181 10 l 1,13,-1
 312 10 l 2,14,15
 444 10 444 10 546.5 38 c 128,-1,16
 649 66 649 66 729 113.5 c 128,-1,17
 809 161 809 161 866 224 c 0,18,19
 977 345 977 345 1030 501 c 0,20,21
 1078 642 1078 642 1089 768 c 0,22,23
 1094 826 1094 826 1094 866 c 0,24,25
 1094 1087 1094 1087 968 1192 c 128,-1,26
 842 1297 842 1297 594 1297 c 2,27,-1
 467 1297 l 2,28,29
 382 1297 382 1297 316 1274 c 128,-1,30
 250 1251 250 1251 205 1209 c 128,-1,0
 160 1167 160 1167 136.5 1108 c 128,-1,1
908 999 m 0,31,32
 930 941 930 941 930 858 c 0,33,34
 930 714 930 714 885 564 c 0,35,36
 847 437 847 437 769 338 c 0,37,38
 682 227 682 227 543 177 c 0,39,40
 470 150 470 150 379 144 c 2,41,-1
 366 143 l 1,42,-1
 571 1167 l 1,43,-1
 579 1167 l 2,44,45
 665 1167 665 1167 730 1150 c 0,46,47
 864 1115 864 1115 908 999 c 0,31,32
EndSplineSet
EndChar

StartChar: uni018B
Encoding: 395 395 331
Width: 1126
Flags: W
LayerCount: 2
Fore
SplineSet
325 1167 m 1,0,-1
 936 1167 l 1,1,-1
 856 760 l 1,2,-1
 627 760 l 2,3,4
 518 760 518 760 418 734 c 128,-1,5
 318 708 318 708 242.5 655 c 128,-1,6
 167 602 167 602 121.5 521.5 c 128,-1,7
 76 441 76 441 76 332 c 0,8,9
 76 259 76 259 104 199.5 c 128,-1,10
 132 140 132 140 186 98 c 128,-1,11
 240 56 240 56 319 33 c 128,-1,12
 398 10 398 10 500 10 c 2,13,-1
 862 10 l 1,14,-1
 1121 1297 l 1,15,-1
 351 1297 l 1,16,-1
 325 1167 l 1,0,-1
479 618.5 m 128,-1,18
 546 633 546 633 616 633 c 2,19,-1
 830 633 l 1,20,-1
 731 140 l 1,21,-1
 517 140 l 2,22,23
 380 140 380 140 311 191.5 c 128,-1,24
 242 243 242 243 242 342 c 0,25,26
 242 425 242 425 274.5 481 c 128,-1,27
 307 537 307 537 359.5 570.5 c 128,-1,17
 412 604 412 604 479 618.5 c 128,-1,18
EndSplineSet
EndChar

StartChar: uni018C
Encoding: 396 396 332
Width: 1126
Flags: W
LayerCount: 2
Fore
SplineSet
788 1010 m 128,-1,1
 739 1016 739 1016 668 1016 c 0,2,3
 530 1016 530 1016 425 961 c 128,-1,4
 320 906 320 906 248 811 c 128,-1,5
 176 716 176 716 139 588.5 c 128,-1,6
 102 461 102 461 102 315 c 0,7,8
 102 159 102 159 169 72 c 0,9,10
 202 29 202 29 253.5 5.5 c 128,-1,11
 305 -18 305 -18 375 -18 c 0,12,13
 487 -18 487 -18 583.5 45.5 c 128,-1,14
 680 109 680 109 747 229 c 2,15,-1
 771 272 l 1,16,-1
 742 0 l 1,17,-1
 886 0 l 1,18,19
 913 261 913 261 920 319 c 0,20,21
 933 425 933 425 940 460 c 2,22,-1
 1129 1413 l 1,23,-1
 416 1413 l 1,24,-1
 391 1288 l 1,25,-1
 950 1288 l 1,26,-1
 891 988 l 1,27,-1
 880 991 l 2,28,0
 837 1004 837 1004 788 1010 c 128,-1,1
292 182 m 0,29,30
 258 238 258 238 258 336 c 0,31,32
 258 380 258 380 264.5 437.5 c 128,-1,33
 271 495 271 495 288 556 c 128,-1,34
 305 617 305 617 333.5 675.5 c 128,-1,35
 362 734 362 734 407 780 c 128,-1,36
 452 826 452 826 515 855 c 128,-1,37
 578 884 578 884 662 884 c 0,38,39
 705 884 705 884 755 872.5 c 128,-1,40
 805 861 805 861 861 837 c 1,41,-1
 819 623 l 2,42,43
 801 533 801 533 760 444.5 c 128,-1,44
 719 356 719 356 663.5 284.5 c 128,-1,45
 608 213 608 213 542 168 c 128,-1,46
 476 123 476 123 408 123 c 0,47,48
 328 123 328 123 292 182 c 0,29,30
EndSplineSet
EndChar

StartChar: uni018D
Encoding: 397 397 333
Width: 1126
Flags: W
LayerCount: 2
Fore
SplineSet
1072 956 m 0,0,1
 1081 1008 1081 1008 1081 1057 c 0,2,3
 1081 1136 1081 1136 1057 1203.5 c 128,-1,4
 1033 1271 1033 1271 985.5 1320 c 128,-1,5
 938 1369 938 1369 867.5 1397 c 128,-1,6
 797 1425 797 1425 703 1425 c 0,7,8
 582 1425 582 1425 485.5 1381.5 c 128,-1,9
 389 1338 389 1338 322 1262.5 c 128,-1,10
 255 1187 255 1187 219 1085 c 0,11,12
 183 980 183 980 183 860 c 0,13,14
 183 752 183 752 226 660 c 0,15,16
 266 572 266 572 354 478 c 2,17,-1
 465 359 l 2,18,19
 502 318 502 318 522 282 c 128,-1,20
 542 246 542 246 542 212 c 128,-1,21
 542 178 542 178 526 158 c 0,22,23
 497 121 497 121 434 113 c 0,24,25
 407 109 407 109 381 109 c 0,26,27
 271 109 271 109 131 143 c 1,28,-1
 106 18 l 1,29,30
 167 2 167 2 235.5 -8 c 128,-1,31
 304 -18 304 -18 365 -18 c 128,-1,32
 426 -18 426 -18 488.5 -8 c 128,-1,33
 551 2 551 2 599.5 29 c 128,-1,34
 648 56 648 56 678.5 104 c 128,-1,35
 709 152 709 152 709 231 c 0,36,37
 709 283 709 283 689.5 328.5 c 128,-1,38
 670 374 670 374 629 419 c 2,39,-1
 619 430 l 1,40,-1
 632 436 l 1,41,42
 720 470 720 470 793 517.5 c 128,-1,43
 866 565 866 565 923 628 c 0,44,45
 1038 757 1038 757 1072 956 c 0,0,1
350 808 m 128,-1,47
 344 844 344 844 344 884 c 0,48,49
 344 957 344 957 365.5 1030.5 c 128,-1,50
 387 1104 387 1104 430 1163 c 128,-1,51
 473 1222 473 1222 537 1259 c 128,-1,52
 601 1296 601 1296 686 1296 c 0,53,54
 803 1296 803 1296 862 1228 c 128,-1,55
 921 1160 921 1160 921 1044 c 0,56,57
 921 990 921 990 910 936 c 0,58,59
 890 838 890 838 850 768 c 128,-1,60
 810 698 810 698 759 650.5 c 128,-1,61
 708 603 708 603 650.5 574.5 c 128,-1,62
 593 546 593 546 534 531 c 1,63,-1
 472 594 l 2,64,65
 400 668 400 668 371 737 c 0,66,46
 356 772 356 772 350 808 c 128,-1,47
EndSplineSet
EndChar

StartChar: uni018E
Encoding: 398 398 334
Width: 1126
Flags: W
LayerCount: 2
Fore
SplineSet
774 622 m 1,0,-1
 678 152 l 1,1,-1
 115 152 l 1,2,-1
 89 20 l 1,3,-1
 810 20 l 1,4,-1
 1069 1307 l 1,5,-1
 346 1307 l 1,6,-1
 320 1177 l 1,7,-1
 885 1177 l 1,8,-1
 800 752 l 1,9,-1
 257 752 l 1,10,-1
 231 622 l 1,11,-1
 774 622 l 1,0,-1
EndSplineSet
EndChar

StartChar: uni018F
Encoding: 399 399 335
Width: 1126
Flags: W
LayerCount: 2
Fore
SplineSet
927 876 m 0,0,1
 927 824 927 824 916 743 c 1,2,-1
 670 743 l 2,3,4
 506 743 506 743 387.5 712 c 128,-1,5
 269 681 269 681 193 625.5 c 128,-1,6
 117 570 117 570 81 494 c 128,-1,7
 45 418 45 418 45 326 c 0,8,9
 45 250 45 250 70.5 186.5 c 128,-1,10
 96 123 96 123 147 78 c 128,-1,11
 198 33 198 33 274.5 7.5 c 128,-1,12
 351 -18 351 -18 452 -18 c 0,13,14
 577 -18 577 -18 677 27 c 0,15,16
 876 117 876 117 983 368 c 0,17,18
 1035 492 1035 492 1064 649 c 0,19,20
 1084 762 1084 762 1084 865 c 0,21,22
 1084 1087 1084 1087 969 1204.5 c 128,-1,23
 854 1322 854 1322 617 1322 c 0,24,25
 478 1322 478 1322 344 1287 c 0,26,27
 307 1277 307 1277 270 1265 c 1,28,-1
 245 1137 l 1,29,30
 314 1157 314 1157 403 1175.5 c 128,-1,31
 492 1194 492 1194 591 1194 c 0,32,33
 739 1194 739 1194 822 1131 c 0,34,35
 927 1052 927 1052 927 876 c 0,0,1
434 593.5 m 128,-1,37
 522 615 522 615 657 615 c 2,38,-1
 892 615 l 1,39,-1
 890 603 l 2,40,41
 864 471 864 471 818 379 c 128,-1,42
 772 287 772 287 715 229 c 128,-1,43
 658 171 658 171 591.5 145 c 128,-1,44
 525 119 525 119 457 119 c 0,45,46
 333 119 333 119 266.5 181 c 128,-1,47
 200 243 200 243 200 349 c 0,48,49
 200 402 200 402 220.5 450.5 c 128,-1,50
 241 499 241 499 293.5 535.5 c 128,-1,36
 346 572 346 572 434 593.5 c 128,-1,37
EndSplineSet
EndChar

StartChar: uni0190
Encoding: 400 400 336
Width: 1126
Flags: W
LayerCount: 2
Fore
SplineSet
619.5 1182 m 128,-1,1
 677 1195 677 1195 738 1195 c 0,2,3
 907 1195 907 1195 1061 1144 c 1,4,-1
 1088 1279 l 1,5,6
 1023 1299 1023 1299 943 1311 c 128,-1,7
 863 1323 863 1323 750 1323 c 0,8,9
 652 1323 652 1323 562.5 1299 c 128,-1,10
 473 1275 473 1275 404.5 1227 c 128,-1,11
 336 1179 336 1179 295 1106 c 128,-1,12
 254 1033 254 1033 254 935 c 0,13,14
 254 855 254 855 293 796 c 128,-1,15
 332 737 332 737 407 700 c 2,16,-1
 431 688 l 1,17,-1
 406 681 l 2,18,19
 249 636 249 636 171 549 c 0,20,21
 85 454 85 454 85 306 c 0,22,23
 85 233 85 233 111 174 c 0,24,25
 164 54 164 54 321 7 c 0,26,27
 401 -16 401 -16 508 -16 c 0,28,29
 717 -16 717 -16 909 57 c 1,30,-1
 909 198 l 1,31,32
 833 170 833 170 742 152 c 128,-1,33
 651 134 651 134 526 134 c 0,34,35
 389 134 389 134 321 189 c 128,-1,36
 253 244 253 244 253 343 c 0,37,38
 253 422 253 422 286.5 475.5 c 128,-1,39
 320 529 320 529 373.5 561 c 128,-1,40
 427 593 427 593 493 606.5 c 128,-1,41
 559 620 559 620 625 620 c 2,42,-1
 891 620 l 1,43,-1
 916 747 l 1,44,-1
 658 747 l 2,45,46
 545 747 545 747 480.5 796.5 c 128,-1,47
 416 846 416 846 416 942 c 0,48,49
 416 1013 416 1013 444 1061.5 c 128,-1,50
 472 1110 472 1110 517 1139.5 c 128,-1,0
 562 1169 562 1169 619.5 1182 c 128,-1,1
EndSplineSet
EndChar

StartChar: uni0191
Encoding: 401 401 337
Width: 1126
Flags: W
LayerCount: 2
Fore
SplineSet
-178 -192 m 1,0,-1
 -178 -336 l 1,1,2
 -126 -351 -126 -351 -63 -351 c 0,3,4
 22 -351 22 -351 80 -324 c 128,-1,5
 138 -297 138 -297 176.5 -249.5 c 128,-1,6
 215 -202 215 -202 238.5 -137 c 128,-1,7
 262 -72 262 -72 277 3 c 2,8,-1
 393 582 l 1,9,-1
 920 582 l 1,10,-1
 944 711 l 1,11,-1
 418 711 l 1,12,-1
 508 1155 l 1,13,-1
 1063 1155 l 1,14,-1
 1090 1287 l 1,15,-1
 373 1287 l 1,16,-1
 122 38 l 2,17,18
 95 -96 95 -96 49 -155 c 0,19,20
 26 -185 26 -185 -3.5 -197.5 c 128,-1,21
 -33 -210 -33 -210 -68 -210 c 0,22,23
 -123 -210 -123 -210 -178 -192 c 1,0,-1
EndSplineSet
EndChar

StartChar: florin
Encoding: 402 402 338
Width: 1126
Flags: W
LayerCount: 2
Fore
SplineSet
203 -49 m 0,0,1
 149 -104 149 -104 63 -104 c 0,2,3
 -10 -104 -10 -104 -66 -95 c 1,4,-1
 -90 -219 l 1,5,6
 -61 -226 -61 -226 -24.5 -229.5 c 128,-1,7
 12 -233 12 -233 45 -233 c 0,8,9
 145 -233 145 -233 211.5 -207 c 128,-1,10
 278 -181 278 -181 324 -134 c 128,-1,11
 370 -87 370 -87 401 -19 c 0,12,13
 433 51 433 51 462 139 c 2,14,-1
 630 647 l 1,15,-1
 977 647 l 1,16,-1
 1002 772 l 1,17,-1
 670 772 l 1,18,-1
 771 1080 l 2,19,20
 805 1186 805 1186 865 1239 c 128,-1,21
 925 1292 925 1292 1020 1292 c 0,22,23
 1101 1292 1101 1292 1166 1279 c 1,24,-1
 1192 1409 l 1,25,26
 1145 1419 1145 1419 1074 1422 c 0,27,28
 1051 1423 1051 1423 1032 1423 c 0,29,30
 949 1423 949 1423 883.5 1403 c 128,-1,31
 818 1383 818 1383 767 1340.5 c 128,-1,32
 716 1298 716 1298 676 1232.5 c 128,-1,33
 636 1167 636 1167 605 1074 c 2,34,-1
 509 773 l 1,35,-1
 201 773 l 1,36,-1
 176 647 l 1,37,-1
 469 647 l 1,38,-1
 292 108 l 2,39,40
 258 8 258 8 203 -49 c 0,0,1
EndSplineSet
EndChar

StartChar: uni0193
Encoding: 403 403 339
Width: 1126
Flags: W
LayerCount: 2
Fore
SplineSet
632 123 m 0,0,1
 607 121 607 121 588 121 c 0,2,3
 415 121 415 121 329 210 c 0,4,5
 248 294 248 294 248 458 c 0,6,7
 248 533 248 533 262 616.5 c 128,-1,8
 276 700 276 700 306.5 780.5 c 128,-1,9
 337 861 337 861 383.5 933.5 c 128,-1,10
 430 1006 430 1006 494.5 1061 c 128,-1,11
 559 1116 559 1116 642.5 1149 c 128,-1,12
 726 1182 726 1182 829 1182 c 0,13,14
 917 1182 917 1182 990 1159 c 0,15,16
 1048 1142 1048 1142 1113 1104 c 1,17,-1
 1152 1303 l 2,18,19
 1169 1392 1169 1392 1208 1435 c 0,20,21
 1240 1470 1240 1470 1293 1470 c 0,22,23
 1320 1470 1320 1470 1334 1467.5 c 128,-1,24
 1348 1465 1348 1465 1363 1459 c 1,25,-1
 1386 1575 l 1,26,27
 1365 1580 1365 1580 1343 1583.5 c 128,-1,28
 1321 1587 1321 1587 1293 1587 c 0,29,30
 1241 1587 1241 1587 1198 1575 c 128,-1,31
 1155 1563 1155 1563 1120 1533 c 128,-1,32
 1085 1503 1085 1503 1057 1450.5 c 128,-1,33
 1029 1398 1029 1398 1011 1318 c 2,34,-1
 1009 1308 l 1,35,-1
 999 1310 l 2,36,37
 922 1325 922 1325 838 1325 c 0,38,39
 714 1325 714 1325 610 1289.5 c 128,-1,40
 506 1254 506 1254 421.5 1192 c 128,-1,41
 337 1130 337 1130 274 1045.5 c 128,-1,42
 211 961 211 961 168 864 c 128,-1,43
 125 767 125 767 103.5 660 c 128,-1,44
 82 553 82 553 82 448 c 0,45,46
 82 330 82 330 114 243 c 0,47,48
 179 69 179 69 353 11 c 0,49,50
 441 -18 441 -18 551 -18 c 0,51,52
 638 -18 638 -18 731.5 2.5 c 128,-1,53
 825 23 825 23 913 59 c 1,54,-1
 1043 719 l 1,55,-1
 620 719 l 1,56,-1
 596 590 l 1,57,-1
 862 590 l 1,58,-1
 775 151 l 1,59,60
 717 130 717 130 632 123 c 0,0,1
EndSplineSet
EndChar

StartChar: uni0194
Encoding: 404 404 340
Width: 1126
Flags: W
LayerCount: 2
Fore
SplineSet
86 10 m 1,0,-1
 835 10 l 1,1,-1
 651 496 l 1,2,-1
 1262 1297 l 1,3,-1
 1097 1297 l 1,4,-1
 587 613 l 1,5,-1
 348 1297 l 1,6,-1
 178 1297 l 1,7,-1
 476 503 l 1,8,-1
 86 10 l 1,0,-1
644 121 m 1,9,-1
 328 121 l 1,10,-1
 544 401 l 1,11,-1
 644 121 l 1,9,-1
EndSplineSet
EndChar

StartChar: uni0195
Encoding: 405 405 341
Width: 1126
Flags: W
LayerCount: 2
Fore
SplineSet
387 852 m 128,-1,1
 430 885 430 885 476 885 c 0,2,3
 515 885 515 885 537 862.5 c 128,-1,4
 559 840 559 840 559 787 c 0,5,6
 559 749 559 749 549 697 c 2,7,-1
 473 312 l 2,8,9
 461 247 461 247 461 202.5 c 128,-1,10
 461 158 461 158 472 117.5 c 128,-1,11
 483 77 483 77 509 47.5 c 128,-1,12
 535 18 535 18 579.5 0 c 128,-1,13
 624 -18 624 -18 693 -18 c 128,-1,14
 762 -18 762 -18 810.5 2.5 c 128,-1,15
 859 23 859 23 892.5 63.5 c 128,-1,16
 926 104 926 104 948 165 c 128,-1,17
 970 226 970 226 986 307 c 2,18,-1
 1123 1004 l 1,19,-1
 980 1004 l 1,20,-1
 843 306 l 2,21,22
 832 253 832 253 819 215 c 128,-1,23
 806 177 806 177 789.5 153 c 128,-1,24
 773 129 773 129 751.5 118 c 128,-1,25
 730 107 730 107 704 107 c 0,26,27
 686 107 686 107 668.5 112 c 128,-1,28
 651 117 651 117 637 130 c 0,29,30
 608 159 608 159 608 225 c 0,31,32
 608 262 608 262 621 334 c 2,33,-1
 695 714 l 2,34,35
 708 777 708 777 708 825 c 128,-1,36
 708 873 708 873 695 911 c 0,37,38
 669 986 669 986 605 1010 c 0,39,40
 574 1022 574 1022 538 1022 c 0,41,42
 479 1022 479 1022 432 997.5 c 128,-1,43
 385 973 385 973 340 919 c 2,44,-1
 311 884 l 1,45,-1
 346 1016 l 1,46,-1
 427 1413 l 1,47,-1
 280 1413 l 1,48,-1
 1 0 l 1,49,-1
 147 0 l 1,50,-1
 295 750 l 1,51,0
 344 819 344 819 387 852 c 128,-1,1
EndSplineSet
EndChar

StartChar: uni0197
Encoding: 407 407 343
Width: 1126
Flags: W
LayerCount: 2
Fore
SplineSet
313 1177 m 1,0,-1
 614 1177 l 1,1,-1
 529 752 l 1,2,-1
 301 752 l 1,3,-1
 276 622 l 1,4,-1
 503 622 l 1,5,-1
 409 152 l 1,6,-1
 108 152 l 1,7,-1
 82 20 l 1,8,-1
 844 20 l 1,9,-1
 871 152 l 1,10,-1
 570 152 l 1,11,-1
 663 622 l 1,12,-1
 905 622 l 1,13,-1
 930 752 l 1,14,-1
 689 752 l 1,15,-1
 774 1177 l 1,16,-1
 1075 1177 l 1,17,-1
 1102 1307 l 1,18,-1
 340 1307 l 1,19,-1
 313 1177 l 1,0,-1
EndSplineSet
EndChar

StartChar: uni0198
Encoding: 408 408 344
Width: 1126
Flags: W
LayerCount: 2
Fore
SplineSet
971 1148 m 128,-1,1
 993 1164 993 1164 1015 1171.5 c 128,-1,2
 1037 1179 1037 1179 1064 1179 c 128,-1,3
 1091 1179 1091 1179 1105.5 1176 c 128,-1,4
 1120 1173 1120 1173 1128 1171 c 1,5,-1
 1151 1292 l 1,6,7
 1101 1303 1101 1303 1052.5 1303 c 128,-1,8
 1004 1303 1004 1303 966 1291.5 c 128,-1,9
 928 1280 928 1280 895.5 1258.5 c 128,-1,10
 863 1237 863 1237 832.5 1205.5 c 128,-1,11
 802 1174 802 1174 767 1135 c 2,12,-1
 359 676 l 1,13,-1
 731 10 l 1,14,-1
 919 10 l 1,15,-1
 529 677 l 1,16,-1
 868 1046 l 2,17,18
 900 1081 900 1081 924.5 1106.5 c 128,-1,0
 949 1132 949 1132 971 1148 c 128,-1,1
65 10 m 1,19,-1
 223 10 l 1,20,-1
 357 674 l 1,21,-1
 356 673 l 1,22,-1
 482 1297 l 1,23,-1
 323 1297 l 1,24,-1
 65 10 l 1,19,-1
EndSplineSet
EndChar

StartChar: uni0199
Encoding: 409 409 345
Width: 1126
Flags: W
LayerCount: 2
Fore
SplineSet
813 1274 m 1,0,-1
 839 1403 l 1,1,2
 750 1425 750 1425 677 1425 c 0,3,4
 589 1425 589 1425 525 1405 c 128,-1,5
 461 1385 461 1385 417 1343 c 128,-1,6
 373 1301 373 1301 344.5 1235 c 128,-1,7
 316 1169 316 1169 297 1076 c 2,8,-1
 86 20 l 1,9,-1
 240 20 l 1,10,-1
 314 391 l 2,11,12
 346 549 346 549 443 693 c 0,13,14
 482 751 482 751 527.5 795 c 128,-1,15
 573 839 573 839 623 865.5 c 128,-1,16
 673 892 673 892 723 892 c 0,17,18
 759 892 759 892 782 881 c 0,19,20
 821 866 821 866 839.5 836 c 128,-1,21
 858 806 858 806 858 763 c 0,22,23
 858 719 858 719 834 677 c 0,24,25
 816 646 816 646 780 620 c 0,26,27
 711 568 711 568 561 539 c 0,28,29
 493 526 493 526 405 519 c 1,30,-1
 732 20 l 1,31,-1
 927 20 l 1,32,-1
 622 447 l 1,33,-1
 637 450 l 2,34,35
 703 462 703 462 771 487 c 0,36,37
 821 506 821 506 865 533 c 0,38,39
 954 589 954 589 993 678 c 0,40,41
 1012 722 1012 722 1012 777 c 0,42,43
 1012 830 1012 830 995 877 c 0,44,45
 970 944 970 944 910 983 c 128,-1,46
 850 1022 850 1022 756 1022 c 0,47,48
 702 1022 702 1022 649 1005 c 0,49,50
 572 982 572 982 507.5 927.5 c 128,-1,51
 443 873 443 873 402 796 c 2,52,-1
 355 710 l 1,53,-1
 383 804 l 2,54,55
 416 911 416 911 438 1018 c 2,56,-1
 451 1081 l 2,57,58
 461 1130 461 1130 475.5 1169.5 c 128,-1,59
 490 1209 490 1209 513.5 1237.5 c 128,-1,60
 537 1266 537 1266 570 1281.5 c 128,-1,61
 603 1297 603 1297 649 1297 c 0,62,63
 728 1297 728 1297 813 1274 c 1,0,-1
EndSplineSet
EndChar

StartChar: uni019B
Encoding: 411 411 347
Width: 1126
Flags: W
LayerCount: 2
Fore
SplineSet
337 1404 m 1,0,-1
 337 1280 l 1,1,2
 399 1296 399 1296 452 1296 c 0,3,4
 514 1296 514 1296 549 1252 c 2,5,-1
 556 1244 l 1,6,-1
 372 1127 l 1,7,-1
 430 1029 l 1,8,-1
 587 1129 l 1,9,-1
 604 1022 l 1,10,-1
 -19 0 l 1,11,-1
 156 0 l 1,12,-1
 542 653 l 1,13,-1
 639 823 l 1,14,-1
 661 649 l 1,15,-1
 727 209 l 2,16,17
 744 86 744 86 788 36 c 0,18,19
 810 11 810 11 840.5 -0.5 c 128,-1,20
 871 -12 871 -12 913 -12 c 0,21,22
 928 -12 928 -12 950.5 -10 c 128,-1,23
 973 -8 973 -8 989 -4 c 1,24,-1
 989 123 l 1,25,26
 986 123 986 123 984 123 c 2,27,-1
 969 123 l 2,28,29
 946 123 946 123 930 130 c 0,30,31
 900 142 900 142 888 191 c 0,32,33
 882 214 882 214 877 249 c 2,34,-1
 734 1185 l 2,35,36
 731 1198 731 1198 728 1218 c 1,37,-1
 895 1324 l 1,38,-1
 837 1422 l 1,39,-1
 691 1329 l 1,40,-1
 686 1338 l 2,41,42
 668 1365 668 1365 643 1383 c 0,43,44
 610 1407 610 1407 572 1416 c 128,-1,45
 534 1425 534 1425 490 1425 c 0,46,47
 411 1425 411 1425 337 1404 c 1,0,-1
EndSplineSet
EndChar

StartChar: uni019C
Encoding: 412 412 348
Width: 1126
Flags: W
LayerCount: 2
Fore
SplineSet
263 152 m 0,0,1
 235 124 235 124 211 124 c 0,2,3
 179 124 179 124 176 170 c 0,4,5
 175 175 175 175 175 187 c 0,6,7
 175 225 175 225 193 313 c 2,8,-1
 393 1307 l 1,9,-1
 253 1307 l 1,10,-1
 53 301 l 2,11,12
 38 225 38 225 38 167 c 0,13,14
 38 103 38 103 55 61 c 0,15,16
 86 -18 86 -18 180 -18 c 0,17,18
 220 -18 220 -18 255 1 c 0,19,20
 322 37 322 37 384 131 c 0,21,22
 413 175 413 175 442 226 c 2,23,-1
 483 297 l 1,24,-1
 461 218 l 2,25,26
 445 164 445 164 445 122 c 128,-1,27
 445 80 445 80 457.5 49.5 c 128,-1,28
 470 19 470 19 498.5 0.5 c 128,-1,29
 527 -18 527 -18 576 -18 c 0,30,31
 615 -18 615 -18 650 3 c 0,32,33
 717 45 717 45 778 150 c 0,34,35
 807 195 807 195 836 245 c 2,36,-1
 863 293 l 1,37,-1
 821 2 l 1,38,-1
 937 2 l 1,39,40
 971 243 971 243 1015 473 c 2,41,-1
 1183 1307 l 1,42,-1
 1043 1307 l 1,43,-1
 904 612 l 2,44,45
 887 527 887 527 830 406 c 0,46,47
 805 353 805 353 775 303 c 0,48,49
 713 199 713 199 659 152 c 0,50,51
 630 127 630 127 606 127 c 0,52,53
 574 127 574 127 571 169 c 0,54,55
 570 174 570 174 570 186 c 0,56,57
 570 224 570 224 588 313 c 2,58,-1
 788 1307 l 1,59,-1
 649 1307 l 1,60,-1
 510 612 l 2,61,62
 492 524 492 524 436 406 c 0,63,64
 379 288 379 288 321 214 c 0,65,66
 291 176 291 176 263 152 c 0,0,1
EndSplineSet
EndChar

StartChar: uni019D
Encoding: 413 413 349
Width: 1126
Flags: W
LayerCount: 2
Fore
SplineSet
-92 -270 m 128,-1,1
 -127 -287 -127 -287 -180 -287 c 2,2,-1
 -194 -287 l 2,3,4
 -198 -287 -198 -287 -203 -286 c 1,5,-1
 -203 -419 l 1,6,7
 -181 -421 -181 -421 -159 -421 c 0,8,9
 -88 -421 -88 -421 -36 -401 c 128,-1,10
 16 -381 16 -381 53.5 -340.5 c 128,-1,11
 91 -300 91 -300 116 -238 c 128,-1,12
 141 -176 141 -176 158 -92 c 2,13,-1
 399 1115 l 1,14,-1
 470 807 l 1,15,-1
 685 0 l 1,16,-1
 892 0 l 1,17,-1
 1150 1287 l 1,18,-1
 1004 1287 l 1,19,-1
 931 924 l 1,20,-1
 782 179 l 1,21,-1
 700 523 l 1,22,-1
 495 1287 l 1,23,-1
 290 1287 l 1,24,-1
 18 -66 l 2,25,26
 9 -112 9 -112 -3 -152 c 128,-1,27
 -15 -192 -15 -192 -36 -222.5 c 128,-1,0
 -57 -253 -57 -253 -92 -270 c 128,-1,1
EndSplineSet
EndChar

StartChar: Ohorn
Encoding: 416 416 352
Width: 1126
Flags: W
LayerCount: 2
Fore
SplineSet
168.5 95 m 128,-1,1
 266 -18 266 -18 461 -18 c 0,2,3
 571 -18 571 -18 662 20.5 c 128,-1,4
 753 59 753 59 825.5 125 c 128,-1,5
 898 191 898 191 952 280.5 c 128,-1,6
 1006 370 1006 370 1042 471 c 128,-1,7
 1078 572 1078 572 1096 678.5 c 128,-1,8
 1114 785 1114 785 1114 888 c 0,9,10
 1114 1010 1114 1010 1081 1099 c 2,11,-1
 1077 1110 l 1,12,-1
 1088 1113 l 2,13,14
 1147 1126 1147 1126 1194 1153 c 128,-1,15
 1241 1180 1241 1180 1273 1217.5 c 128,-1,16
 1305 1255 1305 1255 1322 1301.5 c 128,-1,17
 1339 1348 1339 1348 1339 1400 c 0,18,19
 1339 1434 1339 1434 1320 1451.5 c 128,-1,20
 1301 1469 1301 1469 1264 1469 c 0,21,22
 1222 1469 1222 1469 1200 1447 c 0,23,24
 1177 1423 1177 1423 1172 1365 c 0,25,26
 1171 1347 1171 1347 1170 1329 c 0,27,28
 1167 1281 1167 1281 1164 1262 c 0,29,30
 1157 1229 1157 1229 1126 1207 c 128,-1,31
 1095 1185 1095 1185 1047 1181 c 1,32,-1
 1041 1181 l 1,33,-1
 1038 1185 l 1,34,35
 941 1325 941 1325 725 1325 c 0,36,37
 615 1325 615 1325 524 1286 c 128,-1,38
 433 1247 433 1247 360.5 1180.5 c 128,-1,39
 288 1114 288 1114 233.5 1025 c 128,-1,40
 179 936 179 936 143 835 c 128,-1,41
 107 734 107 734 89 627 c 128,-1,42
 71 520 71 520 71 419 c 0,43,0
 71 208 71 208 168.5 95 c 128,-1,1
553 1142 m 128,-1,45
 620 1180 620 1180 705 1180 c 0,46,47
 831 1180 831 1180 894 1095 c 0,48,49
 952 1017 952 1017 952 874 c 0,50,51
 952 807 952 807 940.5 727 c 128,-1,52
 929 647 929 647 904.5 564.5 c 128,-1,53
 880 482 880 482 842.5 404 c 128,-1,54
 805 326 805 326 752.5 264 c 128,-1,55
 700 202 700 202 632.5 164.5 c 128,-1,56
 565 127 565 127 481 127 c 0,57,58
 416 127 416 127 369 149 c 0,59,60
 234 212 234 212 234 434 c 0,61,62
 234 499 234 499 245.5 578.5 c 128,-1,63
 257 658 257 658 281.5 741 c 128,-1,64
 306 824 306 824 343.5 902 c 128,-1,65
 381 980 381 980 433.5 1042 c 128,-1,44
 486 1104 486 1104 553 1142 c 128,-1,45
EndSplineSet
EndChar

StartChar: ohorn
Encoding: 417 417 353
Width: 1126
Flags: W
LayerCount: 2
Fore
SplineSet
784 811 m 128,-1,1
 844 748 844 748 844 623 c 0,2,3
 844 537 844 537 819 446.5 c 128,-1,4
 794 356 794 356 744.5 281 c 128,-1,5
 695 206 695 206 621.5 157.5 c 128,-1,6
 548 109 548 109 451 109 c 0,7,8
 338 109 338 109 278 172.5 c 128,-1,9
 218 236 218 236 218 361 c 0,10,11
 218 418 218 418 229 479 c 0,12,13
 252 603 252 603 317 702 c 0,14,15
 350 753 350 753 394 791.5 c 128,-1,16
 438 830 438 830 492 852 c 128,-1,17
 546 874 546 874 611 874 c 0,18,0
 724 874 724 874 784 811 c 128,-1,1
821 987 m 128,-1,20
 742 1022 742 1022 632 1022 c 0,21,22
 542 1022 542 1022 465 995.5 c 128,-1,23
 388 969 388 969 324 922 c 128,-1,24
 260 875 260 875 211 810.5 c 128,-1,25
 162 746 162 746 128.5 671.5 c 128,-1,26
 95 597 95 597 77.5 515 c 128,-1,27
 60 433 60 433 60 349 c 0,28,29
 60 165 60 165 157.5 73.5 c 128,-1,30
 255 -18 255 -18 431 -18 c 0,31,32
 520 -18 520 -18 597.5 8.5 c 128,-1,33
 675 35 675 35 738.5 82 c 128,-1,34
 802 129 802 129 851 193 c 128,-1,35
 900 257 900 257 933.5 332 c 128,-1,36
 967 407 967 407 984.5 489 c 128,-1,37
 1002 571 1002 571 1002 653 c 0,38,39
 1002 728 1002 728 983 796 c 1,40,-1
 981 806 l 1,41,-1
 990 809 l 1,42,43
 1039 821 1039 821 1084.5 844 c 128,-1,44
 1130 867 1130 867 1165 902.5 c 128,-1,45
 1200 938 1200 938 1221 986 c 128,-1,46
 1242 1034 1242 1034 1242 1097 c 0,47,48
 1242 1131 1242 1131 1223 1148.5 c 128,-1,49
 1204 1166 1204 1166 1167 1166 c 0,50,51
 1125 1166 1125 1166 1103 1144 c 0,52,53
 1086 1126 1086 1126 1080.5 1096.5 c 128,-1,54
 1075 1067 1075 1067 1073.5 1040.5 c 128,-1,55
 1072 1014 1072 1014 1067 989 c 0,56,57
 1058 949 1058 949 1031.5 917.5 c 128,-1,58
 1005 886 1005 886 956 877 c 2,59,-1
 949 876 l 1,60,-1
 946 882 l 1,61,19
 900 952 900 952 821 987 c 128,-1,20
EndSplineSet
EndChar

